<svg width="512" height="512" version="1.1" xmlns="http://www.w3.org/2000/svg" desc="Created with imagetracer.js version 1.2.6" ><path fill="rgb(241,239,233)" stroke="rgb(241,239,233)" stroke-width="1" opacity="0.996078431372549" d="M 240 50 L 325.5 50 L 326 51.5 L 324 53.5 L 323 59.5 L 324 63.5 L 323 66.5 Q 324.5 72 322 73.5 L 323 75.5 L 322 79.5 L 322 81.5 L 323 85.5 L 323 87.5 L 322 91.5 L 322 95.5 L 323 97.5 L 322 99.5 L 324 107.5 L 323 110.5 L 325 116.5 Q 322.8 117.8 325.5 119 Q 330.9 117.1 330 120.5 L 330 122.5 L 332 128.5 L 332 130.5 L 333 132.5 Q 330.8 133.8 333.5 135 L 346 135.5 L 346 137.5 L 347 139.5 L 346 141.5 L 349 150 L 357.5 150 L 358 152.5 L 360 157 L 364 157 L 364 158.5 L 370.5 171 L 382.5 171 L 384 172.5 L 385 177 Q 387.7 175.9 387 178.5 L 389 184 Q 392.1 183.3 391.5 186 L 400.5 186 L 403 190.5 Q 402.3 192.8 404.5 192 L 404.5 194 L 407 195.5 L 409.5 199 L 415 199 L 415 201.5 L 418 203 L 419.5 207 L 421 206.5 Q 420.5 210.5 423.5 211 L 440.5 211 L 441 212.5 L 443 212.5 L 444.5 215 Q 446.8 214.3 446 216.5 Q 448.5 221.3 451 219.5 Q 449.9 222.8 452.5 222 L 453.5 223 L 460 223 L 460 270.5 L 458.5 271 L 456 270 Q 457.3 267 453.5 268 L 443.5 266 L 429.5 266 L 427 265 L 424.5 261 L 420 258.5 L 419.5 257 L 418 257.5 L 415.5 254 L 408.5 253 L 406.5 251 L 394.5 251 L 387 245.5 L 383.5 240 L 382 240.5 L 381.5 239 L 375 239 L 375 236.5 L 373.5 235 L 363.5 235 L 360 231.5 L 355.5 225 Q 350.1 226.9 351 223.5 L 348.5 223 L 340.5 223 L 339 221.5 Q 340.1 218.2 337.5 219 L 332.5 211 L 318 210 L 318 207.5 L 312.5 198 Q 308 199 307 196.5 Q 307.5 192.5 304.5 192 L 296.5 192 L 296 190.5 L 290.5 180 L 287 178.5 L 285.5 176 Q 279.3 177.3 278 173.5 Q 260.5 148 250 115.5 L 243 86.5 L 242 71.5 L 241 70.5 L 241 55.5 L 240 50 Z " /><path fill="rgb(241,239,233)" stroke="rgb(241,239,233)" stroke-width="1" opacity="0.996078431372549" d="M 93.5 65 L 94 68 Q 91.3 66.9 92 69.5 L 91 70.5 L 91 80.5 L 89 89.5 L 89 111 Q 85.7 109.7 87 114.5 L 86 117 Q 83 115.8 84 119.5 L 82 119.5 Q 82.8 121.8 80.5 121 L 59 105.5 Q 66.9 86.4 81.5 74 L 93.5 65 Z " /><path fill="rgb(241,239,233)" stroke="rgb(241,239,233)" stroke-width="1" opacity="0.996078431372549" d="M 359.5 139 L 360.5 141 L 359.5 139 Z " /><path fill="rgb(241,239,233)" stroke="rgb(241,239,233)" stroke-width="1" opacity="0.996078431372549" d="M 203.5 241 L 205.5 244 L 203.5 241 Z " /><path fill="rgb(241,239,233)" stroke="rgb(241,239,233)" stroke-width="1" opacity="0.996078431372549" d="M 210.5 249 L 211.5 251 L 210.5 249 Z " /><path fill="rgb(241,239,233)" stroke="rgb(241,239,233)" stroke-width="1" opacity="0.996078431372549" d="M 89.5 262 L 90 263.5 L 87 270.5 L 86 291.5 L 91 312 L 97.5 312 L 108.5 323 Q 116.2 321.3 118 325.5 L 123.5 332 L 134.5 339 L 144.5 342 L 153.5 342 L 163.5 352 Q 172.7 350.3 175.5 355 L 180.5 353 L 182.5 353 L 188.5 352 L 194.5 349 L 202.5 342 L 205 342 L 207.5 338 Q 209.8 338.8 209 336.5 L 217.5 326 L 217 327.5 Q 211.8 338.8 202.5 346 L 191.5 353 L 178.5 358 L 168.5 360 L 150.5 360 Q 149.2 357.8 144.5 359 L 142.5 357 L 133.5 356 L 121.5 350 L 116.5 346 L 114.5 346 L 100 332.5 Q 95 329 94 323 Q 91 324.3 92 320.5 L 86 307.5 L 83 287.5 L 84 286.5 L 85 273.5 L 85 271.5 L 89.5 262 Z " /><path fill="rgb(241,239,233)" stroke="rgb(241,239,233)" stroke-width="1" opacity="0.996078431372549" d="M 225.5 288 L 226 291.5 L 225 291.5 L 225.5 288 Z " /><path fill="rgb(241,239,233)" stroke="rgb(241,239,233)" stroke-width="1" opacity="0.996078431372549" d="M 110.5 376 L 128.5 386 L 140.5 389 L 155.5 390 L 177.5 386 L 195.5 376 L 196 378.5 L 183.5 386 L 171.5 390 L 160.5 391 L 159.5 392 L 146.5 392 L 145.5 391 L 134.5 390 L 122.5 386 L 110 378.5 L 110.5 376 Z " /><path fill="rgb(241,239,233)" stroke="rgb(241,239,233)" stroke-width="1" opacity="0.996078431372549" d="M 415.5 397 L 415 398.5 Q 413.4 405.4 407.5 408 L 410 404.5 L 415.5 397 Z " /><path fill="rgb(241,239,233)" stroke="rgb(241,239,233)" stroke-width="1" opacity="0.996078431372549" d="M 306.5 402 L 311.5 408 L 316 411.5 L 314.5 411 L 308 406.5 L 306.5 402 Z " /><path fill="rgb(241,239,233)" stroke="rgb(241,239,233)" stroke-width="1" opacity="0.996078431372549" d="M 405.5 408 L 404.5 410 L 405.5 408 Z " /><path fill="rgb(241,239,233)" stroke="rgb(241,239,233)" stroke-width="1" opacity="0.996078431372549" d="M 412.5 408 L 409.5 412 L 412.5 408 Z " /><path fill="rgb(241,239,233)" stroke="rgb(241,239,233)" stroke-width="1" opacity="0.996078431372549" d="M 306.5 409 L 308.5 412 L 306.5 409 Z " /><path fill="rgb(150,231,108)" stroke="rgb(150,231,108)" stroke-width="1" opacity="0.996078431372549" d="M 203 50 L 227.5 50 Q 228.8 50.3 228 56.5 L 227 57.5 L 227 82.5 L 228 83.5 L 228 96.5 L 229 97.5 L 229 99.5 L 229 108.5 L 232 121.5 L 231 124.5 Q 234 128.5 233 136.5 L 235 140.5 L 234 143.5 L 237 149.5 L 237 151.5 L 237 155.5 L 241 164.5 L 241 170.5 L 246 178.5 L 245 181.5 L 248 187.5 L 247 190.5 L 251 196.5 L 251 198.5 L 255 204.5 Q 251.5 206 254 207.5 L 260 216.5 L 257 217 L 258 219.5 L 255 220.5 L 258 224.5 L 254 225 L 255 227.5 L 252.5 226 L 243.5 225 L 236.5 220 L 231.5 220 L 225 215.5 L 222 205.5 L 222 198.5 L 219 185.5 L 219 176.5 L 217 170.5 Q 218.4 161.6 216 156.5 Q 218.3 155.3 217 150.5 L 216 146.5 L 217 141.5 L 216 140.5 Q 217.3 132.3 215 127.5 L 216 122.5 L 215 120.5 L 216 115.5 Q 213.2 113.8 215 107.5 L 216 105.5 Q 213.2 104.8 214 100.5 L 215 98.5 L 214 97.5 L 214 84.5 L 212 78.5 L 213 75.5 L 203 56.5 L 203 50 Z " /><path fill="rgb(150,231,108)" stroke="rgb(150,231,108)" stroke-width="1" opacity="0.996078431372549" d="M 334 50 L 376.5 50 L 390.5 53 Q 421.5 62 439 84.5 Q 451 99 457 119.5 L 459 129.5 L 459 137.5 L 460 138.5 L 460 175 L 441.5 174 L 416.5 168 L 396.5 159 L 380.5 148 L 382.5 152 L 379 148.5 L 380 147.5 L 373.5 141 L 372 141.5 L 376.5 147 L 365 135.5 L 366 134.5 L 365.5 133 L 364.5 134 L 360 129.5 L 361 127.5 Q 359 129.2 357 125.5 L 358 123.5 L 355 122.5 L 355.5 121 L 353 119.5 L 354 117.5 L 351 116.5 L 353 116.5 L 351.5 114 L 350 114.5 L 350.5 113 L 349 112.5 L 349.5 111 L 347 109.5 L 344 102.5 L 344.5 101 L 343 100.5 L 344 98.5 L 342 98.5 L 341 95.5 L 342 93.5 L 340 93.5 L 341 91.5 L 339 91 L 340 86.5 L 339 86.5 L 338.5 88 L 338 85.5 L 338.5 84 Q 336.3 84.8 337 82.5 L 338 79.5 L 337 79.5 L 336.5 81 L 336 78.5 L 337 75.5 L 335 75.5 L 336 68.5 L 335 68.5 L 334.5 71 L 334 67.5 L 335 66.5 L 335 57.5 L 334 57.5 L 333.5 64 L 333 54.5 L 334 50 Z " /><path fill="rgb(150,231,108)" stroke="rgb(150,231,108)" stroke-width="1" opacity="0.996078431372549" d="M 233.5 60 L 234 68.5 L 233 68.5 L 233.5 60 Z " /><path fill="rgb(150,231,108)" stroke="rgb(150,231,108)" stroke-width="1" opacity="0.996078431372549" d="M 234.5 74 L 235 77.5 L 234 77.5 L 234.5 74 Z " /><path fill="rgb(150,231,108)" stroke="rgb(150,231,108)" stroke-width="1" opacity="0.996078431372549" d="M 235.5 82 L 236 84.5 L 235 84.5 L 235.5 82 Z " /><path fill="rgb(150,231,108)" stroke="rgb(150,231,108)" stroke-width="1" opacity="0.996078431372549" d="M 384.5 152 L 386.5 155 L 384.5 152 Z " /><path fill="rgb(150,231,108)" stroke="rgb(150,231,108)" stroke-width="1" opacity="0.996078431372549" d="M 388.5 155 L 389.5 157 L 388.5 155 Z " /><path fill="rgb(150,231,108)" stroke="rgb(150,231,108)" stroke-width="1" opacity="0.996078431372549" d="M 391.5 157 L 392.5 159 L 391.5 157 Z " /><path fill="rgb(150,231,108)" stroke="rgb(150,231,108)" stroke-width="1" opacity="0.996078431372549" d="M 394.5 159 L 395.5 161 L 394.5 159 Z " /><path fill="rgb(150,231,108)" stroke="rgb(150,231,108)" stroke-width="1" opacity="0.996078431372549" d="M 401.5 163 L 408 166.5 L 406.5 167 Q 401.9 165.8 401.5 163 Z " /><path fill="rgb(150,231,108)" stroke="rgb(150,231,108)" stroke-width="1" opacity="0.996078431372549" d="M 436.5 176 L 439 176.5 L 436.5 177 L 436.5 176 Z " /><path fill="rgb(150,231,108)" stroke="rgb(150,231,108)" stroke-width="1" opacity="0.996078431372549" d="M 442.5 177 L 445 177.5 L 442.5 178 L 442.5 177 Z " /><path fill="rgb(150,231,108)" stroke="rgb(150,231,108)" stroke-width="1" opacity="0.996078431372549" d="M 449.5 178 L 455 178.5 L 449.5 179 L 449.5 178 Z " /><path fill="rgb(150,231,108)" stroke="rgb(150,231,108)" stroke-width="1" opacity="0.996078431372549" d="M 290.5 201 L 291.5 203 L 290.5 201 Z " /><path fill="rgb(150,231,108)" stroke="rgb(150,231,108)" stroke-width="1" opacity="0.996078431372549" d="M 309.5 220 L 310.5 222 L 309.5 220 Z " /><path fill="rgb(150,231,108)" stroke="rgb(150,231,108)" stroke-width="1" opacity="0.996078431372549" d="M 445.5 278 L 448 278.5 L 445.5 279 L 445.5 278 Z " /><path fill="rgb(150,231,108)" stroke="rgb(150,231,108)" stroke-width="1" opacity="0.996078431372549" d="M 213.5 336 L 214.5 338 L 213 337.5 L 207.5 344 L 211 339.5 L 213.5 336 Z " /><path fill="rgb(150,231,108)" stroke="rgb(150,231,108)" stroke-width="1" opacity="0.996078431372549" d="M 205.5 345 L 206 346.5 L 203 348.5 L 205.5 345 Z " /><path fill="rgb(150,231,108)" stroke="rgb(150,231,108)" stroke-width="1" opacity="0.996078431372549" d="M 103.5 348 L 109 352.5 L 110 359.5 L 108 358.5 Q 103.7 354.5 103.5 348 Z " /><path fill="rgb(150,231,108)" stroke="rgb(150,231,108)" stroke-width="1" opacity="0.996078431372549" d="M 202.5 358 L 203 361.5 L 200 366.5 L 200 368.5 L 196.5 382 L 196 373.5 L 202.5 358 Z " /><path fill="rgb(0,0,0)" stroke="rgb(0,0,0)" stroke-width="1" opacity="0.0392156862745098" d="M 131.5 49 L 378.5 49 Q 415.3 55.7 436 78.5 L 450 97.5 L 465 127.5 L 471 145.5 L 473 156.5 L 473 164.5 L 474 165.5 L 474 394.5 L 469 421.5 L 460 442.5 Q 449.3 461.8 432.5 475 Q 419.4 485.4 402.5 492 L 389.5 496 L 378.5 498 L 370.5 498 L 369.5 499 L 140.5 499 L 113.5 494 L 92.5 485 Q 73.3 474.3 60 457.5 Q 49.6 444.4 43 427.5 L 39 414.5 L 37 403.5 L 37 395.5 L 36 394.5 L 36 165.5 L 37 164.5 L 37 156.5 L 39 145.5 L 45 127.5 L 63 92.5 L 78.5 74 Q 91.2 62.2 108.5 55 L 131.5 49 Z M 132 50 Q 101 55 83 72 Q 57 93 50 132 L 50 379 Q 55 409 72 428 Q 93 453 132 460 L 379 460 Q 410 455 429 437 Q 453 416 460 378 L 460 132 Q 455 101 438 83 Q 417 57 379 50 L 132 50 Z " /><path fill="rgb(226,212,207)" stroke="rgb(226,212,207)" stroke-width="1" opacity="0.996078431372549" d="M 329.5 51 L 330.5 53 Q 331.8 50.8 333 53.5 L 333 56 L 327.5 56 L 327 57.5 L 330 58.5 L 327 59 L 327.5 62 L 328.5 60 L 333 62.5 Q 336.4 94.1 350 115.5 Q 361.8 134.8 378.5 149 Q 394.3 162.7 415.5 171 L 440.5 178 L 460 179 L 460 186 L 453.5 186 L 452.5 185 L 443.5 185 L 428.5 182 L 401.5 172 Q 375 158.5 357 136.5 Q 341.8 118.7 333 94.5 L 327 70.5 L 326 53 Q 329.8 54.3 329.5 51 Z " /><path fill="rgb(226,212,207)" stroke="rgb(226,212,207)" stroke-width="1" opacity="0.996078431372549" d="M 235.5 52 L 238 53.5 L 238.5 52 Q 240.8 52.8 240 56.5 L 238.5 56 L 235 56.5 L 236 59 L 234 58.5 L 234 56.5 Q 233.3 52.8 235.5 52 Z " /><path fill="rgb(226,212,207)" stroke="rgb(226,212,207)" stroke-width="1" opacity="0.996078431372549" d="M 331.5 57 Q 333.8 56.3 333 58.5 L 331.5 57 Z " /><path fill="rgb(226,212,207)" stroke="rgb(226,212,207)" stroke-width="1" opacity="0.996078431372549" d="M 234.5 61 L 236.5 62 L 240 61.5 L 243 88.5 L 246 102.5 L 259 140.5 Q 279.7 185.3 314.5 216 Q 344.6 243.4 386.5 259 L 423.5 269 L 460 272 L 460 279 L 455.5 279 L 454.5 278 L 431.5 277 L 414.5 274 L 398.5 270 L 368.5 259 Q 326.7 239.8 297 208.5 Q 267.7 178.3 250 136.5 L 238 97.5 L 236 80.5 L 235 79.5 L 235 71.5 L 234 70.5 L 234.5 61 Z " /><path fill="rgb(226,212,207)" stroke="rgb(226,212,207)" stroke-width="1" opacity="0.996078431372549" d="M 89.5 67 L 88.5 69 L 89.5 67 Z " /><path fill="rgb(226,212,207)" stroke="rgb(226,212,207)" stroke-width="1" opacity="0.996078431372549" d="M 102.5 67 L 103 136 L 91 128.5 L 92.5 129 Q 95.1 129.8 94 126.5 L 97 116.5 L 97 89.5 Q 99.8 87.8 98 81.5 L 102.5 67 Z " /><path fill="rgb(226,212,207)" stroke="rgb(226,212,207)" stroke-width="1" opacity="0.996078431372549" d="M 85.5 70 L 84.5 72 L 85.5 70 Z " /><path fill="rgb(226,212,207)" stroke="rgb(226,212,207)" stroke-width="1" opacity="0.996078431372549" d="M 71.5 84 L 70.5 86 L 71.5 84 Z " /><path fill="rgb(226,212,207)" stroke="rgb(226,212,207)" stroke-width="1" opacity="0.996078431372549" d="M 58.5 105 L 59.5 107 L 58.5 105 Z " /><path fill="rgb(226,212,207)" stroke="rgb(226,212,207)" stroke-width="1" opacity="0.996078431372549" d="M 85.5 124 L 86.5 126 L 85.5 124 Z " /><path fill="rgb(226,212,207)" stroke="rgb(226,212,207)" stroke-width="1" opacity="0.996078431372549" d="M 88.5 126 L 89.5 128 L 88.5 126 Z " /><path fill="rgb(226,212,207)" stroke="rgb(226,212,207)" stroke-width="1" opacity="0.996078431372549" d="M 51.5 129 L 52 133.5 L 51 133.5 L 51.5 129 Z " /><path fill="rgb(226,212,207)" stroke="rgb(226,212,207)" stroke-width="1" opacity="0.996078431372549" d="M 50.5 138 L 51 151.5 L 50 151.5 L 50.5 138 Z " /><path fill="rgb(226,212,207)" stroke="rgb(226,212,207)" stroke-width="1" opacity="0.996078431372549" d="M 50 223 L 53.5 224 L 86 247.5 L 87 250.5 L 86 252.5 L 86 254.5 L 87 258.5 L 86 262.5 L 86.5 264 L 85 264.5 L 85 266.5 L 81 279.5 L 81 285 Q 77 283.6 79 290.5 L 77 299.5 L 77 308.5 L 78 309.5 L 78 317.5 L 80 322.5 L 80 324.5 L 82 334.5 L 87 344.5 L 87 347.5 L 91 353.5 L 95 368.5 L 98 373.5 L 98 378.5 L 100 385.5 L 100 429.5 L 100 431.5 L 100 447.5 L 101 448.5 L 99.5 448 Q 82.1 439.9 71 425.5 Q 61.7 414.3 56 399.5 L 52 385.5 L 51 372.5 L 50 371.5 L 50 223 Z " /><path fill="rgb(226,212,207)" stroke="rgb(226,212,207)" stroke-width="1" opacity="0.996078431372549" d="M 200.5 238 L 202.5 241 L 200.5 238 Z " /><path fill="rgb(226,212,207)" stroke="rgb(226,212,207)" stroke-width="1" opacity="0.996078431372549" d="M 104.5 239 L 103.5 241 L 104.5 239 Z " /><path fill="rgb(226,212,207)" stroke="rgb(226,212,207)" stroke-width="1" opacity="0.996078431372549" d="M 80.5 295 L 83 311.5 L 90 327.5 L 107.5 348 Q 119.7 357.8 136.5 363 Q 142.6 362.4 145.5 365 L 166.5 365 L 171.5 364 L 171.5 365 L 160.5 367 L 145.5 367 L 134.5 365 L 115.5 357 L 95 338.5 L 85 321.5 L 80 303.5 L 80.5 295 Z " /><path fill="rgb(226,212,207)" stroke="rgb(226,212,207)" stroke-width="1" opacity="0.996078431372549" d="M 225.5 300 L 226 303.5 L 225 303.5 L 225.5 300 Z " /><path fill="rgb(226,212,207)" stroke="rgb(226,212,207)" stroke-width="1" opacity="0.996078431372549" d="M 322.5 331 L 326 331.5 L 322.5 332 L 322.5 331 Z " /><path fill="rgb(226,212,207)" stroke="rgb(226,212,207)" stroke-width="1" opacity="0.996078431372549" d="M 391.5 331 L 395 331.5 L 391.5 332 L 391.5 331 Z " /><path fill="rgb(226,212,207)" stroke="rgb(226,212,207)" stroke-width="1" opacity="0.996078431372549" d="M 205.5 344 L 203.5 347 L 205.5 344 Z " /><path fill="rgb(226,212,207)" stroke="rgb(226,212,207)" stroke-width="1" opacity="0.996078431372549" d="M 198.5 350 L 197.5 352 L 198.5 350 Z " /><path fill="rgb(226,212,207)" stroke="rgb(226,212,207)" stroke-width="1" opacity="0.996078431372549" d="M 224.5 352 Q 230 350.5 231.5 353 L 233.5 353 L 237.5 354 L 251 363 L 253.5 367 L 260 371.5 L 261.5 374 Q 263.8 373.3 263 375.5 L 278 395.5 L 286 409.5 L 301.5 427 L 308.5 433 L 326.5 444 L 377 458.5 L 369.5 460 L 203 460 L 204 453.5 L 204 440.5 L 205 439.5 L 205 405.5 L 204 404.5 L 204 392.5 L 208 372.5 L 215 358.5 L 219.5 354 L 224.5 352 Z " /><path fill="rgb(226,212,207)" stroke="rgb(226,212,207)" stroke-width="1" opacity="0.996078431372549" d="M 285.5 352 L 286 356.5 L 285 356.5 L 285.5 352 Z " /><path fill="rgb(226,212,207)" stroke="rgb(226,212,207)" stroke-width="1" opacity="0.996078431372549" d="M 432.5 352 L 433 356.5 L 432 356.5 L 432.5 352 Z " /><path fill="rgb(226,212,207)" stroke="rgb(226,212,207)" stroke-width="1" opacity="0.996078431372549" d="M 191.5 355 L 190.5 357 L 191.5 355 Z " /><path fill="rgb(226,212,207)" stroke="rgb(226,212,207)" stroke-width="1" opacity="0.996078431372549" d="M 285.5 359 L 286 364.5 L 285 364.5 L 285.5 359 Z " /><path fill="rgb(226,212,207)" stroke="rgb(226,212,207)" stroke-width="1" opacity="0.996078431372549" d="M 432.5 359 L 433 364.5 L 432 364.5 L 432.5 359 Z " /><path fill="rgb(226,212,207)" stroke="rgb(226,212,207)" stroke-width="1" opacity="0.996078431372549" d="M 110.5 360 Q 126.9 375.6 159.5 375 L 179.5 370 Q 189.1 366.6 195.5 360 L 196 369.5 Q 184.4 379.4 166.5 383 L 139.5 383 Q 121.6 379.4 110 369.5 L 110.5 360 Z " /><path fill="rgb(226,212,207)" stroke="rgb(226,212,207)" stroke-width="1" opacity="0.996078431372549" d="M 349.5 365 L 348.5 367 L 349.5 365 Z " /><path fill="rgb(226,212,207)" stroke="rgb(226,212,207)" stroke-width="1" opacity="0.996078431372549" d="M 355.5 368 L 354.5 370 L 355.5 368 Z " /><path fill="rgb(226,212,207)" stroke="rgb(226,212,207)" stroke-width="1" opacity="0.996078431372549" d="M 388.5 368 L 386.5 371 L 388.5 368 Z " /><path fill="rgb(226,212,207)" stroke="rgb(226,212,207)" stroke-width="1" opacity="0.996078431372549" d="M 315.5 371 L 316 373 L 321 373.5 L 316.5 374 L 315.5 371 Z " /><path fill="rgb(226,212,207)" stroke="rgb(226,212,207)" stroke-width="1" opacity="0.996078431372549" d="M 404.5 375 L 405 377.5 L 404 377.5 L 404.5 375 Z " /><path fill="rgb(226,212,207)" stroke="rgb(226,212,207)" stroke-width="1" opacity="0.996078431372549" d="M 377.5 376 L 378 378.5 L 377 378.5 L 377.5 376 Z " /><path fill="rgb(226,212,207)" stroke="rgb(226,212,207)" stroke-width="1" opacity="0.996078431372549" d="M 397.5 376 L 398 378.5 L 397 378.5 L 397.5 376 Z " /><path fill="rgb(226,212,207)" stroke="rgb(226,212,207)" stroke-width="1" opacity="0.996078431372549" d="M 384.5 377 L 385 383.5 L 384 383.5 L 384.5 377 Z " /><path fill="rgb(226,212,207)" stroke="rgb(226,212,207)" stroke-width="1" opacity="0.996078431372549" d="M 336.5 380 L 334.5 383 L 336.5 380 Z " /><path fill="rgb(226,212,207)" stroke="rgb(226,212,207)" stroke-width="1" opacity="0.996078431372549" d="M 377.5 381 L 378 384.5 L 377 384.5 L 377.5 381 Z " /><path fill="rgb(226,212,207)" stroke="rgb(226,212,207)" stroke-width="1" opacity="0.996078431372549" d="M 397.5 382 L 398 384.5 L 397 384.5 L 397.5 382 Z " /><path fill="rgb(226,212,207)" stroke="rgb(226,212,207)" stroke-width="1" opacity="0.996078431372549" d="M 324.5 384 L 316.5 393 L 324.5 384 Z " /><path fill="rgb(226,212,207)" stroke="rgb(226,212,207)" stroke-width="1" opacity="0.996078431372549" d="M 331.5 385 L 325.5 392 L 331.5 385 Z " /><path fill="rgb(226,212,207)" stroke="rgb(226,212,207)" stroke-width="1" opacity="0.996078431372549" d="M 386.5 390 L 388.5 393 L 386.5 390 Z " /><path fill="rgb(226,212,207)" stroke="rgb(226,212,207)" stroke-width="1" opacity="0.996078431372549" d="M 364.5 391 L 363.5 393 L 364.5 391 Z " /><path fill="rgb(226,212,207)" stroke="rgb(226,212,207)" stroke-width="1" opacity="0.996078431372549" d="M 381.5 394 L 382.5 396 L 381.5 394 Z " /><path fill="rgb(226,212,207)" stroke="rgb(226,212,207)" stroke-width="1" opacity="0.996078431372549" d="M 400.5 394 L 399.5 396 L 400.5 394 Z " /><path fill="rgb(226,212,207)" stroke="rgb(226,212,207)" stroke-width="1" opacity="0.996078431372549" d="M 301.5 404 L 302.5 406 L 301.5 404 Z " /><path fill="rgb(226,212,207)" stroke="rgb(226,212,207)" stroke-width="1" opacity="0.996078431372549" d="M 416.5 404 L 415.5 406 L 416.5 404 Z " /><path fill="rgb(226,212,207)" stroke="rgb(226,212,207)" stroke-width="1" opacity="0.996078431372549" d="M 315.5 410 L 316.5 412 L 315.5 410 Z " /><path fill="rgb(0,0,0)" stroke="rgb(0,0,0)" stroke-width="1" opacity="0" d="M 0 0 L 512 0 L 512 512 L 0 512 L 0 0 Z M 132 49 L 109 55 Q 91 62 79 74 L 63 93 L 45 128 L 39 146 L 37 157 L 37 165 L 36 166 L 36 395 L 37 396 L 37 404 L 39 415 L 43 428 Q 50 444 60 458 Q 73 474 93 485 L 114 494 L 141 499 L 370 499 L 371 498 L 379 498 L 390 496 L 403 492 Q 419 485 433 475 Q 449 462 460 443 L 469 422 L 474 395 L 474 166 L 473 165 L 473 157 L 471 146 L 465 128 L 450 98 L 436 79 Q 415 56 379 49 L 132 49 Z " /><path fill="rgb(232,134,31)" stroke="rgb(232,134,31)" stroke-width="1" opacity="0.996078431372549" d="M 84.5 125 L 110 141 L 110 234.5 L 107.5 237 L 96 247.5 L 92.5 252 L 50 220.5 L 50.5 214 L 72.5 230 L 93.5 244 L 95.5 244 L 103 230.5 L 103.5 148 L 107.5 150 L 106.5 148 L 84 131.5 L 84.5 125 Z " /><path fill="rgb(232,134,31)" stroke="rgb(232,134,31)" stroke-width="1" opacity="0.996078431372549" d="M 196 203 L 352 312.5 Q 350.6 315.6 345.5 315 L 226.5 231 L 199.5 214 L 201.5 217 L 203 217.5 L 203 235.5 L 209 245.5 L 199.5 237 L 196 234.5 L 196 203 Z " /><path fill="rgb(232,134,31)" stroke="rgb(232,134,31)" stroke-width="1" opacity="0.996078431372549" d="M 226.5 288 L 228 291.5 L 229 308.5 L 228 309.5 L 228 318.5 L 225 335.5 Q 248.2 354.3 274.5 370 L 278.5 355 L 279 368.5 L 283 384.5 L 279.5 382 L 213 335.5 L 221 322.5 L 225 310.5 L 226.5 288 Z " /><path fill="rgb(232,134,31)" stroke="rgb(232,134,31)" stroke-width="1" opacity="0.996078431372549" d="M 358.5 323 Q 367.3 328.7 379.5 331 L 397.5 332 Q 399.3 329.3 405.5 331 L 419 327 L 425 345 L 292.5 345 L 292 343.5 L 298 327 L 311.5 331 L 330.5 332 L 345.5 329 L 358.5 323 Z " /><path fill="rgb(232,134,31)" stroke="rgb(232,134,31)" stroke-width="1" opacity="0.996078431372549" d="M 438.5 372 L 458 386.5 L 457 392 L 454.5 392 L 436 378.5 L 438.5 372 Z " /><path fill="rgb(232,134,31)" stroke="rgb(232,134,31)" stroke-width="1" opacity="0.996078431372549" d="M 421.5 409 L 422 410.5 L 416 424.5 L 409.5 433 L 393.5 445 L 386 448.5 L 396 455.5 L 386.5 458 L 360 438.5 Q 378.9 438.4 391.5 432 Q 409.7 423.7 421.5 409 Z " /><path fill="rgb(232,134,31)" stroke="rgb(232,134,31)" stroke-width="1" opacity="0.996078431372549" d="M 443.5 419 L 442.5 421 L 443.5 419 Z " /><path fill="rgb(232,134,31)" stroke="rgb(232,134,31)" stroke-width="1" opacity="0.996078431372549" d="M 440.5 423 L 439.5 425 L 440.5 423 Z " /><path fill="rgb(232,134,31)" stroke="rgb(232,134,31)" stroke-width="1" opacity="0.996078431372549" d="M 436.5 428 L 428.5 437 L 436.5 428 Z " /><path fill="rgb(232,134,31)" stroke="rgb(232,134,31)" stroke-width="1" opacity="0.996078431372549" d="M 424.5 439 L 423.5 441 L 424.5 439 Z " /><path fill="rgb(232,134,31)" stroke="rgb(232,134,31)" stroke-width="1" opacity="0.996078431372549" d="M 420.5 442 L 419.5 444 L 420.5 442 Z " /><path fill="rgb(232,134,31)" stroke="rgb(232,134,31)" stroke-width="1" opacity="0.996078431372549" d="M 417.5 444 L 416.5 446 L 417.5 444 Z " /><path fill="rgb(232,134,31)" stroke="rgb(232,134,31)" stroke-width="1" opacity="0.996078431372549" d="M 412.5 447 L 411.5 449 L 409.5 450 L 410.5 448 L 412.5 447 Z " /><path fill="rgb(232,134,31)" stroke="rgb(232,134,31)" stroke-width="1" opacity="0.996078431372549" d="M 404.5 451 L 406 451.5 L 402.5 453 L 402.5 452 L 404.5 451 Z " /><path fill="rgb(232,134,31)" stroke="rgb(232,134,31)" stroke-width="1" opacity="0.996078431372549" d="M 399.5 453 L 401 453.5 L 397.5 455 L 397.5 454 L 399.5 453 Z " /><path fill="rgb(102,178,72)" stroke="rgb(102,178,72)" stroke-width="1" opacity="0.9882352941176471" d="M 196.5 53 L 203 64.5 L 203 121.5 L 204 122.5 L 204 136.5 L 205 137.5 L 206 178.5 L 208 188.5 L 208 201.5 L 210 211 L 196 203 L 196.5 53 Z " /><path fill="rgb(102,178,72)" stroke="rgb(102,178,72)" stroke-width="1" opacity="0.9882352941176471" d="M 422.5 68 L 423.5 70 L 422.5 68 Z " /><path fill="rgb(102,178,72)" stroke="rgb(102,178,72)" stroke-width="1" opacity="0.9882352941176471" d="M 427.5 72 L 430.5 76 L 427.5 72 Z " /><path fill="rgb(102,178,72)" stroke="rgb(102,178,72)" stroke-width="1" opacity="0.9882352941176471" d="M 434.5 79 L 437.5 83 L 434.5 79 Z " /><path fill="rgb(102,178,72)" stroke="rgb(102,178,72)" stroke-width="1" opacity="0.9882352941176471" d="M 72.5 82 L 71.5 84 L 72.5 82 Z " /><path fill="rgb(102,178,72)" stroke="rgb(102,178,72)" stroke-width="1" opacity="0.9882352941176471" d="M 440.5 86 L 441.5 88 L 440.5 86 Z " /><path fill="rgb(102,178,72)" stroke="rgb(102,178,72)" stroke-width="1" opacity="0.9882352941176471" d="M 239.5 106 L 240 108.5 L 239 108.5 L 239.5 106 Z " /><path fill="rgb(102,178,72)" stroke="rgb(102,178,72)" stroke-width="1" opacity="0.9882352941176471" d="M 240.5 110 L 250 138.5 L 266 169.5 Q 285.4 200.6 312.5 224 Q 341.9 249.6 381.5 265 L 403.5 272 L 421.5 276 L 433.5 277 L 434.5 278 L 443.5 278 L 444.5 279 L 460 279 L 460 296 L 437.5 296 L 436.5 295 L 415.5 293 L 398 288.5 L 398.5 287 L 392.5 286 L 390.5 284 L 387.5 284 L 366.5 276 L 331 254.5 L 326.5 249 L 323 246.5 Q 323.8 244.3 321.5 245 L 300 225.5 L 280 201.5 L 267 181.5 L 253 153.5 L 242 122.5 L 242 120.5 L 240.5 110 Z " /><path fill="rgb(102,178,72)" stroke="rgb(102,178,72)" stroke-width="1" opacity="0.9882352941176471" d="M 459.5 131 L 460 133.5 L 459 133.5 L 459.5 131 Z " /><path fill="rgb(102,178,72)" stroke="rgb(102,178,72)" stroke-width="1" opacity="0.9882352941176471" d="M 383.5 319 L 386 319.5 L 383.5 320 L 383.5 319 Z " /><path fill="rgb(102,178,72)" stroke="rgb(102,178,72)" stroke-width="1" opacity="0.9882352941176471" d="M 437.5 342 L 438 344.5 L 437 344.5 L 437.5 342 Z " /><path fill="rgb(102,178,72)" stroke="rgb(102,178,72)" stroke-width="1" opacity="0.9882352941176471" d="M 202.5 348 L 203 351.5 L 196.5 363 L 196 353.5 L 202.5 348 Z " /><path fill="rgb(102,178,72)" stroke="rgb(102,178,72)" stroke-width="1" opacity="0.9882352941176471" d="M 438.5 348 L 439 352.5 L 438 352.5 L 438.5 348 Z " /><path fill="rgb(102,178,72)" stroke="rgb(102,178,72)" stroke-width="1" opacity="0.9882352941176471" d="M 279.5 352 L 280 354.5 L 279 354.5 L 279.5 352 Z " /><path fill="rgb(102,178,72)" stroke="rgb(102,178,72)" stroke-width="1" opacity="0.9882352941176471" d="M 439.5 357 L 442 364.5 L 442 371.5 L 444 375 Q 439.7 375.8 438.5 372 L 437 372.5 L 438 371.5 L 439.5 357 Z " /><path fill="rgb(102,178,72)" stroke="rgb(102,178,72)" stroke-width="1" opacity="0.9882352941176471" d="M 459.5 372 L 460 377.5 L 459 377.5 L 459.5 372 Z " /><path fill="rgb(102,178,72)" stroke="rgb(102,178,72)" stroke-width="1" opacity="0.9882352941176471" d="M 458.5 381 L 459 383.5 L 458 383.5 L 458.5 381 Z " /><path fill="rgb(102,178,72)" stroke="rgb(102,178,72)" stroke-width="1" opacity="0.9882352941176471" d="M 426.5 401 L 425.5 403 L 426.5 401 Z " /><path fill="rgb(102,178,72)" stroke="rgb(102,178,72)" stroke-width="1" opacity="0.9882352941176471" d="M 418.5 411 L 416.5 414 L 418.5 411 Z " /><path fill="rgb(102,178,72)" stroke="rgb(102,178,72)" stroke-width="1" opacity="0.9882352941176471" d="M 413.5 416 L 411.5 419 L 413.5 416 Z " /><path fill="rgb(102,178,72)" stroke="rgb(102,178,72)" stroke-width="1" opacity="0.9882352941176471" d="M 406.5 422 L 405.5 424 L 406.5 422 Z " /><path fill="rgb(102,178,72)" stroke="rgb(102,178,72)" stroke-width="1" opacity="0.9882352941176471" d="M 403.5 424 L 402.5 426 L 403.5 424 Z " /><path fill="rgb(102,178,72)" stroke="rgb(102,178,72)" stroke-width="1" opacity="0.9882352941176471" d="M 400.5 426 L 399.5 428 L 400.5 426 Z " /><path fill="rgb(236,233,227)" stroke="rgb(236,233,227)" stroke-width="1" opacity="0.996078431372549" d="M 240.5 55 L 241 62.5 L 240 62.5 L 240.5 55 Z " /><path fill="rgb(236,233,227)" stroke="rgb(236,233,227)" stroke-width="1" opacity="0.996078431372549" d="M 102.5 60 L 103 66.5 L 101 69.5 L 98 81.5 Q 99.8 87.8 97 89.5 L 97 116.5 L 94 129 L 81 121.5 L 82.5 119 L 84 119.5 L 84 117 Q 86.7 118.1 86 115.5 L 87 111 L 89 110.5 L 89 89.5 L 91 80.5 L 91 70.5 L 92 68 L 94 68 L 94 64 L 95.5 64 L 102.5 60 Z " /><path fill="rgb(236,233,227)" stroke="rgb(236,233,227)" stroke-width="1" opacity="0.996078431372549" d="M 326.5 62 L 327 64.5 L 326 64.5 L 326.5 62 Z " /><path fill="rgb(236,233,227)" stroke="rgb(236,233,227)" stroke-width="1" opacity="0.996078431372549" d="M 241.5 71 L 242 74.5 L 241 74.5 L 241.5 71 Z " /><path fill="rgb(236,233,227)" stroke="rgb(236,233,227)" stroke-width="1" opacity="0.996078431372549" d="M 83.5 72 L 82.5 74 L 83.5 72 Z " /><path fill="rgb(236,233,227)" stroke="rgb(236,233,227)" stroke-width="1" opacity="0.996078431372549" d="M 73.5 82 L 72.5 84 L 73.5 82 Z " /><path fill="rgb(236,233,227)" stroke="rgb(236,233,227)" stroke-width="1" opacity="0.996078431372549" d="M 64.5 109 L 65.5 111 L 64.5 109 Z " /><path fill="rgb(236,233,227)" stroke="rgb(236,233,227)" stroke-width="1" opacity="0.996078431372549" d="M 74.5 116 L 75.5 118 L 74.5 116 Z " /><path fill="rgb(236,233,227)" stroke="rgb(236,233,227)" stroke-width="1" opacity="0.996078431372549" d="M 355.5 134 L 356.5 136 L 355.5 134 Z " /><path fill="rgb(236,233,227)" stroke="rgb(236,233,227)" stroke-width="1" opacity="0.996078431372549" d="M 361.5 141 L 370.5 151 L 361.5 141 Z " /><path fill="rgb(236,233,227)" stroke="rgb(236,233,227)" stroke-width="1" opacity="0.996078431372549" d="M 267.5 156 L 268.5 158 L 267.5 156 Z " /><path fill="rgb(236,233,227)" stroke="rgb(236,233,227)" stroke-width="1" opacity="0.996078431372549" d="M 271.5 163 L 272.5 165 L 271.5 163 Z " /><path fill="rgb(236,233,227)" stroke="rgb(236,233,227)" stroke-width="1" opacity="0.996078431372549" d="M 273.5 166 L 276 169.5 L 274 168.5 L 273.5 166 Z " /><path fill="rgb(236,233,227)" stroke="rgb(236,233,227)" stroke-width="1" opacity="0.996078431372549" d="M 276.5 171 L 277.5 173 L 276.5 171 Z " /><path fill="rgb(236,233,227)" stroke="rgb(236,233,227)" stroke-width="1" opacity="0.996078431372549" d="M 278.5 174 L 280.5 176 Q 285.8 174.8 287 177.5 L 288.5 180 L 292 181.5 L 296 192 L 304.5 192 L 305.5 193 L 307 192.5 L 307 194.5 L 308.5 198 Q 313 197 314 199.5 L 318 210 Q 328.2 208.6 334 212.5 L 337.5 219 Q 340.1 218.2 339 221.5 L 340.5 223 L 348.5 223 L 349.5 224 L 351 223.5 Q 350.1 226.9 355.5 225 L 363.5 235 L 373.5 235 L 375 236.5 L 375 239 L 381.5 239 L 382 240.5 L 384 240.5 L 388.5 247 L 390.5 247 L 394.5 251 L 406.5 251 Q 407.8 254.3 413.5 253 L 418 256.5 L 418.5 258 L 420 257.5 L 421.5 260 L 427 263.5 Q 426.3 265.8 428.5 265 L 429.5 266 L 443.5 266 L 456 268 Q 454.9 270.7 457.5 270 L 460 271.5 L 450.5 272 L 449.5 271 L 438.5 271 L 437.5 270 L 423.5 269 L 409.5 266 Q 387.9 260.6 369.5 252 Q 325.9 231.6 296 197.5 L 278.5 174 Z " /><path fill="rgb(236,233,227)" stroke="rgb(236,233,227)" stroke-width="1" opacity="0.996078431372549" d="M 449.5 185 L 453 185.5 L 449.5 186 L 449.5 185 Z " /><path fill="rgb(236,233,227)" stroke="rgb(236,233,227)" stroke-width="1" opacity="0.996078431372549" d="M 100.5 243 L 99.5 245 L 100.5 243 Z " /><path fill="rgb(236,233,227)" stroke="rgb(236,233,227)" stroke-width="1" opacity="0.996078431372549" d="M 206.5 244 L 207.5 246 L 206.5 244 Z " /><path fill="rgb(236,233,227)" stroke="rgb(236,233,227)" stroke-width="1" opacity="0.996078431372549" d="M 122.5 260 L 120.5 263 L 122.5 260 Z " /><path fill="rgb(236,233,227)" stroke="rgb(236,233,227)" stroke-width="1" opacity="0.996078431372549" d="M 184.5 261 L 185.5 263 L 184.5 261 Z " /><path fill="rgb(236,233,227)" stroke="rgb(236,233,227)" stroke-width="1" opacity="0.996078431372549" d="M 84.5 273 L 85 276.5 L 84 277.5 Q 85.5 285 83 288.5 L 84 289.5 L 84 298.5 Q 86.8 301.2 86 307.5 L 89 312.5 L 92 323 Q 94.7 321.9 94 324.5 L 101.5 334 L 114.5 346 L 133.5 356 L 142.5 357 L 144.5 359 Q 149.2 357.8 150.5 360 L 168.5 360 L 178.5 358 L 181.5 356 L 185.5 356 L 191.5 353 L 202.5 346 L 209.5 339 L 199.5 350 Q 189.7 358.2 176.5 363 L 166.5 365 L 145.5 365 Q 115.5 359 99 339.5 Q 89.2 329.3 84 314.5 L 83 307.5 L 81 303.5 L 80 285.5 Q 82.8 284.8 82 280.5 L 81.5 279 Q 84.1 279.8 83 276.5 L 84.5 273 Z " /><path fill="rgb(236,233,227)" stroke="rgb(236,233,227)" stroke-width="1" opacity="0.996078431372549" d="M 120.5 325 L 121.5 327 L 120.5 325 Z " /><path fill="rgb(236,233,227)" stroke="rgb(236,233,227)" stroke-width="1" opacity="0.996078431372549" d="M 185.5 325 L 184.5 327 L 185.5 325 Z " /><path fill="rgb(236,233,227)" stroke="rgb(236,233,227)" stroke-width="1" opacity="0.996078431372549" d="M 212.5 335 L 211.5 337 L 212.5 335 Z " /><path fill="rgb(236,233,227)" stroke="rgb(236,233,227)" stroke-width="1" opacity="0.996078431372549" d="M 382.5 365 L 381.5 367 L 382.5 365 Z " /><path fill="rgb(236,233,227)" stroke="rgb(236,233,227)" stroke-width="1" opacity="0.996078431372549" d="M 399.5 365 L 400.5 367 L 399.5 365 Z " /><path fill="rgb(236,233,227)" stroke="rgb(236,233,227)" stroke-width="1" opacity="0.996078431372549" d="M 110.5 370 Q 122.1 379.4 139.5 383 L 166.5 383 Q 183.9 379.4 195.5 370 L 196 375.5 L 177.5 386 L 165.5 389 L 150.5 390 L 128.5 386 L 110 375.5 L 110.5 370 Z " /><path fill="rgb(236,233,227)" stroke="rgb(236,233,227)" stroke-width="1" opacity="0.996078431372549" d="M 354.5 375 L 355.5 377 L 354.5 375 Z " /><path fill="rgb(236,233,227)" stroke="rgb(236,233,227)" stroke-width="1" opacity="0.996078431372549" d="M 370.5 375 L 368.5 378 L 370.5 375 Z " /><path fill="rgb(236,233,227)" stroke="rgb(236,233,227)" stroke-width="1" opacity="0.996078431372549" d="M 366.5 378 L 365.5 380 L 366.5 378 Z " /><path fill="rgb(236,233,227)" stroke="rgb(236,233,227)" stroke-width="1" opacity="0.996078431372549" d="M 404.5 378 L 405 382.5 L 404 382.5 L 404.5 378 Z " /><path fill="rgb(236,233,227)" stroke="rgb(236,233,227)" stroke-width="1" opacity="0.996078431372549" d="M 333.5 383 L 332.5 385 L 333.5 383 Z " /><path fill="rgb(236,233,227)" stroke="rgb(236,233,227)" stroke-width="1" opacity="0.996078431372549" d="M 325.5 392 L 339.5 392 L 341 393.5 L 340.5 398 L 340 393 L 325.5 393 L 325.5 392 Z " /><path fill="rgb(236,233,227)" stroke="rgb(236,233,227)" stroke-width="1" opacity="0.996078431372549" d="M 371.5 393 L 369.5 396 L 371.5 393 Z " /><path fill="rgb(236,233,227)" stroke="rgb(236,233,227)" stroke-width="1" opacity="0.996078431372549" d="M 308.5 404 L 311.5 408 L 308.5 404 Z " /><path fill="rgb(236,233,227)" stroke="rgb(236,233,227)" stroke-width="1" opacity="0.996078431372549" d="M 409.5 404 L 406.5 408 L 409.5 404 Z " /><path fill="rgb(236,233,227)" stroke="rgb(236,233,227)" stroke-width="1" opacity="0.996078431372549" d="M 303.5 406 L 305.5 409 L 303.5 406 Z " /><path fill="rgb(236,233,227)" stroke="rgb(236,233,227)" stroke-width="1" opacity="0.996078431372549" d="M 414.5 406 L 413.5 408 L 414.5 406 Z " /><path fill="rgb(236,233,227)" stroke="rgb(236,233,227)" stroke-width="1" opacity="0.996078431372549" d="M 309.5 412 L 311.5 415 L 309.5 412 Z " /><path fill="rgb(236,233,227)" stroke="rgb(236,233,227)" stroke-width="1" opacity="0.996078431372549" d="M 408.5 412 L 406.5 415 L 408.5 412 Z " /><path fill="rgb(253,253,253)" stroke="rgb(253,253,253)" stroke-width="1" opacity="0.996078431372549" d="M 179 50 L 195.5 50 L 196 50.5 L 196 231.5 L 194.5 231 L 179 224 L 179 50 Z " /><path fill="rgb(253,253,253)" stroke="rgb(253,253,253)" stroke-width="1" opacity="0.996078431372549" d="M 124.5 52 L 127 52.5 L 127 224 Q 117.3 225.5 110.5 232 L 110 57.5 L 124.5 52 Z " /><path fill="rgb(253,253,253)" stroke="rgb(253,253,253)" stroke-width="1" opacity="0.996078431372549" d="M 435.5 184 L 439 184.5 L 435.5 185 L 435.5 184 Z " /><path fill="rgb(253,253,253)" stroke="rgb(253,253,253)" stroke-width="1" opacity="0.996078431372549" d="M 442.5 185 L 446 185.5 L 442.5 186 L 442.5 185 Z " /><path fill="rgb(253,253,253)" stroke="rgb(253,253,253)" stroke-width="1" opacity="0.996078431372549" d="M 451.5 186 L 460 186.5 L 451.5 187 L 451.5 186 Z " /><path fill="rgb(253,253,253)" stroke="rgb(253,253,253)" stroke-width="1" opacity="0.996078431372549" d="M 149.5 221 L 165.5 222 L 183.5 227 L 192.5 232 L 210 248.5 Q 219.5 260.1 224 276.5 L 225 298.5 L 221 314.5 L 215 325.5 L 209.5 331 Q 207.3 330.3 208 332.5 L 201 337.5 Q 201.8 339.8 199.5 339 L 188.5 328 L 186.5 328 Q 179.1 335.6 168.5 340 L 160.5 342 L 146.5 342 Q 126.7 338.3 117 324.5 L 110 310.5 L 111 310.5 Q 114.7 322.3 123.5 329 Q 130.3 335.2 140.5 338 Q 148.8 340.7 161.5 339 Q 178.8 335.3 188 323.5 Q 194.2 316.7 197 306.5 Q 199.7 298.2 198 285.5 Q 194.3 268.2 182.5 259 Q 175.7 252.8 165.5 250 Q 157.2 247.3 144.5 249 Q 127.2 252.7 118 264.5 L 111 277 L 104.5 277 L 93 265.5 L 98 253.5 L 109 240.5 L 107.5 240 Q 93.1 251.1 85.5 269 L 85 267.5 Q 92.7 248.7 107.5 237 L 122.5 227 L 140.5 222 L 148.5 222 L 149.5 221 Z " /><path fill="rgb(253,253,253)" stroke="rgb(253,253,253)" stroke-width="1" opacity="0.996078431372549" d="M 110 385 L 124.5 392 L 134.5 395 L 147.5 396 L 148.5 397 L 157.5 397 L 178.5 393 L 196 385 L 196 460 L 140.5 460 L 139.5 459 L 124.5 458 L 110 452.5 L 110 385 Z " /><path fill="rgb(252,221,56)" stroke="rgb(252,221,56)" stroke-width="1" opacity="0.996078431372549" d="M 58.5 106 L 86 125.5 L 84 125.5 Q 82.5 131.5 85.5 133 L 109 150.5 L 107.5 150 L 103.5 148 L 103 230.5 L 95.5 244 L 93.5 244 L 72.5 230 L 50 213.5 L 50 152.5 L 51 151.5 L 51 134.5 L 52 133.5 L 52 126.5 L 54 116.5 L 58.5 106 Z " /><path fill="rgb(252,221,56)" stroke="rgb(252,221,56)" stroke-width="1" opacity="0.996078431372549" d="M 87.5 126 L 88.5 128 L 87.5 126 Z " /><path fill="rgb(252,221,56)" stroke="rgb(252,221,56)" stroke-width="1" opacity="0.996078431372549" d="M 90.5 128 L 91.5 130 L 90.5 128 Z " /><path fill="rgb(252,221,56)" stroke="rgb(252,221,56)" stroke-width="1" opacity="0.996078431372549" d="M 93.5 130 L 94.5 132 L 93.5 130 Z " /><path fill="rgb(252,221,56)" stroke="rgb(252,221,56)" stroke-width="1" opacity="0.996078431372549" d="M 96.5 132 L 97.5 134 L 96.5 132 Z " /><path fill="rgb(252,221,56)" stroke="rgb(252,221,56)" stroke-width="1" opacity="0.996078431372549" d="M 197.5 212 L 226.5 231 L 346 315.5 L 336.5 319 L 320.5 320 L 306.5 317 L 293.5 311 Q 285.4 322.9 281 338.5 L 279 354.5 L 277 357.5 L 274.5 370 Q 248.2 354.3 225 335.5 L 228 318.5 L 229 303.5 L 228 302.5 L 228 291.5 L 225 284.5 L 223 271.5 Q 218 256.5 208 246.5 L 208 244.5 L 203 235.5 L 203 217 L 201.5 217 L 197.5 212 Z " /><path fill="rgb(252,221,56)" stroke="rgb(252,221,56)" stroke-width="1" opacity="0.996078431372549" d="M 50.5 221 L 51.5 223 L 50.5 221 Z " /><path fill="rgb(252,221,56)" stroke="rgb(252,221,56)" stroke-width="1" opacity="0.996078431372549" d="M 224.5 222 L 225.5 224 L 224.5 222 Z " /><path fill="rgb(252,221,56)" stroke="rgb(252,221,56)" stroke-width="1" opacity="0.996078431372549" d="M 53.5 223 L 55.5 226 L 53.5 223 Z " /><path fill="rgb(252,221,56)" stroke="rgb(252,221,56)" stroke-width="1" opacity="0.996078431372549" d="M 227.5 224 L 228.5 226 L 227.5 224 Z " /><path fill="rgb(252,221,56)" stroke="rgb(252,221,56)" stroke-width="1" opacity="0.996078431372549" d="M 57.5 226 L 58.5 228 L 57.5 226 Z " /><path fill="rgb(252,221,56)" stroke="rgb(252,221,56)" stroke-width="1" opacity="0.996078431372549" d="M 230.5 226 L 232.5 229 L 230.5 226 Z " /><path fill="rgb(252,221,56)" stroke="rgb(252,221,56)" stroke-width="1" opacity="0.996078431372549" d="M 60.5 228 L 61.5 230 L 60.5 228 Z " /><path fill="rgb(252,221,56)" stroke="rgb(252,221,56)" stroke-width="1" opacity="0.996078431372549" d="M 234.5 229 L 235.5 231 L 234.5 229 Z " /><path fill="rgb(252,221,56)" stroke="rgb(252,221,56)" stroke-width="1" opacity="0.996078431372549" d="M 63.5 230 L 65.5 233 L 63.5 230 Z " /><path fill="rgb(252,221,56)" stroke="rgb(252,221,56)" stroke-width="1" opacity="0.996078431372549" d="M 237.5 231 L 238.5 233 L 237.5 231 Z " /><path fill="rgb(252,221,56)" stroke="rgb(252,221,56)" stroke-width="1" opacity="0.996078431372549" d="M 67.5 233 L 68.5 235 L 67.5 233 Z " /><path fill="rgb(252,221,56)" stroke="rgb(252,221,56)" stroke-width="1" opacity="0.996078431372549" d="M 240.5 233 L 241.5 235 L 240.5 233 Z " /><path fill="rgb(252,221,56)" stroke="rgb(252,221,56)" stroke-width="1" opacity="0.996078431372549" d="M 70.5 235 L 71.5 237 L 70.5 235 Z " /><path fill="rgb(252,221,56)" stroke="rgb(252,221,56)" stroke-width="1" opacity="0.996078431372549" d="M 244.5 236 L 245.5 238 L 244.5 236 Z " /><path fill="rgb(252,221,56)" stroke="rgb(252,221,56)" stroke-width="1" opacity="0.996078431372549" d="M 73.5 237 L 75.5 240 L 73.5 237 Z " /><path fill="rgb(252,221,56)" stroke="rgb(252,221,56)" stroke-width="1" opacity="0.996078431372549" d="M 247.5 238 L 248.5 240 L 247.5 238 Z " /><path fill="rgb(252,221,56)" stroke="rgb(252,221,56)" stroke-width="1" opacity="0.996078431372549" d="M 77.5 240 L 78.5 242 L 77.5 240 Z " /><path fill="rgb(252,221,56)" stroke="rgb(252,221,56)" stroke-width="1" opacity="0.996078431372549" d="M 250.5 240 L 251.5 242 L 250.5 240 Z " /><path fill="rgb(252,221,56)" stroke="rgb(252,221,56)" stroke-width="1" opacity="0.996078431372549" d="M 80.5 242 L 81.5 244 L 80.5 242 Z " /><path fill="rgb(252,221,56)" stroke="rgb(252,221,56)" stroke-width="1" opacity="0.996078431372549" d="M 254.5 243 L 255.5 245 L 254.5 243 Z " /><path fill="rgb(252,221,56)" stroke="rgb(252,221,56)" stroke-width="1" opacity="0.996078431372549" d="M 84.5 245 L 85.5 247 L 84.5 245 Z " /><path fill="rgb(252,221,56)" stroke="rgb(252,221,56)" stroke-width="1" opacity="0.996078431372549" d="M 257.5 245 L 258.5 247 L 257.5 245 Z " /><path fill="rgb(252,221,56)" stroke="rgb(252,221,56)" stroke-width="1" opacity="0.996078431372549" d="M 97.5 246 L 96.5 248 L 97.5 246 Z " /><path fill="rgb(252,221,56)" stroke="rgb(252,221,56)" stroke-width="1" opacity="0.996078431372549" d="M 260.5 247 L 261.5 249 L 260.5 247 Z " /><path fill="rgb(252,221,56)" stroke="rgb(252,221,56)" stroke-width="1" opacity="0.996078431372549" d="M 270.5 254 L 271.5 256 L 270.5 254 Z " /><path fill="rgb(252,221,56)" stroke="rgb(252,221,56)" stroke-width="1" opacity="0.996078431372549" d="M 274.5 257 L 275.5 259 L 274.5 257 Z " /><path fill="rgb(252,221,56)" stroke="rgb(252,221,56)" stroke-width="1" opacity="0.996078431372549" d="M 231.5 348 L 232.5 350 L 231.5 348 Z " /><path fill="rgb(252,221,56)" stroke="rgb(252,221,56)" stroke-width="1" opacity="0.996078431372549" d="M 241.5 355 L 242.5 357 L 241.5 355 Z " /><path fill="rgb(252,221,56)" stroke="rgb(252,221,56)" stroke-width="1" opacity="0.996078431372549" d="M 251.5 362 L 252.5 364 L 251.5 362 Z " /><path fill="rgb(252,221,56)" stroke="rgb(252,221,56)" stroke-width="1" opacity="0.996078431372549" d="M 436.5 379 L 456 392 Q 447.7 421.9 425.5 439 Q 413 450 394.5 455 L 386 448.5 Q 401.2 441.7 412 430.5 L 412 428.5 L 419 418.5 L 422 407.5 L 432 392.5 L 436.5 379 Z " /><path fill="rgb(125,212,86)" stroke="rgb(125,212,86)" stroke-width="1" opacity="0.996078431372549" d="M 196 50 L 203 50 L 203 56.5 Q 209.8 65.2 213 77.5 L 212 80.5 L 214 84.5 L 214 97.5 L 215 99.5 L 214 103.5 L 216 106.5 Q 213.2 108.3 215 114.5 L 216 119.5 L 215 121.5 L 216 126.5 L 215 129.5 L 216 130.5 L 217 145.5 L 216 149.5 Q 218.3 150.7 217 155.5 L 216 158.5 L 217 159.5 L 217 170.5 L 219 176.5 L 219 185.5 L 222 198.5 L 222 205.5 L 226.5 217 L 231.5 220 L 236.5 220 L 243.5 225 Q 250.9 223.6 253.5 227 L 254 225 L 258 224.5 L 255 220.5 L 258 219.5 L 257 217 L 260 216.5 L 253 206.5 Q 257 204.5 253 202.5 L 250 197.5 L 250 195.5 L 247 188.5 L 247 186.5 L 245 179.5 Q 247.5 178 244 176.5 L 241 170.5 L 241 164.5 L 236 150.5 L 236 148.5 L 234 141.5 L 234 139.5 L 231 122.5 L 232 119.5 L 230 115.5 L 229 99.5 L 228 98.5 L 228 96.5 L 227 57.5 L 228 56.5 L 228 50 L 233 50.5 L 233 68.5 L 234 69.5 L 236 90.5 L 239 101.5 L 239 103.5 L 240 105.5 L 239 109 L 241 109.5 L 240 113.5 L 243 121.5 L 243 123.5 L 246 135.5 L 253 153.5 L 271 188.5 Q 288.8 215.2 311.5 237 L 323 245 L 325.5 249 L 331 253.5 L 332.5 256 L 366.5 276 L 399 287.5 L 398.5 289 L 428.5 295 L 460 296 L 460 371.5 L 457.5 386 L 443 375.5 L 444 373.5 L 442 371.5 L 442 364.5 L 439 356.5 L 439 348.5 L 436 334.5 Q 431.8 321.7 424.5 312 L 405.5 319 L 386.5 320 Q 369.8 317.2 358.5 309 L 352.5 312 L 209 211.5 L 210 209.5 L 208 201.5 L 208 188.5 L 206 178.5 L 205 137.5 L 204 136.5 L 204 122.5 L 203 121.5 L 203 64.5 L 196 52.5 L 196 50 Z " /><path fill="rgb(125,212,86)" stroke="rgb(125,212,86)" stroke-width="1" opacity="0.996078431372549" d="M 333.5 50 L 334 53.5 L 333 53.5 L 333.5 50 Z " /><path fill="rgb(125,212,86)" stroke="rgb(125,212,86)" stroke-width="1" opacity="0.996078431372549" d="M 334.5 57 L 335 66.5 L 334 66.5 L 334.5 57 Z " /><path fill="rgb(125,212,86)" stroke="rgb(125,212,86)" stroke-width="1" opacity="0.996078431372549" d="M 335.5 68 L 336 72.5 L 335 72.5 L 335.5 68 Z " /><path fill="rgb(125,212,86)" stroke="rgb(125,212,86)" stroke-width="1" opacity="0.996078431372549" d="M 336.5 75 L 337 77.5 L 336 77.5 L 336.5 75 Z " /><path fill="rgb(125,212,86)" stroke="rgb(125,212,86)" stroke-width="1" opacity="0.996078431372549" d="M 431.5 76 L 433.5 79 L 431.5 76 Z " /><path fill="rgb(125,212,86)" stroke="rgb(125,212,86)" stroke-width="1" opacity="0.996078431372549" d="M 337.5 79 L 338 81.5 L 337 81.5 L 337.5 79 Z " /><path fill="rgb(125,212,86)" stroke="rgb(125,212,86)" stroke-width="1" opacity="0.996078431372549" d="M 339.5 86 L 340 88.5 L 339 88.5 L 339.5 86 Z " /><path fill="rgb(125,212,86)" stroke="rgb(125,212,86)" stroke-width="1" opacity="0.996078431372549" d="M 350.5 113 L 355 119.5 L 353 118.5 L 350.5 113 Z " /><path fill="rgb(125,212,86)" stroke="rgb(125,212,86)" stroke-width="1" opacity="0.996078431372549" d="M 355.5 121 L 372.5 141 Q 390.4 158.6 416.5 168 L 441.5 174 L 460 175 Q 462.3 181 455.5 179 L 454.5 178 L 445.5 178 L 434.5 176 L 412.5 169 Q 383.9 156.6 365 134.5 L 355.5 121 Z " /><path fill="rgb(125,212,86)" stroke="rgb(125,212,86)" stroke-width="1" opacity="0.996078431372549" d="M 459.5 134 L 460 137.5 L 459 137.5 L 459.5 134 Z " /><path fill="rgb(125,212,86)" stroke="rgb(125,212,86)" stroke-width="1" opacity="0.996078431372549" d="M 288.5 199 L 289.5 201 L 288.5 199 Z " /><path fill="rgb(125,212,86)" stroke="rgb(125,212,86)" stroke-width="1" opacity="0.996078431372549" d="M 311.5 222 L 312.5 224 L 311.5 222 Z " /><path fill="rgb(125,212,86)" stroke="rgb(125,212,86)" stroke-width="1" opacity="0.996078431372549" d="M 202.5 352 L 203 357.5 Q 198.3 363.8 196.5 373 L 196 363.5 L 202.5 352 Z " /><path fill="rgb(125,212,86)" stroke="rgb(125,212,86)" stroke-width="1" opacity="0.996078431372549" d="M 420.5 409 L 419.5 411 L 420.5 409 Z " /><path fill="rgb(242,243,242)" stroke="rgb(242,243,242)" stroke-width="1" opacity="0.996078431372549" d="M 325.5 52 L 327 73.5 L 336 103.5 Q 349.1 132.4 371.5 152 L 388.5 165 L 399 170 L 399.5 172 L 401 171.5 L 401.5 173 L 403 172.5 L 403.5 174 L 405.5 174 L 410.5 177 L 412.5 177 L 415.5 179 L 417 178.5 Q 416.3 180.8 418.5 180 L 420 179.5 Q 419.3 181.8 421.5 181 L 425.5 181 L 428.5 183 L 430.5 183 L 432.5 184 L 435 183 Q 433.7 186.3 438.5 185 L 440.5 184 Q 441.3 186.8 445.5 186 L 447.5 185 Q 451.7 188.5 460 187 L 460 222.5 Q 459.8 223.8 453.5 223 L 451 222 L 450.5 219 L 449.5 220 L 446 216.5 Q 446.8 214.3 444.5 215 L 442.5 212 L 441 212.5 L 440.5 211 L 423.5 211 L 420.5 206 L 419 206.5 L 418 203 L 415 201.5 L 415 199 L 409.5 199 L 405.5 194 L 404 193.5 L 404.5 192 Q 402.3 192.8 403 190.5 L 400.5 186 L 391 186 Q 392 183 389 184 L 389 181.5 L 387 177 Q 384 178.3 385 174.5 L 382.5 171 L 370.5 171 L 369 169.5 L 364 157 L 360 157 L 360 155.5 L 358 150 L 349.5 150 L 349 147.5 L 346 140.5 L 346 138.5 L 345 136.5 L 345.5 135 L 333.5 135 L 332 133.5 L 332 131.5 L 331 129.5 L 331 127.5 L 330 122.5 L 330 120.5 Q 330.9 117.1 325.5 119 L 324 115.5 L 323 110.5 L 323 106.5 L 322 98.5 L 322 96.5 L 323 94.5 L 322 91.5 L 323 87.5 L 323 85.5 L 322 81.5 L 322 79.5 L 323 74.5 L 323 72.5 Q 321.5 67 324 65.5 L 324 63.5 L 323 58.5 L 325.5 52 Z " /><path fill="rgb(242,243,242)" stroke="rgb(242,243,242)" stroke-width="1" opacity="0.996078431372549" d="M 125.5 224 Q 128.1 223.3 127 226 Q 117 228.2 110.5 235 L 110 232.5 L 125.5 224 Z " /><path fill="rgb(242,243,242)" stroke="rgb(242,243,242)" stroke-width="1" opacity="0.996078431372549" d="M 179 224 Q 189.2 226.2 196 232.5 L 195.5 235 Q 189 228.2 179 226 L 179 224 Z " /><path fill="rgb(242,243,242)" stroke="rgb(242,243,242)" stroke-width="1" opacity="0.996078431372549" d="M 107.5 240 L 109 240.5 L 98 253.5 L 93 265.5 L 104.5 277 L 111 277.5 L 108 285.5 L 108 304.5 L 111.5 315 L 113 314.5 L 112 316.5 L 114.5 320 L 116 319.5 L 115 321.5 L 116.5 324 Q 114.7 321.3 108.5 323 L 97.5 312 L 91 312 L 90 304.5 L 87 298.5 L 86 278.5 L 87 277.5 L 88 266.5 L 86.5 264 L 89 265.5 L 88 263.5 L 90 263.5 L 89 261.5 L 91 260.5 L 89.5 258 Q 90.8 260.3 92 257.5 Q 97.7 246.7 107.5 240 Z " /><path fill="rgb(242,243,242)" stroke="rgb(242,243,242)" stroke-width="1" opacity="0.996078431372549" d="M 182.5 259 L 183.5 261 L 182.5 259 Z " /><path fill="rgb(242,243,242)" stroke="rgb(242,243,242)" stroke-width="1" opacity="0.996078431372549" d="M 119.5 263 L 118.5 265 L 119.5 263 Z " /><path fill="rgb(242,243,242)" stroke="rgb(242,243,242)" stroke-width="1" opacity="0.996078431372549" d="M 186.5 263 L 187.5 265 L 186.5 263 Z " /><path fill="rgb(242,243,242)" stroke="rgb(242,243,242)" stroke-width="1" opacity="0.996078431372549" d="M 225.5 292 L 226 295.5 L 225 295.5 L 225.5 292 Z " /><path fill="rgb(242,243,242)" stroke="rgb(242,243,242)" stroke-width="1" opacity="0.996078431372549" d="M 224.5 299 L 225 305.5 L 220 322.5 L 209 338 L 205 340.5 Q 205.8 343.1 202.5 342 L 194.5 349 L 181.5 354 L 179.5 353 L 174.5 355 Q 172.5 350 163.5 352 L 154 342.5 L 168.5 340 Q 179.2 335.7 186.5 328 L 188.5 328 L 199.5 339 L 201 339 L 203.5 335 Q 207.5 335.5 208 332.5 Q 207.3 330.3 209.5 331 L 215 325.5 L 221 314.5 L 224.5 299 Z " /><path fill="rgb(242,243,242)" stroke="rgb(242,243,242)" stroke-width="1" opacity="0.996078431372549" d="M 357.5 317 L 360.5 317 L 378.5 325 L 383.5 326 L 402.5 326 L 421.5 320 Q 428.4 329.1 431 342.5 L 432 347.5 L 432 369.5 Q 425.5 401 403.5 417 Q 393.8 424.8 380.5 429 L 364.5 432 L 353.5 432 L 337.5 429 L 323.5 423 Q 310.2 415.4 301 403.5 Q 292.4 393.1 288 378.5 L 286 369.5 L 286 347.5 L 291 329.5 L 296.5 320 L 315.5 326 L 334.5 326 L 343.5 324 L 357.5 317 Z M 357 323 L 350 327 L 335 331 L 315 331 L 299 326 L 292 342 L 293 345 L 425 345 Q 424 334 419 326 L 403 331 L 383 331 L 368 327 L 361 323 L 357 323 Z M 291 352 L 292 375 L 301 396 Q 306 399 308 407 L 314 411 L 334 422 L 349 426 L 370 426 L 379 424 Q 395 418 408 408 Q 422 394 427 370 L 427 353 L 427 352 L 291 352 Z " /><path fill="rgb(242,243,242)" stroke="rgb(242,243,242)" stroke-width="1" opacity="0.996078431372549" d="M 118.5 323 L 119.5 325 L 118.5 323 Z " /><path fill="rgb(242,243,242)" stroke="rgb(242,243,242)" stroke-width="1" opacity="0.996078431372549" d="M 187.5 323 L 186.5 325 L 187.5 323 Z " /><path fill="rgb(242,243,242)" stroke="rgb(242,243,242)" stroke-width="1" opacity="0.996078431372549" d="M 118.5 326 L 123.5 332 L 118.5 326 Z " /><path fill="rgb(242,243,242)" stroke="rgb(242,243,242)" stroke-width="1" opacity="0.996078431372549" d="M 122.5 327 L 123.5 329 L 122.5 327 Z " /><path fill="rgb(242,243,242)" stroke="rgb(242,243,242)" stroke-width="1" opacity="0.996078431372549" d="M 183.5 327 L 182.5 329 L 183.5 327 Z " /><path fill="rgb(242,243,242)" stroke="rgb(242,243,242)" stroke-width="1" opacity="0.996078431372549" d="M 126.5 333 L 127.5 335 L 126.5 333 Z " /><path fill="rgb(242,243,242)" stroke="rgb(242,243,242)" stroke-width="1" opacity="0.996078431372549" d="M 327.5 362 L 333.5 363 L 339 367.5 L 340 374.5 L 325 393 L 340 393 L 340 398 L 316.5 398 Q 315.5 398 316 393.5 L 332 377.5 L 333 370.5 L 327.5 367 L 322 370.5 L 322 373 L 316 373 Q 315.1 367.1 319.5 365 L 327.5 362 Z " /><path fill="rgb(242,243,242)" stroke="rgb(242,243,242)" stroke-width="1" opacity="0.996078431372549" d="M 359.5 362 L 364.5 363 L 370 366.5 L 372 371.5 L 367.5 378 L 365 379.5 L 372 384.5 L 373 390.5 L 368.5 396 Q 363.8 399.8 353.5 398 L 347 393.5 L 346 385.5 L 348.5 382 L 353 379.5 L 348 375.5 L 347 369.5 L 351.5 364 L 359.5 362 Z M 358 367 L 356 368 L 353 373 L 354 376 L 359 378 Q 363 378 365 375 L 364 368 L 358 367 Z M 357 382 L 354 383 L 352 388 L 354 393 L 357 394 L 364 393 Q 367 392 366 386 Q 364 381 357 382 Z " /><path fill="rgb(242,243,242)" stroke="rgb(242,243,242)" stroke-width="1" opacity="0.996078431372549" d="M 390.5 362 Q 398.8 362.8 402 368.5 L 404 372.5 L 404 387.5 Q 402.5 394 397.5 397 Q 394 399.5 386.5 398 L 381 393.5 L 378 387.5 L 378 373.5 Q 379.5 367 384.5 364 L 390.5 362 Z M 389 368 L 384 376 Q 383 385 386 391 Q 387 394 394 393 L 398 386 Q 399 376 396 371 Q 395 367 389 368 Z " /><path fill="rgb(242,243,242)" stroke="rgb(242,243,242)" stroke-width="1" opacity="0.996078431372549" d="M 110.5 379 Q 120.4 386.6 134.5 390 L 145.5 391 L 146.5 392 L 159.5 392 L 160.5 391 L 171.5 390 L 183.5 386 L 195.5 379 L 196 385 L 181.5 392 L 171.5 395 L 158.5 396 L 157.5 397 L 148.5 397 L 127.5 393 L 110 385 L 110.5 379 Z " /><path fill="rgb(194,170,167)" stroke="rgb(194,170,167)" stroke-width="1" opacity="0.9921568627450981" d="M 132.5 50 L 135 50.5 L 132.5 51 L 132.5 50 Z " /><path fill="rgb(194,170,167)" stroke="rgb(194,170,167)" stroke-width="1" opacity="0.9921568627450981" d="M 233 50 L 240 50 L 240 52.5 L 238 52.5 L 237.5 54 L 234 53.5 L 234.5 57 L 238.5 56 L 239.5 58 L 238 58.5 L 240 59 L 238.5 62 L 236.5 62 L 233 59.5 L 233 50 Z M 236 57 L 234 59 L 236 59 L 236 57 Z " /><path fill="rgb(194,170,167)" stroke="rgb(194,170,167)" stroke-width="1" opacity="0.9921568627450981" d="M 326 50 L 333 50 L 333 52.5 L 330 52.5 L 329.5 51 L 329 53 Q 324.5 54.5 326 50 Z " /><path fill="rgb(194,170,167)" stroke="rgb(194,170,167)" stroke-width="1" opacity="0.9921568627450981" d="M 109.5 56 L 110 141 L 102 136.5 L 103 135.5 L 103 60.5 L 102.5 59 L 109.5 56 Z " /><path fill="rgb(194,170,167)" stroke="rgb(194,170,167)" stroke-width="1" opacity="0.9921568627450981" d="M 327 56 L 333 56.5 L 331 57.5 L 333 61.5 L 328 60.5 L 327.5 62 L 327 59 L 330 58.5 L 327 57.5 L 327 56 Z " /><path fill="rgb(194,170,167)" stroke="rgb(194,170,167)" stroke-width="1" opacity="0.9921568627450981" d="M 333.5 64 L 334 66.5 L 333 66.5 L 333.5 64 Z " /><path fill="rgb(194,170,167)" stroke="rgb(194,170,167)" stroke-width="1" opacity="0.9921568627450981" d="M 234.5 71 L 235 73.5 L 234 73.5 L 234.5 71 Z " /><path fill="rgb(194,170,167)" stroke="rgb(194,170,167)" stroke-width="1" opacity="0.9921568627450981" d="M 81.5 73 L 73.5 82 L 81.5 73 Z " /><path fill="rgb(194,170,167)" stroke="rgb(194,170,167)" stroke-width="1" opacity="0.9921568627450981" d="M 52.5 121 L 53 123.5 L 52 123.5 L 52.5 121 Z " /><path fill="rgb(194,170,167)" stroke="rgb(194,170,167)" stroke-width="1" opacity="0.9921568627450981" d="M 51.5 126 L 52 128.5 L 51 128.5 L 51.5 126 Z " /><path fill="rgb(194,170,167)" stroke="rgb(194,170,167)" stroke-width="1" opacity="0.9921568627450981" d="M 50.5 132 L 51 137.5 L 50 137.5 L 50.5 132 Z " /><path fill="rgb(194,170,167)" stroke="rgb(194,170,167)" stroke-width="1" opacity="0.9921568627450981" d="M 363.5 133 L 364.5 135 L 363.5 133 Z " /><path fill="rgb(194,170,167)" stroke="rgb(194,170,167)" stroke-width="1" opacity="0.9921568627450981" d="M 377.5 147 L 378.5 149 L 377.5 147 Z " /><path fill="rgb(194,170,167)" stroke="rgb(194,170,167)" stroke-width="1" opacity="0.9921568627450981" d="M 278.5 186 L 279.5 188 L 278.5 186 Z " /><path fill="rgb(194,170,167)" stroke="rgb(194,170,167)" stroke-width="1" opacity="0.9921568627450981" d="M 281.5 190 L 282.5 192 L 281.5 190 Z " /><path fill="rgb(194,170,167)" stroke="rgb(194,170,167)" stroke-width="1" opacity="0.9921568627450981" d="M 285.5 195 L 287.5 198 L 285.5 195 Z " /><path fill="rgb(194,170,167)" stroke="rgb(194,170,167)" stroke-width="1" opacity="0.9921568627450981" d="M 292.5 203 L 296.5 208 L 292.5 203 Z " /><path fill="rgb(194,170,167)" stroke="rgb(194,170,167)" stroke-width="1" opacity="0.9921568627450981" d="M 304.5 215 L 308.5 220 L 304.5 215 Z " /><path fill="rgb(194,170,167)" stroke="rgb(194,170,167)" stroke-width="1" opacity="0.9921568627450981" d="M 314.5 224 L 316.5 227 L 314.5 224 Z " /><path fill="rgb(194,170,167)" stroke="rgb(194,170,167)" stroke-width="1" opacity="0.9921568627450981" d="M 320.5 229 L 321.5 231 L 320.5 229 Z " /><path fill="rgb(194,170,167)" stroke="rgb(194,170,167)" stroke-width="1" opacity="0.9921568627450981" d="M 62.5 230 L 63.5 232 L 62.5 230 Z " /><path fill="rgb(194,170,167)" stroke="rgb(194,170,167)" stroke-width="1" opacity="0.9921568627450981" d="M 324.5 232 L 325.5 234 L 324.5 232 Z " /><path fill="rgb(194,170,167)" stroke="rgb(194,170,167)" stroke-width="1" opacity="0.9921568627450981" d="M 328.5 235 L 329.5 237 L 328.5 235 Z " /><path fill="rgb(194,170,167)" stroke="rgb(194,170,167)" stroke-width="1" opacity="0.9921568627450981" d="M 72.5 237 L 73.5 239 L 72.5 237 Z " /><path fill="rgb(194,170,167)" stroke="rgb(194,170,167)" stroke-width="1" opacity="0.9921568627450981" d="M 106.5 237 L 105.5 239 L 106.5 237 Z " /><path fill="rgb(194,170,167)" stroke="rgb(194,170,167)" stroke-width="1" opacity="0.9921568627450981" d="M 82.5 244 L 83.5 246 L 82.5 244 Z " /><path fill="rgb(194,170,167)" stroke="rgb(194,170,167)" stroke-width="1" opacity="0.9921568627450981" d="M 86.5 247 L 93 252.5 L 86.5 263 L 86 259.5 L 86 257.5 L 87 253.5 L 86 251.5 L 87 249.5 L 86.5 247 Z " /><path fill="rgb(194,170,167)" stroke="rgb(194,170,167)" stroke-width="1" opacity="0.9921568627450981" d="M 437.5 277 L 440 277.5 L 437.5 278 L 437.5 277 Z " /><path fill="rgb(194,170,167)" stroke="rgb(194,170,167)" stroke-width="1" opacity="0.9921568627450981" d="M 448.5 278 L 455 278.5 L 448.5 279 L 448.5 278 Z " /><path fill="rgb(194,170,167)" stroke="rgb(194,170,167)" stroke-width="1" opacity="0.9921568627450981" d="M 79.5 285 L 80 303.5 L 85 321.5 Q 92.7 339.3 107 350.5 L 103 348.5 Q 104.4 356 109.5 360 L 110 353.5 L 109.5 352 L 115.5 357 L 134.5 365 L 145.5 367 L 160.5 367 L 180.5 362 Q 190.1 358.6 196.5 352 L 196 353.5 Q 197.5 361.5 192.5 363 Q 175.9 375.4 146.5 375 L 126.5 370 Q 116.9 366.6 110.5 360 L 110 453 Q 103.2 452.5 99 448.5 L 100 447.5 L 100 431.5 L 100 429.5 L 100 385.5 L 99 384.5 L 98 373.5 L 95 368.5 L 91 353.5 L 87 347.5 L 87 344.5 L 82 334.5 L 81 327.5 L 79 323.5 L 79 321.5 L 78 309.5 L 77 308.5 L 77 299.5 L 79.5 285 Z " /><path fill="rgb(194,170,167)" stroke="rgb(194,170,167)" stroke-width="1" opacity="0.9921568627450981" d="M 352.5 312 L 354 312.5 L 351.5 314 L 352.5 312 Z " /><path fill="rgb(194,170,167)" stroke="rgb(194,170,167)" stroke-width="1" opacity="0.9921568627450981" d="M 346.5 315 L 348 315.5 L 344.5 317 L 344.5 316 L 346.5 315 Z " /><path fill="rgb(194,170,167)" stroke="rgb(194,170,167)" stroke-width="1" opacity="0.9921568627450981" d="M 337.5 318 L 340 318.5 L 337.5 319 L 337.5 318 Z " /><path fill="rgb(194,170,167)" stroke="rgb(194,170,167)" stroke-width="1" opacity="0.9921568627450981" d="M 315.5 319 L 319 319.5 L 315.5 320 L 315.5 319 Z " /><path fill="rgb(194,170,167)" stroke="rgb(194,170,167)" stroke-width="1" opacity="0.9921568627450981" d="M 331.5 319 L 335 319.5 L 331.5 320 L 331.5 319 Z " /><path fill="rgb(194,170,167)" stroke="rgb(194,170,167)" stroke-width="1" opacity="0.9921568627450981" d="M 288.5 321 L 288 322.5 L 286.5 326 L 286 324.5 L 288.5 321 Z " /><path fill="rgb(194,170,167)" stroke="rgb(194,170,167)" stroke-width="1" opacity="0.9921568627450981" d="M 319.5 331 L 322 331.5 L 319.5 332 L 319.5 331 Z " /><path fill="rgb(194,170,167)" stroke="rgb(194,170,167)" stroke-width="1" opacity="0.9921568627450981" d="M 326.5 331 L 331 331.5 L 326.5 332 L 326.5 331 Z " /><path fill="rgb(194,170,167)" stroke="rgb(194,170,167)" stroke-width="1" opacity="0.9921568627450981" d="M 386.5 331 L 391 331.5 L 386.5 332 L 386.5 331 Z " /><path fill="rgb(194,170,167)" stroke="rgb(194,170,167)" stroke-width="1" opacity="0.9921568627450981" d="M 395.5 331 L 398 331.5 L 395.5 332 L 395.5 331 Z " /><path fill="rgb(194,170,167)" stroke="rgb(194,170,167)" stroke-width="1" opacity="0.9921568627450981" d="M 212.5 336 L 284 385 Q 290.4 405.3 305.5 418 Q 315.6 427.4 329.5 433 L 348.5 438 L 358.5 438 L 386 457.5 L 376.5 460 L 370.5 460 L 370.5 459 L 377 458.5 L 326.5 444 Q 307.3 434.7 294 419.5 L 263 374 L 260 372.5 L 257.5 369 L 251 364.5 Q 251.8 362.3 249.5 363 L 237.5 354 L 232.5 352 L 230.5 352 Q 218.8 351.3 215 358.5 L 208 372.5 L 207 380.5 L 205 383.5 L 204 404.5 L 205 405.5 L 205 439.5 L 204 440.5 L 204 453.5 L 203 460 L 196.5 460 L 196 459.5 L 196 382.5 L 198 373.5 L 201 367.5 L 201 365.5 Q 205 360.5 203 349.5 Q 206.7 348.8 206 343.5 L 210.5 339 Q 211.7 341.3 213 338.5 L 212.5 337 L 211 337.5 L 212.5 336 Z " /><path fill="rgb(194,170,167)" stroke="rgb(194,170,167)" stroke-width="1" opacity="0.9921568627450981" d="M 202.5 347 L 199.5 351 L 202.5 347 Z " /><path fill="rgb(194,170,167)" stroke="rgb(194,170,167)" stroke-width="1" opacity="0.9921568627450981" d="M 50.5 372 L 51 377.5 L 50 377.5 L 50.5 372 Z " /><path fill="rgb(194,170,167)" stroke="rgb(194,170,167)" stroke-width="1" opacity="0.9921568627450981" d="M 330.5 378 L 325.5 384 L 330.5 378 Z " /><path fill="rgb(194,170,167)" stroke="rgb(194,170,167)" stroke-width="1" opacity="0.9921568627450981" d="M 397.5 379 L 398 381.5 L 397 381.5 L 397.5 379 Z " /><path fill="rgb(194,170,167)" stroke="rgb(194,170,167)" stroke-width="1" opacity="0.9921568627450981" d="M 51.5 381 L 52 383.5 L 51 383.5 L 51.5 381 Z " /><path fill="rgb(194,170,167)" stroke="rgb(194,170,167)" stroke-width="1" opacity="0.9921568627450981" d="M 394.5 391 L 393.5 393 L 394.5 391 Z " /><path fill="rgb(194,170,167)" stroke="rgb(194,170,167)" stroke-width="1" opacity="0.9921568627450981" d="M 315.5 393 L 316 395.5 L 315 395.5 L 315.5 393 Z " /><path fill="rgb(194,170,167)" stroke="rgb(194,170,167)" stroke-width="1" opacity="0.9921568627450981" d="M 403.5 409 L 402.5 411 L 403.5 409 Z " /><path fill="rgb(194,170,167)" stroke="rgb(194,170,167)" stroke-width="1" opacity="0.9921568627450981" d="M 64.5 416 L 65.5 418 L 64.5 416 Z " /><path fill="rgb(194,170,167)" stroke="rgb(194,170,167)" stroke-width="1" opacity="0.9921568627450981" d="M 66.5 419 L 67.5 421 L 66.5 419 Z " /><path fill="rgb(194,170,167)" stroke="rgb(194,170,167)" stroke-width="1" opacity="0.9921568627450981" d="M 69.5 423 L 70.5 425 L 69.5 423 Z " /><path fill="rgb(194,170,167)" stroke="rgb(194,170,167)" stroke-width="1" opacity="0.9921568627450981" d="M 74.5 429 L 80.5 436 L 74.5 429 Z " /><path fill="rgb(194,170,167)" stroke="rgb(194,170,167)" stroke-width="1" opacity="0.9921568627450981" d="M 85.5 439 L 86.5 441 L 85.5 439 Z " /><path fill="rgb(194,170,167)" stroke="rgb(194,170,167)" stroke-width="1" opacity="0.9921568627450981" d="M 132.5 459 L 135 459.5 L 132.5 460 L 132.5 459 Z " /><path fill="rgb(3,126,227)" stroke="rgb(3,126,227)" stroke-width="1" opacity="0.996078431372549" d="M 135.5 50 L 178.5 50 L 179 50.5 L 179 225.5 L 177.5 225 L 161.5 221 L 144.5 221 L 130.5 224 L 127.5 226 L 127 51 L 134.5 51 L 135.5 50 Z " /><path fill="rgb(3,126,227)" stroke="rgb(3,126,227)" stroke-width="1" opacity="0.996078431372549" d="M 147.5 249 L 158.5 249 L 167.5 251 Q 180.4 255.6 188 265.5 L 196 279.5 L 198 288.5 L 198 299.5 Q 194.2 319.7 180.5 330 L 167.5 337 L 158.5 339 L 147.5 339 Q 128 335.5 118 322.5 L 110 308.5 L 108 299.5 L 108 288.5 Q 111.8 268.3 125.5 258 L 138.5 251 L 147.5 249 Z " /><path fill="rgb(3,126,227)" stroke="rgb(3,126,227)" stroke-width="1" opacity="0.996078431372549" d="M 357.5 310 L 360.5 310 Q 369.7 317.3 383.5 320 L 402.5 320 L 425 312 L 436 336.5 L 439 353.5 L 439 363.5 L 438 364.5 L 437 376.5 L 433 388.5 Q 426.3 404.8 414.5 416 Q 404.3 425.8 390.5 432 L 374.5 437 L 348.5 438 Q 316.4 432.1 299 411.5 Q 290.4 402.1 285 389.5 L 280 371.5 L 279 355.5 L 283 333.5 L 293 312 L 315.5 320 L 334.5 320 Q 348.5 317.5 357.5 310 Z M 359 316 L 348 322 L 332 326 Q 309 327 297 319 L 289 334 L 285 352 L 285 366 L 288 381 Q 293 394 301 405 Q 317 426 350 432 L 369 432 L 379 430 Q 394 426 405 417 Q 417 407 425 393 L 430 381 L 433 366 L 432 345 Q 429 329 422 319 L 410 324 L 400 326 L 381 325 Q 368 322 359 316 Z " /><path fill="rgb(3,126,227)" stroke="rgb(3,126,227)" stroke-width="1" opacity="0.996078431372549" d="M 291 352 L 426.5 352 L 427 352.5 L 427 365.5 Q 422.4 393.8 404.5 409 Q 394.5 418 380.5 423 L 366.5 426 L 351.5 426 Q 322.3 421.2 307 402.5 Q 297.9 391.6 293 376.5 L 291 365.5 L 291 352 Z M 325 362 L 318 365 L 315 374 L 322 374 L 322 372 Q 323 367 331 368 L 333 372 L 332 377 L 315 394 L 315 396 L 316 398 L 341 398 L 341 398 L 341 392 L 326 392 L 338 380 L 340 376 L 340 369 L 338 365 L 332 362 L 325 362 Z M 356 362 L 351 364 L 346 372 L 348 377 L 353 380 L 351 380 L 345 387 Q 344 392 347 395 L 357 399 Q 369 400 373 393 L 372 384 L 366 380 L 368 379 L 372 374 L 371 368 Q 367 361 356 362 Z M 388 362 L 384 364 Q 378 368 377 376 Q 376 387 380 394 Q 383 398 389 399 Q 396 400 399 397 Q 404 393 405 386 Q 406 374 402 368 L 395 362 L 388 362 Z " /><path fill="rgb(3,126,227)" stroke="rgb(3,126,227)" stroke-width="1" opacity="0.996078431372549" d="M 358.5 367 L 364 369.5 L 365 372.5 L 361.5 377 Q 355.7 377.8 354 374.5 Q 353 369 356.5 368 L 358.5 367 Z " /><path fill="rgb(3,126,227)" stroke="rgb(3,126,227)" stroke-width="1" opacity="0.996078431372549" d="M 389.5 368 Q 395.3 367.3 396 371.5 L 397 373.5 L 397 387.5 L 392.5 393 Q 386.8 393.8 386 389.5 Q 383.5 384 385 374.5 L 389.5 368 Z " /><path fill="rgb(3,126,227)" stroke="rgb(3,126,227)" stroke-width="1" opacity="0.996078431372549" d="M 356.5 383 Q 363.5 381.5 365 385.5 L 366 388.5 L 362.5 393 Q 356.4 393.8 354 392 L 353 385.5 L 356.5 383 Z " /></svg>