<svg xmlns="http://www.w3.org/2000/svg" xmlns:xlink="http://www.w3.org/1999/xlink" width="100" zoomAndPan="magnify" viewBox="0 0 75 74.999997" height="100" preserveAspectRatio="xMidYMid meet" version="1.0"><defs><clipPath id="da45e2cd3e"><path d="M 0 0.140625 L 49 0.140625 L 49 75 L 0 75 Z M 0 0.140625 " clip-rule="nonzero"/></clipPath></defs><path fill="#ff3d00" d="M 73.636719 34.835938 L 59.050781 20.25 C 58.691406 19.886719 58.269531 19.609375 57.796875 19.414062 C 57.324219 19.214844 56.832031 19.117188 56.316406 19.117188 C 55.804688 19.117188 55.3125 19.214844 54.835938 19.414062 C 54.363281 19.609375 53.945312 19.886719 53.582031 20.25 C 53.21875 20.613281 52.941406 21.03125 52.746094 21.503906 C 52.546875 21.980469 52.449219 22.472656 52.449219 22.984375 C 52.449219 23.5 52.546875 23.992188 52.746094 24.464844 C 52.941406 24.9375 53.21875 25.359375 53.582031 25.71875 L 61.566406 33.703125 L 19.335938 33.703125 C 18.824219 33.703125 18.332031 33.800781 17.855469 33.996094 C 17.382812 34.195312 16.964844 34.472656 16.601562 34.835938 C 16.238281 35.199219 15.960938 35.617188 15.765625 36.089844 C 15.566406 36.5625 15.46875 37.058594 15.46875 37.570312 C 15.46875 38.082031 15.566406 38.578125 15.765625 39.050781 C 15.960938 39.523438 16.238281 39.941406 16.601562 40.304688 C 16.964844 40.667969 17.382812 40.945312 17.855469 41.144531 C 18.332031 41.339844 18.824219 41.4375 19.335938 41.4375 L 61.566406 41.4375 L 53.582031 49.421875 C 53.21875 49.78125 52.941406 50.203125 52.746094 50.675781 C 52.546875 51.148438 52.449219 51.640625 52.449219 52.15625 C 52.449219 52.667969 52.546875 53.160156 52.746094 53.636719 C 52.941406 54.109375 53.21875 54.527344 53.582031 54.890625 C 53.945312 55.253906 54.363281 55.53125 54.835938 55.726562 C 55.3125 55.925781 55.804688 56.023438 56.316406 56.023438 C 56.832031 56.023438 57.324219 55.925781 57.796875 55.726562 C 58.269531 55.53125 58.691406 55.253906 59.050781 54.890625 L 73.636719 40.304688 C 74 39.941406 74.28125 39.523438 74.476562 39.050781 C 74.671875 38.578125 74.769531 38.082031 74.769531 37.570312 C 74.769531 37.058594 74.671875 36.5625 74.476562 36.089844 C 74.28125 35.617188 74 35.199219 73.636719 34.835938 Z M 73.636719 34.835938 " fill-opacity="1" fill-rule="nonzero"/><g clip-path="url(#da45e2cd3e)"><path fill="#ff3d00" d="M 45.121094 59.484375 C 44.605469 59.484375 44.113281 59.582031 43.640625 59.78125 C 43.164062 59.976562 42.746094 60.253906 42.386719 60.617188 C 42.023438 60.980469 41.742188 61.398438 41.546875 61.875 C 41.351562 62.347656 41.253906 62.839844 41.253906 63.351562 L 41.253906 67.21875 L 7.734375 67.21875 L 7.734375 7.921875 L 41.253906 7.921875 L 41.253906 11.789062 C 41.253906 12.300781 41.351562 12.792969 41.546875 13.265625 C 41.742188 13.742188 42.023438 14.160156 42.386719 14.523438 C 42.746094 14.886719 43.164062 15.164062 43.640625 15.359375 C 44.113281 15.558594 44.605469 15.65625 45.121094 15.65625 C 45.632812 15.65625 46.125 15.558594 46.601562 15.359375 C 47.074219 15.164062 47.492188 14.886719 47.855469 14.523438 C 48.21875 14.160156 48.496094 13.742188 48.691406 13.265625 C 48.890625 12.792969 48.988281 12.300781 48.988281 11.789062 L 48.988281 6.632812 C 48.988281 6.207031 48.945312 5.789062 48.863281 5.375 C 48.78125 4.957031 48.660156 4.554688 48.496094 4.164062 C 48.335938 3.773438 48.136719 3.402344 47.902344 3.050781 C 47.664062 2.699219 47.398438 2.371094 47.097656 2.074219 C 46.800781 1.773438 46.472656 1.507812 46.121094 1.273438 C 45.769531 1.035156 45.398438 0.839844 45.007812 0.675781 C 44.617188 0.515625 44.214844 0.390625 43.800781 0.308594 C 43.382812 0.226562 42.964844 0.183594 42.542969 0.183594 L 6.445312 0.183594 C 6.023438 0.183594 5.601562 0.226562 5.1875 0.308594 C 4.773438 0.390625 4.371094 0.515625 3.980469 0.675781 C 3.589844 0.839844 3.214844 1.035156 2.863281 1.273438 C 2.511719 1.507812 2.1875 1.773438 1.886719 2.074219 C 1.589844 2.371094 1.320312 2.699219 1.085938 3.050781 C 0.851562 3.402344 0.652344 3.773438 0.492188 4.164062 C 0.328125 4.554688 0.207031 4.957031 0.125 5.375 C 0.0429688 5.789062 0 6.207031 0 6.632812 L 0 68.507812 C 0 68.933594 0.0429688 69.351562 0.125 69.765625 C 0.207031 70.183594 0.328125 70.585938 0.492188 70.976562 C 0.652344 71.367188 0.851562 71.738281 1.085938 72.089844 C 1.320312 72.441406 1.589844 72.769531 1.886719 73.066406 C 2.1875 73.367188 2.511719 73.632812 2.863281 73.867188 C 3.214844 74.105469 3.589844 74.300781 3.980469 74.464844 C 4.371094 74.625 4.773438 74.75 5.1875 74.832031 C 5.601562 74.914062 6.023438 74.957031 6.445312 74.957031 L 42.542969 74.957031 C 42.964844 74.957031 43.382812 74.914062 43.800781 74.832031 C 44.214844 74.75 44.617188 74.625 45.007812 74.464844 C 45.398438 74.300781 45.769531 74.105469 46.121094 73.867188 C 46.472656 73.632812 46.800781 73.367188 47.097656 73.066406 C 47.398438 72.769531 47.664062 72.441406 47.902344 72.089844 C 48.136719 71.738281 48.335938 71.367188 48.496094 70.976562 C 48.660156 70.585938 48.78125 70.183594 48.863281 69.765625 C 48.945312 69.351562 48.988281 68.933594 48.988281 68.507812 L 48.988281 63.351562 C 48.988281 62.839844 48.890625 62.347656 48.691406 61.875 C 48.496094 61.398438 48.21875 60.980469 47.855469 60.617188 C 47.492188 60.253906 47.074219 59.976562 46.601562 59.78125 C 46.125 59.582031 45.632812 59.484375 45.121094 59.484375 Z M 45.121094 59.484375 " fill-opacity="1" fill-rule="nonzero"/></g></svg>