<svg xmlns="http://www.w3.org/2000/svg" xmlns:xlink="http://www.w3.org/1999/xlink" width="500" zoomAndPan="magnify" viewBox="0 0 375 374.999991" height="500" preserveAspectRatio="xMidYMid meet" version="1.0"><defs><clipPath id="5c6123e6be"><path d="M 1 164 L 374 164 L 374 343.148438 L 1 343.148438 Z M 1 164 " clip-rule="nonzero"/></clipPath><clipPath id="cd2f4ace71"><path d="M 109 31.898438 L 266 31.898438 L 266 261 L 109 261 Z M 109 31.898438 " clip-rule="nonzero"/></clipPath></defs><g clip-path="url(#5c6123e6be)"><path fill="#ff3d00" d="M 369.652344 294.261719 L 328.683594 201.277344 C 324.277344 191.273438 316.09375 182.011719 305.640625 175.195312 C 295.1875 168.378906 283.414062 164.625 272.484375 164.625 L 268.855469 164.625 C 266.359375 169.460938 263.414062 174.101562 260.027344 178.507812 L 250.179688 194.828125 L 272.484375 194.828125 C 283.136719 194.828125 296.75 203.707031 301.042969 213.453125 L 342.011719 306.441406 C 343.304688 309.371094 343.171875 311.226562 342.910156 311.625 C 342.652344 312.023438 341.007812 312.890625 337.804688 312.890625 L 37.164062 312.890625 C 33.964844 312.890625 32.320312 312.023438 32.058594 311.625 C 31.800781 311.226562 31.667969 309.371094 32.957031 306.441406 L 73.925781 213.457031 C 78.222656 203.707031 91.835938 194.828125 102.488281 194.828125 L 124.789062 194.828125 L 114.945312 178.511719 C 111.558594 174.105469 108.609375 169.460938 106.113281 164.625 L 102.488281 164.625 C 91.558594 164.625 79.78125 168.378906 69.328125 175.199219 C 58.875 182.015625 50.695312 191.277344 46.289062 201.277344 L 5.320312 294.265625 C 0.03125 306.269531 0.554688 318.609375 6.761719 328.125 C 12.964844 337.636719 24.046875 343.09375 37.164062 343.09375 L 337.804688 343.09375 C 350.921875 343.09375 362.003906 337.636719 368.207031 328.125 C 374.414062 318.609375 374.9375 306.269531 369.648438 294.265625 Z M 369.652344 294.261719 " fill-opacity="1" fill-rule="nonzero"/></g><g clip-path="url(#cd2f4ace71)"><path fill="#ff3d00" d="M 187.488281 31.902344 C 144.214844 31.902344 109.136719 66.984375 109.136719 110.253906 C 109.136719 128.457031 115.34375 145.207031 125.757812 158.511719 L 187.484375 260.824219 L 249.210938 158.511719 C 259.625 145.207031 265.832031 128.457031 265.832031 110.253906 C 265.832031 66.984375 230.753906 31.902344 187.484375 31.902344 Z M 187.488281 150.140625 C 164.695312 150.140625 146.21875 131.664062 146.21875 108.871094 C 146.21875 86.082031 164.695312 67.605469 187.488281 67.605469 C 210.277344 67.605469 228.753906 86.082031 228.753906 108.871094 C 228.753906 131.664062 210.277344 150.140625 187.488281 150.140625 Z M 187.488281 150.140625 " fill-opacity="1" fill-rule="nonzero"/></g></svg>