<svg xmlns="http://www.w3.org/2000/svg" width="500" height="500" version="1.0" viewBox="0 0 375 375"><defs><clipPath id="a"><path d="M1 1h372v373H1Zm0 0"/></clipPath><clipPath id="b"><path d="M270.57 1.82a102 102 0 0 0-11.507.649 100 100 0 0 0-5.711.808 102.6 102.6 0 0 0-22.11 6.41 104.024 104.024 0 0 0-10.371 5.031q-2.52 1.405-4.957 2.95a103 103 0 0 0-4.781 3.219 102.701 102.701 0 0 0-13.148 11.21 100 100 0 0 0-3.942 4.212 103 103 0 0 0-7.133 9.054 102.172 102.172 0 0 0-8.676 14.945q-1.23 2.609-2.316 5.282a105 105 0 0 0-2.012 5.402 103 103 0 0 0-3.094 11.106q-.616 2.82-1.074 5.668a101.345 101.345 0 0 0-1.176 11.465c-.09 1.921-.12 3.843-.101 5.765a101 101 0 0 0 .773 11.504q.355 2.858.871 5.7.517 2.834 1.192 5.64L17.023 282.113a53.31 53.31 0 0 0-6.746 8.063 53 53 0 0 0-2.742 4.492 52 52 0 0 0-2.289 4.742 53 53 0 0 0-1.809 4.942 52 52 0 0 0-1.312 5.097 53 53 0 0 0-1.09 10.457 52.5 52.5 0 0 0 .985 10.469 54 54 0 0 0 1.257 5.11 53.38 53.38 0 0 0 6.7 14.242 54 54 0 0 0 3.132 4.23 53 53 0 0 0 11.664 10.566 53.413 53.413 0 0 0 9.281 4.941 53.4 53.4 0 0 0 15.282 3.77q2.626.246 5.258.235a53.7 53.7 0 0 0 10.46-1.09 54 54 0 0 0 5.094-1.313 53 53 0 0 0 4.946-1.812 53 53 0 0 0 4.738-2.285 53.497 53.497 0 0 0 8.691-5.918 54 54 0 0 0 3.868-3.574l154.308-154.274q11.525 2.783 23.871 2.805 3.023 0 6.04-.176a103 103 0 0 0 11.995-1.422c1.98-.355 3.954-.77 5.91-1.242 1.962-.473 3.903-1 5.833-1.59a98 98 0 0 0 5.722-1.93q2.835-1.048 5.602-2.265a100.999 100.999 0 0 0 10.754-5.504 99 99 0 0 0 5.113-3.219 100 100 0 0 0 4.914-3.515 99 99 0 0 0 4.695-3.801 102 102 0 0 0 8.68-8.399 101.767 101.767 0 0 0 7.625-9.367 100 100 0 0 0 3.387-5.004 104 104 0 0 0 3.082-5.195 102.24 102.24 0 0 0 12.73-46.172q.096-3.018.016-6.043a101 101 0 0 0-.344-6.031 100 100 0 0 0-.695-6 105 105 0 0 0-1.05-5.95q-.617-2.96-1.403-5.878a100 100 0 0 0-1.746-5.785 14.142 14.142 0 0 0-1.535-3.176 13.999 13.999 0 0 0-2.285-2.691q-.658-.601-1.383-1.106a13.8 13.8 0 0 0-3.122-1.649 14 14 0 0 0-1.69-.511 14 14 0 0 0-1.747-.297 14 14 0 0 0-3.527.082c-.586.09-1.16.215-1.73.379-.567.16-1.126.355-1.669.59s-1.066.5-1.578.797q-.763.451-1.46.992-.704.545-1.329 1.172l-45.367 45.367a13.8 13.8 0 0 1-2.11 1.726c-.757.508-1.562.938-2.406 1.285a13.8 13.8 0 0 1-5.324 1.06q-1.367 0-2.711-.267a13.8 13.8 0 0 1-2.61-.793 13.7 13.7 0 0 1-2.406-1.285 13.8 13.8 0 0 1-2.109-1.726l-16.316-16.301a14 14 0 0 1-1.73-2.106A14 14 0 0 1 260 90.657a14 14 0 0 1-.79-2.61q-.267-1.345-.265-2.714-.002-1.372.266-2.715.269-1.342.789-2.61a14 14 0 0 1 1.285-2.405 14 14 0 0 1 1.73-2.11l45.387-45.383a14.144 14.144 0 0 0 2.95-4.371q.345-.813.586-1.668.246-.848.375-1.726a15 15 0 0 0 .152-1.762 14 14 0 0 0-.371-3.508 13 13 0 0 0-.512-1.687 14.2 14.2 0 0 0-1.648-3.121q-.509-.721-1.106-1.38a13.896 13.896 0 0 0-4.23-3.148 14 14 0 0 0-1.637-.668 101.4 101.4 0 0 0-32.39-5.25"/></clipPath><linearGradient id="c" x1="9.642" x2="13.843" y1=".595" y2="23.518" gradientTransform="translate(-35.711 -35.306)scale(18.5625)" gradientUnits="userSpaceOnUse"><stop offset="0" stop-color="#2BDABE"/><stop offset=".063" stop-color="#2BDABE"/><stop offset=".094" stop-color="#2BDABE"/><stop offset=".109" stop-color="#2BDABE"/><stop offset=".117" stop-color="#2BDABE"/><stop offset=".121" stop-color="#2BD9BE"/><stop offset=".125" stop-color="#2BD9BE"/><stop offset=".129" stop-color="#2AD8BE"/><stop offset=".133" stop-color="#2AD8BE"/><stop offset=".137" stop-color="#2AD7BE"/><stop offset=".141" stop-color="#2AD7BE"/><stop offset=".145" stop-color="#2AD6BE"/><stop offset=".148" stop-color="#29D6BE"/><stop offset=".152" stop-color="#29D5BE"/><stop offset=".156" stop-color="#29D5BE"/><stop offset=".16" stop-color="#29D4BE"/><stop offset=".164" stop-color="#29D3BE"/><stop offset=".168" stop-color="#28D3BE"/><stop offset=".172" stop-color="#28D2BE"/><stop offset=".176" stop-color="#28D2BE"/><stop offset=".18" stop-color="#28D1BE"/><stop offset=".184" stop-color="#28D1BE"/><stop offset=".188" stop-color="#27D0BE"/><stop offset=".191" stop-color="#27D0BE"/><stop offset=".195" stop-color="#27CFBE"/><stop offset=".199" stop-color="#27CFBE"/><stop offset=".203" stop-color="#27CEBE"/><stop offset=".207" stop-color="#26CEBE"/><stop offset=".211" stop-color="#26CDBE"/><stop offset=".215" stop-color="#26CDBE"/><stop offset=".219" stop-color="#26CCBE"/><stop offset=".223" stop-color="#26CCBE"/><stop offset=".227" stop-color="#25CBBE"/><stop offset=".23" stop-color="#25CABE"/><stop offset=".234" stop-color="#25CABE"/><stop offset=".238" stop-color="#25C9BE"/><stop offset=".242" stop-color="#25C9BE"/><stop offset=".246" stop-color="#24C8BE"/><stop offset=".25" stop-color="#24C8BE"/><stop offset=".254" stop-color="#24C7BE"/><stop offset=".258" stop-color="#24C7BE"/><stop offset=".262" stop-color="#24C6BE"/><stop offset=".266" stop-color="#23C6BE"/><stop offset=".27" stop-color="#23C5BE"/><stop offset=".273" stop-color="#23C5BE"/><stop offset=".277" stop-color="#23C4BE"/><stop offset=".281" stop-color="#23C4BE"/><stop offset=".285" stop-color="#22C3BE"/><stop offset=".289" stop-color="#22C3BE"/><stop offset=".293" stop-color="#22C2BE"/><stop offset=".297" stop-color="#22C1BE"/><stop offset=".301" stop-color="#22C1BE"/><stop offset=".305" stop-color="#22C0BE"/><stop offset=".309" stop-color="#21C0BE"/><stop offset=".313" stop-color="#21BFBE"/><stop offset=".316" stop-color="#21BFBE"/><stop offset=".32" stop-color="#21BEBE"/><stop offset=".324" stop-color="#21BEBE"/><stop offset=".328" stop-color="#20BDBE"/><stop offset=".332" stop-color="#20BDBE"/><stop offset=".336" stop-color="#20BCBE"/><stop offset=".34" stop-color="#20BCBE"/><stop offset=".344" stop-color="#20BBBE"/><stop offset=".348" stop-color="#1FBBBE"/><stop offset=".352" stop-color="#1FBABE"/><stop offset=".355" stop-color="#1FBABE"/><stop offset=".359" stop-color="#1FB9BE"/><stop offset=".363" stop-color="#1FB8BE"/><stop offset=".367" stop-color="#1EB8BE"/><stop offset=".371" stop-color="#1EB7BE"/><stop offset=".375" stop-color="#1EB7BE"/><stop offset=".379" stop-color="#1EB6BE"/><stop offset=".383" stop-color="#1EB6BE"/><stop offset=".387" stop-color="#1DB5BE"/><stop offset=".391" stop-color="#1DB5BE"/><stop offset=".395" stop-color="#1DB4BE"/><stop offset=".398" stop-color="#1DB4BE"/><stop offset=".402" stop-color="#1DB3BE"/><stop offset=".406" stop-color="#1CB3BE"/><stop offset=".41" stop-color="#1CB2BE"/><stop offset=".414" stop-color="#1CB2BE"/><stop offset=".418" stop-color="#1CB1BE"/><stop offset=".422" stop-color="#1CB1BE"/><stop offset=".426" stop-color="#1BB0BE"/><stop offset=".43" stop-color="#1BAFBE"/><stop offset=".434" stop-color="#1BAFBE"/><stop offset=".438" stop-color="#1BAEBE"/><stop offset=".441" stop-color="#1BAEBE"/><stop offset=".445" stop-color="#1AADBE"/><stop offset=".449" stop-color="#1AADBE"/><stop offset=".453" stop-color="#1AACBE"/><stop offset=".457" stop-color="#1AACBE"/><stop offset=".461" stop-color="#1AABBE"/><stop offset=".465" stop-color="#19ABBE"/><stop offset=".469" stop-color="#19AABE"/><stop offset=".473" stop-color="#19AABE"/><stop offset=".477" stop-color="#19A9BE"/><stop offset=".48" stop-color="#19A9BE"/><stop offset=".484" stop-color="#18A8BE"/><stop offset=".488" stop-color="#18A8BE"/><stop offset=".492" stop-color="#18A7BE"/><stop offset=".496" stop-color="#18A6BE"/><stop offset=".5" stop-color="#18A6BE"/><stop offset=".504" stop-color="#17A5BE"/><stop offset=".508" stop-color="#17A5BE"/><stop offset=".512" stop-color="#17A4BE"/><stop offset=".516" stop-color="#17A4BE"/><stop offset=".52" stop-color="#17A3BE"/><stop offset=".523" stop-color="#16A3BE"/><stop offset=".527" stop-color="#16A2BE"/><stop offset=".531" stop-color="#16A2BE"/><stop offset=".535" stop-color="#16A1BE"/><stop offset=".539" stop-color="#16A1BE"/><stop offset=".543" stop-color="#15A0BE"/><stop offset=".547" stop-color="#15A0BE"/><stop offset=".551" stop-color="#159FBE"/><stop offset=".555" stop-color="#159FBE"/><stop offset=".559" stop-color="#159EBF"/><stop offset=".563" stop-color="#149DBF"/><stop offset=".566" stop-color="#149DBF"/><stop offset=".57" stop-color="#149CBF"/><stop offset=".574" stop-color="#149CBF"/><stop offset=".578" stop-color="#149BBF"/><stop offset=".582" stop-color="#139BBF"/><stop offset=".586" stop-color="#139ABF"/><stop offset=".59" stop-color="#139ABF"/><stop offset=".594" stop-color="#1399BF"/><stop offset=".598" stop-color="#1399BF"/><stop offset=".602" stop-color="#1298BF"/><stop offset=".605" stop-color="#1298BF"/><stop offset=".609" stop-color="#1297BF"/><stop offset=".613" stop-color="#1297BF"/><stop offset=".617" stop-color="#1296BF"/><stop offset=".621" stop-color="#1196BF"/><stop offset=".625" stop-color="#1195BF"/><stop offset=".629" stop-color="#1195BF"/><stop offset=".633" stop-color="#1194BF"/><stop offset=".637" stop-color="#1193BF"/><stop offset=".641" stop-color="#1093BF"/><stop offset=".645" stop-color="#1092BF"/><stop offset=".648" stop-color="#1092BF"/><stop offset=".652" stop-color="#1091BF"/><stop offset=".656" stop-color="#1091BF"/><stop offset=".66" stop-color="#0F90BF"/><stop offset=".664" stop-color="#0F90BF"/><stop offset=".668" stop-color="#0F8FBF"/><stop offset=".672" stop-color="#0F8FBF"/><stop offset=".676" stop-color="#0F8EBF"/><stop offset=".68" stop-color="#0E8EBF"/><stop offset=".684" stop-color="#0E8DBF"/><stop offset=".688" stop-color="#0E8DBF"/><stop offset=".691" stop-color="#0E8CBF"/><stop offset=".695" stop-color="#0E8CBF"/><stop offset=".699" stop-color="#0D8BBF"/><stop offset=".703" stop-color="#0D8ABF"/><stop offset=".707" stop-color="#0D8ABF"/><stop offset=".711" stop-color="#0D89BF"/><stop offset=".715" stop-color="#0D89BF"/><stop offset=".719" stop-color="#0C88BF"/><stop offset=".723" stop-color="#0C88BF"/><stop offset=".727" stop-color="#0C87BF"/><stop offset=".73" stop-color="#0C87BF"/><stop offset=".734" stop-color="#0C86BF"/><stop offset=".738" stop-color="#0B86BF"/><stop offset=".742" stop-color="#0B85BF"/><stop offset=".746" stop-color="#0B85BF"/><stop offset=".75" stop-color="#0B84BF"/><stop offset=".754" stop-color="#0B84BF"/><stop offset=".758" stop-color="#0A83BF"/><stop offset=".762" stop-color="#0A83BF"/><stop offset=".766" stop-color="#0A82BF"/><stop offset=".77" stop-color="#0A81BF"/><stop offset=".773" stop-color="#0A81BF"/><stop offset=".777" stop-color="#0A80BF"/><stop offset=".781" stop-color="#0980BF"/><stop offset=".785" stop-color="#097FBF"/><stop offset=".789" stop-color="#097FBF"/><stop offset=".793" stop-color="#097EBF"/><stop offset=".797" stop-color="#097EBF"/><stop offset=".801" stop-color="#087DBF"/><stop offset=".805" stop-color="#087DBF"/><stop offset=".809" stop-color="#087CBF"/><stop offset=".813" stop-color="#087CBF"/><stop offset=".816" stop-color="#087BBF"/><stop offset=".82" stop-color="#077BBF"/><stop offset=".824" stop-color="#077ABF"/><stop offset=".828" stop-color="#077ABF"/><stop offset=".832" stop-color="#0779BF"/><stop offset=".836" stop-color="#0778BF"/><stop offset=".84" stop-color="#0678BF"/><stop offset=".844" stop-color="#0677BF"/><stop offset=".848" stop-color="#0677BF"/><stop offset=".852" stop-color="#0676BF"/><stop offset=".855" stop-color="#0676BF"/><stop offset=".859" stop-color="#0575BF"/><stop offset=".863" stop-color="#0575BF"/><stop offset=".867" stop-color="#0574BF"/><stop offset=".871" stop-color="#0574BF"/><stop offset=".875" stop-color="#0573BF"/><stop offset=".879" stop-color="#0473BF"/><stop offset=".883" stop-color="#0472BF"/><stop offset=".887" stop-color="#0472BF"/><stop offset=".891" stop-color="#0471BF"/><stop offset=".895" stop-color="#0471BF"/><stop offset=".898" stop-color="#0370BF"/><stop offset=".902" stop-color="#036FBF"/><stop offset=".906" stop-color="#036FBF"/><stop offset=".91" stop-color="#036EBF"/><stop offset=".914" stop-color="#036EBF"/><stop offset=".918" stop-color="#026DBF"/><stop offset=".922" stop-color="#026DBF"/><stop offset=".926" stop-color="#026CBF"/><stop offset=".93" stop-color="#026CBF"/><stop offset=".934" stop-color="#026BBF"/><stop offset=".938" stop-color="#016BBF"/><stop offset=".941" stop-color="#016ABF"/><stop offset=".945" stop-color="#016ABF"/><stop offset=".949" stop-color="#0169BF"/><stop offset=".953" stop-color="#0169BF"/><stop offset=".957" stop-color="#0068BF"/><stop offset=".961" stop-color="#0068BF"/><stop offset=".969" stop-color="#0067BF"/><stop offset="1" stop-color="#0067BF"/></linearGradient></defs><g clip-path="url(#a)"><g clip-path="url(#b)"><path fill="url(#c)" d="M1.023 1.813v371.664h371.7V1.813Zm0 0"/></g></g></svg>