<svg xmlns="http://www.w3.org/2000/svg" xmlns:xlink="http://www.w3.org/1999/xlink" width="50" zoomAndPan="magnify" viewBox="0 0 37.5 37.499999" height="50" preserveAspectRatio="xMidYMid meet" version="1.0"><defs><clipPath id="115721934b"><path d="M 0 20 L 6 20 L 6 29.753906 L 0 29.753906 Z M 0 20 " clip-rule="nonzero"/></clipPath><clipPath id="406f3b1131"><path d="M 18 6 L 37.007812 6 L 37.007812 26 L 18 26 Z M 18 6 " clip-rule="nonzero"/></clipPath></defs><g clip-path="url(#115721934b)"><path fill="#455a64" d="M 5.273438 20.746094 C 4.855469 20.542969 4.15625 20.109375 3.097656 20.152344 C 1.71875 20.210938 1.195312 20.695312 1.03125 21 C 0.871094 21.300781 0.941406 23.28125 1.222656 23.730469 C 1.507812 24.183594 2.339844 25.496094 2.339844 25.496094 L 1.265625 26.109375 C 1.199219 26.144531 1.160156 26.21875 1.164062 26.300781 L 1.195312 26.851562 C 1.203125 26.964844 1.296875 27.050781 1.40625 27.042969 L 2.335938 26.988281 L 2.363281 28.976562 C 2.367188 29.101562 2.496094 29.167969 2.59375 29.101562 L 4.101562 28.042969 C 4.140625 28.015625 4.164062 27.972656 4.164062 27.921875 L 4.230469 25.222656 L 4.992188 25.035156 C 5 25.035156 5.691406 20.953125 5.273438 20.746094 " fill-opacity="1" fill-rule="nonzero"/></g><path fill="#546e7a" d="M 1.289062 21.21875 C 1.195312 21.136719 1.132812 21.023438 1.097656 20.902344 C 1.3125 20.601562 1.855469 20.203125 3.097656 20.15625 C 4.15625 20.113281 4.851562 20.546875 5.273438 20.75 C 5.324219 20.773438 5.359375 20.835938 5.390625 20.917969 C 5.378906 20.929688 5.378906 20.941406 5.367188 20.953125 C 5.207031 21.1875 5 21.285156 4.722656 21.269531 C 4.4375 21.253906 4.160156 21.167969 3.875 21.148438 C 3.566406 21.125 3.261719 21.144531 2.960938 21.199219 C 2.886719 21.210938 2.8125 21.226562 2.738281 21.246094 C 2.492188 21.304688 2.253906 21.390625 2 21.414062 C 1.75 21.433594 1.476562 21.390625 1.289062 21.21875 " fill-opacity="1" fill-rule="nonzero"/><path stroke-linecap="round" transform="matrix(-0.289114, 0, 0, 0.289114, 37.006577, -7.253289)" fill="none" stroke-linejoin="miter" d="M 65.227375 58.217246 L 64.795019 65.891558 M 71.564086 58.62258 L 71.145242 65.999647 M 57.566574 65.79698 L 57.836797 61.05458 C 57.944886 59.244091 59.174397 57.838935 60.606575 57.933513 L 80.143643 59.163024 " stroke="#94d1e0" stroke-width="2" stroke-opacity="1" stroke-miterlimit="10"/><path fill="#c9e3e6" d="M 24.691406 17.722656 L 16.625 18.554688 L 16.625 11.789062 L 20.675781 11.789062 Z M 24.691406 17.722656 " fill-opacity="1" fill-rule="nonzero"/><path fill="#94d1e0" d="M 10.25 13.828125 C 10.25 13.828125 9.300781 13.878906 8.753906 13.472656 C 8.207031 13.070312 8.304688 12.441406 8.484375 12.421875 L 16.625 11.789062 L 19.988281 17.292969 L 24.378906 17.253906 L 24.691406 17.722656 L 8.1875 19.886719 Z M 10.25 13.828125 " fill-opacity="1" fill-rule="nonzero"/><path fill="#82aec0" d="M 20.675781 12.78125 L 18.273438 12.78125 L 20.363281 16.285156 L 22.785156 16.285156 Z M 20.675781 12.78125 " fill-opacity="1" fill-rule="nonzero"/><path fill="#2f7889" d="M 14.40625 13.289062 L 15.828125 13.167969 C 16.023438 13.148438 16.214844 13.257812 16.328125 13.457031 L 17.738281 16.039062 C 17.859375 16.261719 17.675781 16.519531 17.429688 16.480469 L 14.421875 15.996094 Z M 13.828125 13.335938 L 13.839844 15.898438 L 11.535156 15.527344 C 11.261719 15.484375 11.058594 15.246094 11.058594 14.96875 L 11.058594 13.574219 Z M 13.828125 13.335938 " fill-opacity="1" fill-rule="nonzero"/><g clip-path="url(#406f3b1131)"><path stroke-linecap="round" transform="matrix(-0.289114, 0, 0, 0.289114, 37.006577, -7.253289)" fill="none" stroke-linejoin="miter" d="M 35.962306 79.983648 L 4.724616 76.416714 M 7.075549 76.889603 C 6.710749 79.294581 6.72426 82.334581 7.45386 84.604448 M 31.841417 79.510759 C 31.638751 82.050848 32.017062 84.374759 32.84124 86.387915 M 19.667905 78.132626 C 19.667905 80.118759 20.005683 82.942581 21.005505 85.198937 " stroke="#94d1e0" stroke-width="2" stroke-opacity="1" stroke-miterlimit="10"/></g><path fill="#c9e3e6" d="M 4.550781 24.386719 L 5.179688 19.910156 C 5.1875 19.84375 5.226562 19.804688 5.292969 19.789062 C 24.921875 16.90625 35.101562 16.976562 35.101562 16.976562 C 35.230469 16.960938 35.328125 17.125 35.273438 17.273438 C 34.867188 18.496094 33.566406 20.695312 31.578125 23.027344 C 28.707031 26.40625 26.496094 27.066406 22.09375 27.433594 L 5.839844 27.371094 L 4.84375 26.289062 L 3.996094 26.273438 C 3.65625 26.265625 3.375 25.921875 3.347656 25.484375 L 3.335938 25.296875 C 3.308594 24.839844 3.574219 24.457031 3.925781 24.429688 Z M 4.550781 24.386719 " fill-opacity="1" fill-rule="nonzero"/><path fill="#82aec0" d="M 24.292969 25.765625 C 27.828125 25.453125 29.234375 25.304688 29.234375 25.304688 C 27.546875 26.84375 25.285156 27.4375 22.101562 27.4375 L 5.847656 27.375 L 5.5 27 L 5.25 26.667969 C 5.914062 26.410156 21.035156 26.058594 24.292969 25.765625 " fill-opacity="1" fill-rule="nonzero"/><path fill="#1565c0" d="M 5 21.164062 C 20.363281 19.347656 34.367188 19.171875 34.367188 19.171875 L 35.070312 17.820312 C 35.070312 17.820312 20.679688 18.421875 5.101562 20.46875 Z M 5 21.164062 " fill-opacity="1" fill-rule="nonzero"/><path fill="#f44336" d="M 4.824219 22.453125 C 18.152344 20.976562 33 21.207031 33 21.207031 L 33.925781 19.886719 C 33.925781 19.886719 21.84375 20.148438 4.925781 21.714844 Z M 4.824219 22.453125 " fill-opacity="1" fill-rule="nonzero"/></svg>