<svg xmlns="http://www.w3.org/2000/svg" xmlns:xlink="http://www.w3.org/1999/xlink" width="50" zoomAndPan="magnify" viewBox="0 0 37.5 37.499999" height="50" preserveAspectRatio="xMidYMid meet" version="1.0"><defs><clipPath id="b743bdcadc"><path d="M 0.0742188 9 L 37.007812 9 L 37.007812 29 L 0.0742188 29 Z M 0.0742188 9 " clip-rule="nonzero"/></clipPath><clipPath id="b52e267fb5"><path d="M 30 10 L 37.007812 10 L 37.007812 13 L 30 13 Z M 30 10 " clip-rule="nonzero"/></clipPath><clipPath id="d9d42e8434"><path d="M 35 16 L 37.007812 16 L 37.007812 20 L 35 20 Z M 35 16 " clip-rule="nonzero"/></clipPath></defs><path fill="#414042" d="M 30.914062 17.511719 L 33.996094 17.511719 L 36.050781 11.34375 L 32.96875 11.34375 Z M 30.914062 17.511719 " fill-opacity="1" fill-rule="nonzero"/><g clip-path="url(#b743bdcadc)"><path fill="#f4900c" d="M 29.886719 13.402344 C 29.886719 13.402344 26.800781 9.289062 25.773438 9.289062 L 16.519531 9.289062 L 10.355469 14.429688 L 4.101562 16.25 C 3.464844 16.472656 2.613281 16.902344 2.5 17.511719 L 0.0742188 27.792969 C -0.0546875 28.457031 0.535156 28.820312 1.101562 28.820312 L 36.050781 28.820312 C 36.1875 28.820312 36.320312 28.792969 36.445312 28.742188 C 36.570312 28.691406 36.683594 28.617188 36.78125 28.519531 C 36.875 28.421875 36.949219 28.3125 37.003906 28.1875 C 37.054688 28.058594 37.082031 27.929688 37.082031 27.792969 L 37.082031 15.457031 C 37.082031 13.402344 29.886719 13.402344 29.886719 13.402344 " fill-opacity="1" fill-rule="nonzero"/></g><path fill="#3b88c3" d="M 16.617188 14.429688 L 11.382812 28.820312 L 23.71875 28.820312 L 28.855469 14.429688 Z M 16.617188 14.429688 " fill-opacity="1" fill-rule="nonzero"/><path fill="#292f33" d="M 12.410156 25.738281 C 12.410156 26.007812 12.382812 26.273438 12.332031 26.539062 C 12.277344 26.804688 12.199219 27.0625 12.097656 27.308594 C 11.992188 27.558594 11.867188 27.796875 11.714844 28.019531 C 11.566406 28.246094 11.394531 28.453125 11.207031 28.644531 C 11.015625 28.835938 10.804688 29.003906 10.582031 29.15625 C 10.359375 29.304688 10.121094 29.433594 9.871094 29.535156 C 9.621094 29.640625 9.363281 29.714844 9.101562 29.769531 C 8.835938 29.820312 8.566406 29.847656 8.296875 29.847656 C 8.027344 29.847656 7.761719 29.820312 7.496094 29.769531 C 7.230469 29.714844 6.972656 29.640625 6.722656 29.535156 C 6.476562 29.433594 6.238281 29.304688 6.011719 29.15625 C 5.789062 29.003906 5.582031 28.835938 5.390625 28.644531 C 5.199219 28.453125 5.027344 28.246094 4.878906 28.019531 C 4.730469 27.796875 4.601562 27.558594 4.5 27.308594 C 4.394531 27.0625 4.316406 26.804688 4.265625 26.539062 C 4.210938 26.273438 4.1875 26.007812 4.1875 25.738281 C 4.1875 25.464844 4.210938 25.199219 4.265625 24.933594 C 4.316406 24.667969 4.394531 24.414062 4.5 24.164062 C 4.601562 23.914062 4.730469 23.675781 4.878906 23.453125 C 5.027344 23.226562 5.199219 23.019531 5.390625 22.828125 C 5.582031 22.636719 5.789062 22.46875 6.011719 22.316406 C 6.238281 22.167969 6.476562 22.042969 6.722656 21.9375 C 6.972656 21.835938 7.230469 21.757812 7.496094 21.703125 C 7.761719 21.652344 8.027344 21.625 8.296875 21.625 C 8.566406 21.625 8.835938 21.652344 9.101562 21.703125 C 9.363281 21.757812 9.621094 21.835938 9.871094 21.9375 C 10.121094 22.042969 10.359375 22.167969 10.582031 22.316406 C 10.804688 22.46875 11.015625 22.636719 11.207031 22.828125 C 11.394531 23.019531 11.566406 23.226562 11.714844 23.453125 C 11.867188 23.675781 11.992188 23.914062 12.097656 24.164062 C 12.199219 24.414062 12.277344 24.667969 12.332031 24.933594 C 12.382812 25.199219 12.410156 25.464844 12.410156 25.738281 Z M 12.410156 25.738281 " fill-opacity="1" fill-rule="nonzero"/><path fill="#58595b" d="M 10.355469 25.738281 C 10.355469 26.007812 10.300781 26.273438 10.195312 26.523438 C 10.09375 26.773438 9.945312 26.996094 9.75 27.191406 C 9.558594 27.382812 9.335938 27.53125 9.085938 27.636719 C 8.832031 27.742188 8.570312 27.792969 8.296875 27.792969 C 8.023438 27.792969 7.761719 27.742188 7.511719 27.636719 C 7.257812 27.53125 7.035156 27.382812 6.84375 27.191406 C 6.652344 26.996094 6.503906 26.773438 6.398438 26.523438 C 6.292969 26.273438 6.242188 26.007812 6.242188 25.738281 C 6.242188 25.464844 6.292969 25.203125 6.398438 24.949219 C 6.503906 24.699219 6.652344 24.476562 6.84375 24.28125 C 7.035156 24.089844 7.257812 23.941406 7.511719 23.835938 C 7.761719 23.734375 8.023438 23.679688 8.296875 23.679688 C 8.570312 23.679688 8.832031 23.734375 9.085938 23.835938 C 9.335938 23.941406 9.558594 24.089844 9.75 24.28125 C 9.945312 24.476562 10.09375 24.699219 10.195312 24.949219 C 10.300781 25.203125 10.355469 25.464844 10.355469 25.738281 Z M 10.355469 25.738281 " fill-opacity="1" fill-rule="nonzero"/><path fill="#292f33" d="M 33.996094 25.738281 C 33.996094 26.007812 33.96875 26.273438 33.917969 26.539062 C 33.863281 26.804688 33.785156 27.0625 33.683594 27.308594 C 33.582031 27.558594 33.453125 27.796875 33.304688 28.019531 C 33.152344 28.246094 32.984375 28.453125 32.792969 28.644531 C 32.601562 28.835938 32.394531 29.003906 32.167969 29.15625 C 31.945312 29.304688 31.707031 29.433594 31.457031 29.535156 C 31.207031 29.640625 30.953125 29.714844 30.6875 29.769531 C 30.421875 29.820312 30.15625 29.847656 29.886719 29.847656 C 29.613281 29.847656 29.347656 29.820312 29.082031 29.769531 C 28.816406 29.714844 28.5625 29.640625 28.3125 29.535156 C 28.0625 29.433594 27.824219 29.304688 27.601562 29.15625 C 27.375 29.003906 27.167969 28.835938 26.976562 28.644531 C 26.785156 28.453125 26.617188 28.246094 26.464844 28.019531 C 26.316406 27.796875 26.1875 27.558594 26.085938 27.308594 C 25.984375 27.0625 25.90625 26.804688 25.851562 26.539062 C 25.800781 26.273438 25.773438 26.007812 25.773438 25.738281 C 25.773438 25.464844 25.800781 25.199219 25.851562 24.933594 C 25.90625 24.667969 25.984375 24.414062 26.085938 24.164062 C 26.1875 23.914062 26.316406 23.675781 26.464844 23.453125 C 26.617188 23.226562 26.785156 23.019531 26.976562 22.828125 C 27.167969 22.636719 27.375 22.46875 27.601562 22.316406 C 27.824219 22.167969 28.0625 22.042969 28.3125 21.9375 C 28.5625 21.835938 28.816406 21.757812 29.082031 21.703125 C 29.347656 21.652344 29.613281 21.625 29.886719 21.625 C 30.15625 21.625 30.421875 21.652344 30.6875 21.703125 C 30.953125 21.757812 31.207031 21.835938 31.457031 21.9375 C 31.707031 22.042969 31.945312 22.167969 32.167969 22.316406 C 32.394531 22.46875 32.601562 22.636719 32.792969 22.828125 C 32.984375 23.019531 33.152344 23.226562 33.304688 23.453125 C 33.453125 23.675781 33.582031 23.914062 33.683594 24.164062 C 33.785156 24.414062 33.863281 24.667969 33.917969 24.933594 C 33.96875 25.199219 33.996094 25.464844 33.996094 25.738281 Z M 33.996094 25.738281 " fill-opacity="1" fill-rule="nonzero"/><path fill="#58595b" d="M 31.941406 25.738281 C 31.941406 26.007812 31.886719 26.273438 31.785156 26.523438 C 31.679688 26.773438 31.53125 26.996094 31.339844 27.191406 C 31.144531 27.382812 30.921875 27.53125 30.671875 27.636719 C 30.417969 27.742188 30.15625 27.792969 29.886719 27.792969 C 29.613281 27.792969 29.351562 27.742188 29.097656 27.636719 C 28.847656 27.53125 28.625 27.382812 28.429688 27.191406 C 28.238281 26.996094 28.089844 26.773438 27.984375 26.523438 C 27.882812 26.273438 27.828125 26.007812 27.828125 25.738281 C 27.828125 25.464844 27.882812 25.203125 27.984375 24.949219 C 28.089844 24.699219 28.238281 24.476562 28.429688 24.28125 C 28.625 24.089844 28.847656 23.941406 29.097656 23.835938 C 29.351562 23.734375 29.613281 23.679688 29.886719 23.679688 C 30.15625 23.679688 30.417969 23.734375 30.671875 23.835938 C 30.921875 23.941406 31.144531 24.089844 31.339844 24.28125 C 31.53125 24.476562 31.679688 24.699219 31.785156 24.949219 C 31.886719 25.203125 31.941406 25.464844 31.941406 25.738281 Z M 31.941406 25.738281 " fill-opacity="1" fill-rule="nonzero"/><path fill="#ffffff" d="M 23.71875 21.109375 C 23.71875 21.589844 23.625 22.046875 23.441406 22.488281 C 23.261719 22.929688 23 23.316406 22.664062 23.65625 C 22.324219 23.992188 21.9375 24.253906 21.496094 24.433594 C 21.054688 24.617188 20.597656 24.707031 20.121094 24.707031 C 19.640625 24.707031 19.183594 24.617188 18.742188 24.433594 C 18.300781 24.253906 17.914062 23.992188 17.574219 23.65625 C 17.238281 23.316406 16.976562 22.929688 16.796875 22.488281 C 16.613281 22.046875 16.519531 21.589844 16.519531 21.109375 C 16.519531 20.632812 16.613281 20.175781 16.796875 19.734375 C 16.976562 19.292969 17.238281 18.902344 17.574219 18.566406 C 17.914062 18.230469 18.300781 17.96875 18.742188 17.785156 C 19.183594 17.605469 19.640625 17.511719 20.121094 17.511719 C 20.597656 17.511719 21.054688 17.605469 21.496094 17.785156 C 21.9375 17.96875 22.324219 18.230469 22.664062 18.566406 C 23 18.902344 23.261719 19.292969 23.441406 19.734375 C 23.625 20.175781 23.71875 20.632812 23.71875 21.109375 Z M 23.71875 21.109375 " fill-opacity="1" fill-rule="nonzero"/><path fill="#231f20" d="M 21.71875 19.816406 C 21.71875 20.269531 21.523438 20.667969 21.128906 20.917969 C 21.644531 21.15625 22.003906 21.636719 22.003906 22.207031 C 22.003906 23.070312 21.214844 23.800781 20.191406 23.800781 C 19.125 23.800781 18.464844 23.011719 18.464844 22.445312 C 18.464844 22.164062 18.757812 21.964844 19.015625 21.964844 C 19.507812 21.964844 19.390625 22.804688 20.207031 22.804688 C 20.390625 22.808594 20.550781 22.742188 20.683594 22.613281 C 20.816406 22.480469 20.882812 22.324219 20.882812 22.136719 C 20.882812 21.128906 19.65625 21.871094 19.65625 21.019531 C 19.65625 20.265625 20.679688 20.777344 20.679688 19.976562 C 20.679688 19.703125 20.488281 19.492188 20.160156 19.492188 C 19.476562 19.492188 19.570312 20.199219 19.082031 20.199219 C 18.785156 20.199219 18.613281 19.933594 18.613281 19.667969 C 18.613281 19.105469 19.382812 18.5 20.183594 18.5 C 21.21875 18.5 21.71875 19.257812 21.71875 19.816406 " fill-opacity="1" fill-rule="nonzero"/><g clip-path="url(#b52e267fb5)"><path fill="#f4900c" d="M 30.914062 12.375 L 31.941406 11.34375 L 37.082031 10.316406 L 37.082031 12.375 Z M 30.914062 12.375 " fill-opacity="1" fill-rule="nonzero"/></g><path fill="#88c9f9" d="M 17.550781 10.316406 L 25.773438 10.316406 L 25.773438 14.429688 L 12.410156 14.429688 Z M 17.550781 10.316406 " fill-opacity="1" fill-rule="nonzero"/><path fill="#ffcc4d" d="M 6.242188 18.539062 C 6.242188 18.675781 6.214844 18.808594 6.164062 18.933594 C 6.113281 19.058594 6.035156 19.171875 5.941406 19.269531 C 5.84375 19.363281 5.734375 19.4375 5.605469 19.492188 C 5.480469 19.542969 5.351562 19.570312 5.214844 19.570312 L 3.15625 19.570312 C 3.023438 19.570312 2.890625 19.542969 2.765625 19.492188 C 2.636719 19.4375 2.527344 19.363281 2.429688 19.269531 C 2.335938 19.171875 2.261719 19.058594 2.207031 18.933594 C 2.15625 18.808594 2.128906 18.675781 2.128906 18.539062 C 2.128906 18.40625 2.15625 18.273438 2.207031 18.148438 C 2.261719 18.023438 2.335938 17.910156 2.429688 17.8125 C 2.527344 17.71875 2.636719 17.644531 2.765625 17.589844 C 2.890625 17.539062 3.023438 17.511719 3.15625 17.511719 L 5.214844 17.511719 C 5.351562 17.511719 5.480469 17.539062 5.605469 17.589844 C 5.734375 17.644531 5.84375 17.71875 5.941406 17.8125 C 6.035156 17.910156 6.113281 18.023438 6.164062 18.148438 C 6.214844 18.273438 6.242188 18.40625 6.242188 18.539062 " fill-opacity="1" fill-rule="nonzero"/><g clip-path="url(#d9d42e8434)"><path fill="#dd2e44" d="M 37.082031 16.484375 L 36.050781 16.484375 C 35.917969 16.484375 35.785156 16.511719 35.660156 16.5625 C 35.535156 16.617188 35.421875 16.691406 35.324219 16.785156 C 35.230469 16.882812 35.15625 16.992188 35.101562 17.121094 C 35.050781 17.246094 35.023438 17.375 35.023438 17.511719 L 35.023438 18.539062 C 35.023438 18.675781 35.050781 18.808594 35.101562 18.933594 C 35.15625 19.058594 35.230469 19.171875 35.324219 19.269531 C 35.421875 19.363281 35.535156 19.4375 35.660156 19.492188 C 35.785156 19.542969 35.917969 19.570312 36.050781 19.570312 L 37.082031 19.570312 Z M 37.082031 16.484375 " fill-opacity="1" fill-rule="nonzero"/></g></svg>