<svg xmlns="http://www.w3.org/2000/svg" xmlns:xlink="http://www.w3.org/1999/xlink" width="50" zoomAndPan="magnify" viewBox="0 0 37.5 37.499999" height="50" preserveAspectRatio="xMidYMid meet" version="1.0"><path fill="#feb804" d="M 13.292969 30.898438 C 13.390625 30.882812 14.886719 30.878906 16.941406 30.878906 L 18.296875 26.394531 L 19.53125 26.71875 L 18.371094 30.878906 C 20.765625 30.878906 23.585938 30.878906 25.832031 30.875 L 24.46875 26.761719 L 25.933594 26.761719 L 27.273438 30.871094 C 28.714844 30.867188 29.710938 30.863281 29.84375 30.851562 C 30.390625 30.804688 31.054688 30.394531 31.328125 30.234375 C 31.601562 30.078125 32.105469 29.433594 32.585938 29.960938 C 33.066406 30.488281 32.238281 31.132812 31.671875 31.492188 C 30.847656 32.019531 29.910156 32.066406 29.363281 32.066406 C 28.8125 32.066406 13.453125 32.089844 13.246094 32.066406 C 13.042969 32.042969 12.765625 31.722656 12.765625 31.492188 C 12.765625 31.265625 12.933594 30.949219 13.292969 30.898438 " fill-opacity="1" fill-rule="nonzero"/><path fill="#5e6367" d="M 6.960938 10.164062 C 7.167969 10.140625 19.328125 9.960938 19.328125 9.960938 C 19.328125 9.960938 19.609375 9.523438 20.367188 9.316406 C 19.753906 9.285156 19.285156 9.238281 19.257812 9.183594 C 19.074219 8.773438 19.964844 8.089844 21.359375 8.066406 C 22.664062 8.046875 23.601562 8.726562 23.484375 9.230469 C 23.46875 9.304688 22.902344 9.339844 22.1875 9.351562 C 22.925781 9.578125 23.257812 10.007812 23.257812 10.007812 C 23.257812 10.007812 35.191406 10.484375 35.535156 10.507812 C 35.878906 10.53125 36.152344 10.644531 36.152344 10.917969 C 36.152344 11.195312 35.992188 11.421875 35.695312 11.421875 C 35.394531 11.421875 24.128906 11.011719 24.128906 11.011719 C 24.128906 11.011719 29.320312 12.476562 29.636719 12.566406 C 29.957031 12.660156 30.367188 12.773438 30.320312 13.046875 C 30.277344 13.324219 29.867188 13.300781 29.613281 13.230469 C 29.363281 13.160156 22.164062 11.378906 22.164062 11.378906 L 22.164062 13.367188 C 22.777344 13.363281 23.28125 13.378906 23.351562 13.433594 C 23.570312 13.601562 23.78125 14.390625 23.878906 15.082031 C 23.992188 15.902344 24.015625 16.773438 24.015625 16.773438 L 20.859375 16.953125 L 19.625 13.433594 C 19.625 13.433594 19.925781 13.417969 20.355469 13.402344 L 20.355469 11.511719 C 20.355469 11.511719 12.65625 13.476562 12.449219 13.523438 C 12.242188 13.570312 11.898438 13.546875 11.875 13.34375 C 11.855469 13.136719 11.898438 12.957031 12.175781 12.839844 C 12.449219 12.722656 18.390625 11.03125 18.390625 11.03125 C 18.390625 11.03125 7.625 11.03125 7.144531 11.007812 C 6.664062 10.984375 6.527344 10.851562 6.527344 10.574219 C 6.527344 10.304688 6.757812 10.1875 6.960938 10.164062 " fill-opacity="1" fill-rule="nonzero"/><path fill="#ffa62d" d="M 32.195312 22.050781 L 32.835938 22.644531 L 33.703125 23.878906 C 33.703125 23.878906 34.136719 25.023438 32.742188 25.894531 C 31.347656 26.761719 29.589844 27.425781 23.507812 27.285156 C 17.429688 27.152344 14.777344 25.984375 13.632812 24.566406 C 12.492188 23.148438 12.398438 21.914062 12.398438 21.914062 L 10.503906 20.085938 L 6.367188 20.15625 C 6.367188 20.15625 4.8125 24.410156 4.765625 24.5 C 4.722656 24.59375 3.648438 24.59375 3.648438 24.59375 L 2.847656 22.328125 C 2.847656 22.328125 2.964844 19.789062 2.894531 19.519531 C 2.824219 19.242188 0.792969 12.890625 0.835938 12.660156 C 0.878906 12.433594 0.925781 12.421875 1.085938 12.410156 C 1.242188 12.398438 1.65625 12.421875 1.65625 12.421875 L 5.820312 16.855469 L 6.148438 17.609375 L 6.980469 17.746094 L 13.042969 17.242188 C 13.042969 17.242188 13.042969 16.722656 13.199219 16.257812 C 13.351562 15.792969 13.757812 15.019531 13.757812 15.019531 L 22.246094 15.570312 L 22.835938 16.488281 L 25.675781 17.957031 Z M 32.195312 22.050781 " fill-opacity="1" fill-rule="nonzero"/><path fill="#ffd61c" d="M 3.976562 12.402344 C 4.035156 12.5 5.816406 16.855469 5.816406 16.855469 L 3.585938 22.625 C 3.585938 22.625 3.613281 22.835938 3.855469 22.890625 C 4.09375 22.941406 4.59375 22.578125 4.59375 22.578125 L 3.816406 24.585938 C 3.816406 24.585938 1.90625 24.585938 1.890625 24.515625 C 1.875 24.449219 3.199219 18.445312 3.199219 18.308594 C 3.199219 18.171875 1.464844 12.355469 1.464844 12.355469 C 1.464844 12.355469 3.929688 12.316406 3.976562 12.402344 M 14.875 17.929688 C 14.875 17.929688 14.011719 18.464844 13.5 19.085938 C 13.042969 19.628906 12.464844 20.546875 12.464844 20.546875 L 10.554688 19.03125 L 6.046875 19.238281 C 6.046875 19.238281 6.089844 18.367188 6.132812 18.171875 C 6.183594 17.914062 6.304688 17.585938 6.304688 17.585938 L 13.054688 17.121094 Z M 22.246094 15.570312 C 22.246094 15.570312 20.816406 15.769531 18.371094 15.914062 C 16.320312 16.039062 14.804688 16.136719 14.167969 15.8125 C 13.730469 15.585938 13.601562 15.347656 13.601562 15.347656 C 13.601562 15.347656 14.234375 13.988281 14.496094 13.832031 C 14.753906 13.675781 17.972656 13.289062 19.625 13.433594 C 21.003906 13.554688 22.246094 15.570312 22.246094 15.570312 M 13.390625 20.515625 C 13.390625 20.515625 16 16.371094 22.570312 16.492188 C 29.140625 16.617188 30.3125 21.550781 30.3125 21.550781 L 27.972656 22.269531 C 27.972656 22.269531 27.847656 22.925781 28.1875 23.011719 C 28.527344 23.09375 31.480469 23.078125 31.917969 23.0625 C 32.691406 23.035156 32.734375 22.496094 32.734375 22.496094 C 32.734375 22.496094 33.15625 22.816406 33.375 23.167969 C 33.59375 23.515625 33.707031 23.878906 33.707031 23.878906 C 33.707031 23.878906 33.492188 24.511719 32.371094 24.992188 C 31.246094 25.472656 28.042969 26.117188 23.503906 26.089844 C 18.96875 26.0625 15.117188 25.003906 14.035156 23.265625 C 12.945312 21.53125 13.390625 20.515625 13.390625 20.515625 M 23.417969 23.007812 C 23.65625 23.195312 25.796875 23.273438 26.136719 22.96875 C 26.40625 22.722656 26.117188 22.199219 26.117188 22.199219 L 25.167969 21.605469 C 25.167969 21.605469 23.222656 21.832031 23.214844 22.148438 C 23.210938 22.421875 23.25 22.875 23.417969 23.007812 M 18.652344 23.113281 C 19.027344 23.234375 20.585938 23.269531 20.925781 23.234375 C 21.265625 23.199219 21.535156 23.207031 21.707031 22.902344 C 21.878906 22.59375 21.773438 22.078125 21.773438 22.078125 L 18.039062 21.375 C 18.039062 21.375 18.035156 21.976562 18.074219 22.367188 C 18.105469 22.710938 18.34375 23.015625 18.652344 23.113281 " fill-opacity="1" fill-rule="nonzero"/><path fill="#5e6367" d="M 24.992188 18.15625 C 25.257812 18.378906 26.28125 22.125 26.117188 22.199219 C 25.953125 22.269531 23.371094 22.289062 23.214844 22.144531 C 23.058594 22.003906 22.710938 18.203125 22.828125 18.085938 C 22.945312 17.972656 24.78125 17.972656 24.992188 18.15625 M 21.441406 18.238281 C 21.574219 18.335938 21.824219 22.132812 21.769531 22.285156 C 21.699219 22.476562 21.011719 22.433594 20 22.433594 C 18.992188 22.433594 18.085938 22.234375 18.019531 21.605469 C 17.941406 20.898438 17.984375 19.753906 18.019531 19.273438 C 18.050781 18.796875 18.546875 18.398438 19.257812 18.265625 C 19.796875 18.171875 21.265625 18.105469 21.441406 18.238281 M 28.332031 23.609375 C 28.472656 23.445312 30.351562 23.539062 30.433594 24.949219 C 30.480469 25.804688 29.421875 26.316406 29.191406 26.304688 C 28.960938 26.289062 28.796875 25.757812 28.5625 25.015625 C 28.367188 24.378906 28.234375 23.726562 28.332031 23.609375 " fill-opacity="1" fill-rule="nonzero"/><path fill="#868686" d="M 32.316406 22.222656 C 32.25 22.484375 28.167969 22.4375 27.972656 22.320312 C 27.808594 22.222656 26.285156 17.378906 26.351562 17.28125 C 26.417969 17.183594 27.941406 17.394531 30.167969 19.261719 C 31.542969 20.414062 32.378906 21.957031 32.316406 22.222656 " fill-opacity="1" fill-rule="nonzero"/><path fill="#c9c7c4" d="M 24.863281 19.910156 C 24.578125 19.992188 24.316406 19.414062 24.054688 19.28125 C 23.792969 19.148438 23.378906 18.953125 23.390625 18.703125 C 23.410156 18.40625 24.238281 18.171875 24.566406 18.441406 C 24.894531 18.707031 25.308594 19.773438 24.863281 19.910156 M 20.976562 18.75 C 21.210938 19 21.277344 20.042969 20.929688 20.109375 C 20.582031 20.175781 20.417969 19.710938 20.121094 19.496094 C 19.820312 19.28125 19.371094 19.144531 19.390625 18.765625 C 19.410156 18.472656 20.566406 18.304688 20.976562 18.75 " fill-opacity="1" fill-rule="nonzero"/><path fill="#c8c8c8" d="M 27.472656 18.171875 C 27.699219 17.96875 28.941406 18.71875 29.820312 19.542969 C 30.644531 20.320312 31.457031 21.351562 31.222656 21.660156 C 30.84375 22.171875 30.03125 20.832031 29.125 20.023438 C 28.6875 19.632812 27.09375 18.519531 27.472656 18.171875 " fill-opacity="1" fill-rule="nonzero"/><path fill="#999a9d" d="M 5.902344 14.582031 C 6.324219 14.671875 5.902344 16.539062 5.757812 17.160156 C 5.613281 17.78125 5.199219 18.671875 5.199219 18.671875 L 4.34375 18.273438 C 4.34375 18.273438 4.613281 16.871094 4.902344 16.058594 C 5.1875 15.246094 5.539062 14.503906 5.902344 14.582031 M 5 19.40625 C 5 19.40625 5.011719 20.074219 4.667969 21.078125 C 4.332031 22.0625 3.890625 22.914062 3.503906 22.792969 C 3.144531 22.679688 3.394531 21.199219 3.570312 20.566406 C 3.746094 19.929688 4.136719 19.125 4.136719 19.125 Z M 5 19.40625 " fill-opacity="1" fill-rule="nonzero"/><path fill="#5e6367" d="M 4.933594 18.09375 C 5.601562 18.34375 5.5625 18.886719 5.414062 19.238281 C 5.308594 19.492188 4.867188 19.851562 4.355469 19.621094 C 3.957031 19.441406 3.707031 19.085938 3.90625 18.539062 C 4.03125 18.183594 4.40625 17.894531 4.933594 18.09375 " fill-opacity="1" fill-rule="nonzero"/></svg>