<svg xmlns="http://www.w3.org/2000/svg" xmlns:xlink="http://www.w3.org/1999/xlink" width="50" zoomAndPan="magnify" viewBox="0 0 37.5 37.499999" height="50" preserveAspectRatio="xMidYMid meet" version="1.0"><path fill="#858585" d="M 22.816406 22.589844 L 23.289062 23.835938 C 23.289062 23.835938 22.566406 24.179688 22.65625 25.214844 C 22.746094 26.246094 23.515625 26.824219 24.175781 26.914062 C 24.992188 27.027344 25.640625 26.207031 25.496094 25.265625 C 25.351562 24.324219 24.703125 23.78125 24.703125 23.78125 L 24.683594 22.695312 Z M 22.816406 22.589844 " fill-opacity="1" fill-rule="nonzero"/><path fill="#00c1e9" d="M 8.289062 7.792969 C 8.304688 7.699219 9.453125 6.664062 10.28125 5.992188 C 11.109375 5.324219 11.597656 4.855469 11.796875 4.863281 C 12.011719 4.867188 12.65625 5.230469 13.101562 5.484375 C 13.488281 5.703125 14.011719 6.042969 14.011719 6.042969 L 13.179688 7.507812 C 13.179688 7.507812 10.230469 11.046875 10.183594 11.015625 C 10.140625 10.984375 8.289062 7.792969 8.289062 7.792969 " fill-opacity="1" fill-rule="nonzero"/><path fill="#0d9abb" d="M 10.296875 10.296875 C 10.296875 10.296875 11.84375 8.402344 12.5625 7.605469 C 13.277344 6.804688 14.011719 6.042969 14.011719 6.042969 C 14.011719 6.042969 14.300781 6.1875 14.285156 6.472656 C 14.269531 6.757812 14.140625 6.980469 13.949219 7.238281 C 13.757812 7.492188 11.097656 10.921875 11.097656 10.921875 Z M 10.296875 10.296875 " fill-opacity="1" fill-rule="nonzero"/><path fill="#00c1e9" d="M 21.765625 12.828125 C 21.765625 12.828125 32.066406 3.363281 32.195312 3.320312 C 32.324219 3.277344 32.773438 3.363281 33.457031 3.578125 C 34.140625 3.789062 35.316406 4.34375 35.296875 4.472656 C 35.273438 4.601562 35.144531 5.285156 35.144531 5.285156 C 35.144531 5.285156 26.949219 18.339844 26.394531 17.613281 C 25.839844 16.886719 21.765625 12.828125 21.765625 12.828125 " fill-opacity="1" fill-rule="nonzero"/><path fill="#0d9abb" d="M 26.785156 16.75 C 26.785156 16.75 34.835938 5.039062 34.957031 4.886719 C 35.136719 4.65625 34.992188 4.378906 34.792969 4.167969 C 34.59375 3.949219 34.433594 3.894531 34.433594 3.894531 C 34.433594 3.894531 35.082031 4.136719 35.371094 4.328125 C 35.695312 4.539062 35.949219 4.777344 35.894531 5.011719 C 35.839844 5.246094 27.5625 17.828125 27.53125 17.757812 C 27.496094 17.683594 26.785156 16.75 26.785156 16.75 " fill-opacity="1" fill-rule="nonzero"/><path fill="#9a9a9a" d="M 4.296875 2.894531 C 4.296875 2.894531 4.046875 2.699219 3.910156 2.863281 C 3.769531 3.03125 5.15625 10.839844 5.15625 10.839844 L 8.476562 13.140625 L 16.203125 20.089844 L 23.371094 22.9375 L 25.046875 23.484375 C 25.046875 23.484375 26.632812 22.40625 26.632812 22.339844 C 26.632812 22.273438 24.984375 17.214844 24.984375 17.214844 L 9.707031 11.507812 Z M 4.296875 2.894531 " fill-opacity="1" fill-rule="nonzero"/><path fill="#c8c8c8" d="M 7.335938 4.46875 C 7.03125 4.136719 4.300781 2.894531 4.300781 2.894531 L 8.480469 11.933594 L 9.027344 12.550781 C 9.027344 12.550781 10.808594 14.347656 12.679688 15.757812 C 14.550781 17.164062 16.128906 17.800781 17.484375 18.515625 C 19.144531 19.386719 20.507812 19.832031 21.589844 20.300781 C 22.910156 20.875 24.066406 21.199219 24.652344 21.980469 C 25.191406 22.699219 25.050781 23.484375 25.050781 23.484375 C 25.050781 23.484375 26.144531 23.984375 27.484375 24.292969 C 28.828125 24.601562 31.753906 24.972656 32.503906 23.214844 C 33.25 21.453125 32.191406 19.648438 29.644531 18.128906 C 27.09375 16.613281 25.925781 16.371094 25.925781 16.371094 L 25.21875 14.414062 C 25.21875 14.414062 23.371094 12.875 22.207031 12.433594 C 21.042969 11.992188 16.136719 11.109375 16.136719 11.109375 L 10.417969 10.429688 C 10.414062 10.429688 7.574219 4.734375 7.335938 4.46875 " fill-opacity="1" fill-rule="nonzero"/><path fill="#e0e0e0" d="M 15.472656 11.421875 C 15.320312 11.714844 15.496094 11.972656 16.949219 12.410156 C 18.3125 12.824219 19.015625 13.113281 19.765625 13.421875 C 20.511719 13.734375 21.566406 14.347656 22.160156 14.523438 C 22.753906 14.699219 23.480469 14.765625 23.898438 14.234375 C 24.148438 13.917969 23.855469 13.332031 22.972656 12.804688 C 22.089844 12.277344 20.925781 11.835938 19.035156 11.484375 C 17.144531 11.136719 15.691406 11.003906 15.472656 11.421875 " fill-opacity="1" fill-rule="nonzero"/><path fill="#00c1e9" d="M 4.992188 10.089844 C 4.820312 10.125 1.277344 14.132812 1.230469 14.28125 C 1.179688 14.433594 1.554688 14.9375 1.554688 14.9375 L 3.566406 15.816406 L 9.464844 11.699219 C 9.460938 11.699219 5.246094 10.039062 4.992188 10.089844 " fill-opacity="1" fill-rule="nonzero"/><path fill="#0d9abb" d="M 1.230469 14.28125 C 1.230469 14.28125 3.230469 15.269531 3.632812 15.222656 C 4.03125 15.171875 9.472656 11.699219 9.472656 11.699219 C 9.472656 11.699219 10.019531 12.074219 9.699219 12.488281 C 9.378906 12.902344 4.269531 16.222656 3.6875 16.183594 C 3.195312 16.152344 1.257812 15.308594 1.160156 15.070312 C 0.953125 14.5625 1.230469 14.28125 1.230469 14.28125 " fill-opacity="1" fill-rule="nonzero"/><path fill="#00c1e9" d="M 15.675781 19.574219 C 15.414062 19.671875 12.945312 22.777344 12.335938 23.511719 C 11.800781 24.15625 5.726562 31.230469 5.546875 31.570312 C 5.363281 31.914062 5.839844 32.34375 5.839844 32.34375 L 9.25 33.707031 L 20.257812 24.660156 L 22.636719 21.53125 C 22.636719 21.53125 21.050781 20.613281 19.117188 20.179688 C 17.183594 19.746094 15.925781 19.484375 15.675781 19.574219 " fill-opacity="1" fill-rule="nonzero"/><path fill="#0d9abb" d="M 22.632812 21.53125 C 22.632812 21.53125 9.664062 33.039062 9.363281 33.113281 C 9.128906 33.171875 7.917969 32.851562 6.914062 32.371094 C 6.058594 31.964844 5.546875 31.570312 5.546875 31.570312 C 5.546875 31.570312 5.183594 31.980469 5.636719 32.617188 C 6.089844 33.253906 8.75 34.367188 9.226562 34.300781 C 9.707031 34.230469 10.476562 33.460938 11.136719 32.914062 C 11.796875 32.367188 23.277344 22.566406 23.277344 22.566406 C 23.277344 22.566406 23.265625 22.207031 23.117188 21.976562 C 22.914062 21.660156 22.632812 21.53125 22.632812 21.53125 " fill-opacity="1" fill-rule="nonzero"/><path fill="#b4ddfa" d="M 16.191406 20.492188 C 15.835938 20.3125 15.425781 20.765625 15.082031 21.210938 C 14.734375 21.65625 7.953125 29.746094 7.730469 30.042969 C 7.507812 30.34375 7.335938 30.664062 7.65625 30.859375 C 7.976562 31.054688 8.300781 30.710938 8.59375 30.339844 C 8.894531 29.96875 15.992188 21.503906 16.191406 21.28125 C 16.394531 21.058594 16.6875 20.742188 16.191406 20.492188 " fill-opacity="1" fill-rule="nonzero"/><path fill="#3b5361" d="M 13.519531 13.488281 C 13.296875 13.394531 13.109375 13.539062 13.09375 13.785156 C 13.078125 14.03125 13.179688 14.96875 13.226562 15.113281 C 13.277344 15.265625 15.292969 16.402344 15.453125 16.402344 C 15.527344 16.402344 15.445312 15.855469 15.402344 15.390625 C 15.339844 14.746094 15.308594 14.289062 15.234375 14.179688 C 15.1875 14.101562 13.710938 13.566406 13.519531 13.488281 M 16.441406 14.546875 C 16.101562 14.433594 16.195312 14.601562 16.203125 14.878906 C 16.207031 15.023438 16.421875 16.6875 16.4375 16.800781 C 16.457031 16.914062 16.460938 17.070312 16.816406 17.238281 C 17.1875 17.421875 18.886719 18.300781 19.050781 18.382812 C 19.210938 18.460938 19.261719 18.21875 19.210938 17.894531 C 19.164062 17.566406 18.941406 15.78125 18.875 15.664062 C 18.8125 15.546875 16.628906 14.613281 16.441406 14.546875 M 20.117188 16.058594 C 19.9375 15.992188 19.828125 16.121094 19.878906 16.359375 C 19.917969 16.539062 20.289062 18.675781 20.320312 18.855469 C 20.351562 19.035156 20.546875 19.183594 20.808594 19.296875 C 21.066406 19.410156 22.699219 20.175781 22.894531 20.210938 C 23.089844 20.242188 23.15625 19.980469 23.042969 19.640625 C 22.929688 19.296875 22.453125 17.75 21.96875 17.113281 C 21.585938 16.605469 20.539062 16.214844 20.117188 16.058594 M 25.015625 14.472656 C 24.875 14.574219 24.683594 14.792969 24.171875 15.257812 C 23.585938 15.796875 22.933594 16.113281 22.957031 16.460938 C 22.976562 16.769531 23.277344 17.367188 23.679688 18.191406 C 24.058594 18.972656 24.425781 19.761719 24.542969 19.9375 C 24.789062 20.296875 25.277344 20.410156 25.652344 20.148438 C 26.027344 19.886719 26.46875 19.5625 26.972656 18.957031 C 27.480469 18.351562 27.628906 17.996094 27.609375 17.488281 C 27.59375 16.984375 25.496094 14.691406 25.398438 14.5625 C 25.296875 14.433594 25.195312 14.34375 25.015625 14.472656 " fill-opacity="1" fill-rule="nonzero"/><path fill="#e1e0df" d="M 31.109375 28.085938 C 31.386719 28.425781 33.726562 27.023438 34.960938 24.871094 C 36.117188 22.859375 36.765625 20.320312 35.992188 20.296875 C 35.21875 20.277344 35.351562 21.714844 35.03125 22.808594 C 34.832031 23.492188 34.359375 24.875 33.050781 26.160156 C 31.757812 27.433594 30.835938 27.746094 31.109375 28.085938 M 33.835938 17.347656 C 33.96875 17.566406 32.164062 17.882812 30.300781 20.410156 C 28.328125 23.085938 28.453125 24.425781 28.441406 24.902344 C 28.417969 25.609375 28.277344 26.273438 27.796875 26.125 C 27.464844 26.019531 27.234375 25.371094 27.664062 23.570312 C 28.089844 21.773438 29.347656 19.664062 30.757812 18.59375 C 32.726562 17.09375 33.707031 17.132812 33.835938 17.347656 " fill-opacity="1" fill-rule="nonzero"/><path fill="#799fae" d="M 32.335938 21.371094 C 32.335938 21.371094 32.660156 20.128906 33.472656 18.996094 C 34.28125 17.863281 35.054688 17.261719 35.355469 17.285156 C 35.65625 17.304688 35.785156 17.515625 35.785156 17.515625 L 33.578125 22.109375 C 33.578125 22.109375 33.742188 22.3125 33.886719 22.546875 C 34.0625 22.839844 33.792969 23.296875 33.792969 23.296875 L 31.800781 23.8125 L 28.824219 28.308594 C 28.824219 28.308594 28.308594 28.21875 28.351562 27.601562 C 28.398438 26.980469 28.84375 25.78125 29.574219 24.859375 C 30.300781 23.9375 31.339844 23.480469 31.339844 23.480469 L 31.5 22.867188 C 31.5 22.867188 31.199219 22.566406 31.394531 22.097656 C 31.648438 21.488281 32.335938 21.371094 32.335938 21.371094 " fill-opacity="1" fill-rule="nonzero"/><path fill="#40717a" d="M 33.027344 21.664062 C 33.027344 21.664062 33.203125 21.792969 33.335938 21.894531 C 33.464844 21.996094 33.601562 22.132812 33.601562 22.132812 C 33.601562 22.132812 34.542969 21.03125 35.074219 19.9375 C 35.554688 18.953125 36.117188 17.707031 35.785156 17.515625 C 35.449219 17.328125 34.3125 18.953125 33.890625 19.75 C 33.464844 20.546875 33.027344 21.664062 33.027344 21.664062 M 31.394531 22.101562 C 31.394531 22.101562 31.636719 22.941406 32.339844 23.140625 C 33.230469 23.390625 33.890625 22.542969 33.890625 22.542969 C 33.890625 22.542969 34.261719 23.101562 34.105469 23.570312 C 33.941406 24.058594 33.015625 24.28125 32.636719 24.296875 C 32.261719 24.3125 31.96875 24.28125 31.96875 24.28125 C 31.96875 24.28125 31.558594 25.609375 30.84375 26.660156 C 30.210938 27.578125 29.160156 28.574219 28.832031 28.3125 C 28.5 28.050781 29.242188 26.765625 29.75 25.972656 C 30.421875 24.925781 31.46875 24.035156 31.46875 24.035156 C 31.46875 24.035156 31.21875 23.707031 31.171875 23.222656 C 31.105469 22.5625 31.394531 22.101562 31.394531 22.101562 " fill-opacity="1" fill-rule="nonzero"/></svg>