<svg xmlns="http://www.w3.org/2000/svg" xmlns:xlink="http://www.w3.org/1999/xlink" width="50" zoomAndPan="magnify" viewBox="0 0 37.5 37.499999" height="50" preserveAspectRatio="xMidYMid meet" version="1.0"><path fill="#356477" d="M 12.839844 11.628906 L 12.679688 4.824219 C 12.671875 4.582031 12.539062 4.375 12.335938 4.308594 C 11.921875 4.175781 11.121094 3.992188 9.929688 4.074219 C 9.046875 4.136719 8.507812 4.304688 8.214844 4.4375 C 8.027344 4.523438 7.910156 4.734375 7.917969 4.96875 L 8.078125 11.78125 Z M 12.839844 11.628906 " fill-opacity="1" fill-rule="nonzero"/><path fill="#f44336" d="M 8.214844 4.4375 C 8.507812 4.304688 9.046875 4.136719 9.929688 4.074219 C 11.121094 3.992188 11.921875 4.175781 12.335938 4.308594 C 12.535156 4.375 12.671875 4.582031 12.679688 4.824219 L 12.722656 6.582031 C 12.695312 6.570312 12.671875 6.550781 12.644531 6.542969 C 12.1875 6.40625 11.3125 6.230469 10.007812 6.316406 C 9.035156 6.382812 8.445312 6.550781 8.121094 6.6875 C 8.0625 6.710938 8.007812 6.75 7.960938 6.796875 L 7.917969 4.964844 C 7.914062 4.734375 8.027344 4.519531 8.214844 4.4375 " fill-opacity="1" fill-rule="nonzero"/><path fill="#356477" d="M 22.335938 9.914062 L 22.148438 1.925781 C 22.140625 1.695312 21.980469 1.5 21.75 1.4375 C 21.273438 1.308594 20.34375 1.136719 18.964844 1.214844 C 17.9375 1.273438 17.316406 1.433594 16.96875 1.5625 C 16.753906 1.640625 16.617188 1.84375 16.625 2.0625 L 16.8125 10.0625 Z M 22.335938 9.914062 " fill-opacity="1" fill-rule="nonzero"/><path fill="#f44336" d="M 16.96875 1.5625 C 17.3125 1.433594 17.933594 1.277344 18.964844 1.214844 C 20.347656 1.136719 21.273438 1.308594 21.75 1.4375 C 21.980469 1.5 22.140625 1.695312 22.148438 1.925781 L 22.195312 3.59375 C 22.164062 3.582031 22.136719 3.5625 22.101562 3.558594 C 21.578125 3.429688 20.558594 3.261719 19.042969 3.34375 C 17.917969 3.402344 17.234375 3.566406 16.859375 3.691406 C 16.789062 3.71875 16.730469 3.753906 16.675781 3.796875 L 16.625 2.058594 C 16.617188 1.84375 16.753906 1.640625 16.96875 1.5625 " fill-opacity="1" fill-rule="nonzero"/><path fill="#ff7555" d="M 11.964844 6.394531 C 11.5625 6.328125 11.03125 6.28125 10.386719 6.304688 L 10.386719 4.058594 C 11.066406 4.042969 11.589844 4.121094 11.964844 4.207031 Z M 21.28125 3.410156 C 20.863281 3.355469 20.335938 3.320312 19.699219 3.324219 L 19.699219 1.195312 C 20.363281 1.199219 20.890625 1.261719 21.28125 1.332031 Z M 21.28125 3.410156 " fill-opacity="1" fill-rule="nonzero"/><path fill="#eeeeee" d="M 21.492188 20.460938 L 21.617188 22.988281 L 32.035156 22.515625 L 31.957031 20.460938 C 31.957031 20.460938 29.621094 17.023438 29.621094 9.949219 L 19.828125 9.367188 C 19.828125 9.367188 19.363281 10.363281 19.710938 13.332031 C 20.296875 18.363281 21.492188 20.460938 21.492188 20.460938 " fill-opacity="1" fill-rule="nonzero"/><path fill="#82aec0" d="M 19.796875 11.789062 L 29.6875 12.027344 C 29.71875 12.445312 29.753906 12.847656 29.796875 13.234375 L 19.851562 13.0625 Z M 19.9375 15.484375 L 30.15625 15.511719 C 30.246094 15.941406 30.34375 16.34375 30.445312 16.71875 L 20.191406 16.71875 Z M 21.304688 19.066406 L 31.238281 19.046875 C 31.484375 19.621094 31.695312 20.023438 31.828125 20.246094 L 21.988281 20.265625 C 21.984375 20.265625 21.453125 19.464844 21.304688 19.066406 " fill-opacity="1" fill-rule="nonzero"/><path fill="#82aec0" d="M 22.023438 20.476562 L 2.261719 22.777344 L 1.925781 18.996094 L 5.273438 18.574219 L 4.667969 11.902344 L 19.789062 9.4375 C 19.675781 16.820312 21.488281 19.601562 22.023438 20.269531 Z M 22.023438 20.476562 " fill-opacity="1" fill-rule="nonzero"/><path fill="#365666" d="M 4.851562 13.890625 L 19.824219 11.777344 C 19.824219 11.777344 19.882812 12.742188 19.917969 13.070312 L 4.957031 15.089844 Z M 5.277344 18.574219 L 5.167969 17.386719 L 20.222656 15.484375 C 20.304688 15.90625 20.386719 16.347656 20.480469 16.710938 Z M 21.304688 19.066406 C 21.578125 19.589844 21.890625 20.066406 22.03125 20.269531 L 22.035156 20.3125 L 2.238281 22.484375 L 2.132812 21.285156 Z M 21.304688 19.066406 " fill-opacity="1" fill-rule="nonzero"/><path fill="#eeeeee" d="M 6.011719 14.949219 L 5.871094 13.746094 L 6.46875 13.660156 L 6.605469 14.867188 L 7.898438 14.691406 L 7.757812 13.476562 L 8.351562 13.394531 L 8.492188 14.609375 L 9.785156 14.4375 L 9.644531 13.210938 L 10.242188 13.128906 L 10.382812 14.355469 L 11.675781 14.179688 L 11.535156 12.945312 L 12.128906 12.859375 L 12.273438 14.097656 L 13.566406 13.925781 L 13.421875 12.679688 L 14.015625 12.597656 L 14.160156 13.847656 L 15.453125 13.671875 L 15.308594 12.414062 L 15.90625 12.332031 L 16.050781 13.589844 L 17.34375 13.417969 L 17.195312 12.148438 L 17.789062 12.0625 L 17.9375 13.335938 L 19.9375 13.066406 C 19.9375 13.066406 19.960938 13.328125 19.96875 13.492188 C 19.972656 13.65625 19.996094 13.96875 19.996094 13.96875 L 5.039062 15.976562 L 4.957031 15.085938 Z M 4.730469 12.570312 L 19.835938 10.273438 L 19.828125 9.363281 L 4.644531 11.660156 Z M 6.320312 18.445312 L 6.195312 17.257812 L 6.789062 17.183594 L 6.914062 18.367188 L 8.207031 18.210938 L 8.082031 17.023438 L 8.675781 16.945312 L 8.804688 18.132812 L 10.097656 17.976562 L 9.96875 16.785156 L 10.566406 16.710938 L 10.691406 17.898438 L 11.984375 17.742188 L 11.859375 16.546875 L 12.453125 16.472656 L 12.578125 17.664062 L 13.871094 17.507812 L 13.746094 16.3125 L 14.34375 16.238281 L 14.46875 17.433594 L 15.761719 17.273438 L 15.636719 16.078125 L 16.230469 16.003906 L 16.355469 17.199219 L 17.648438 17.039062 L 17.523438 15.839844 L 18.128906 15.769531 L 18.261719 16.96875 L 20.476562 16.710938 C 20.476562 16.710938 20.535156 16.921875 20.71875 17.570312 L 2.003906 19.894531 L 1.921875 18.988281 Z M 3.535156 22.324219 L 3.410156 21.136719 L 4.003906 21.070312 L 4.132812 22.257812 L 5.527344 22.09375 L 5.398438 20.90625 L 5.996094 20.835938 L 6.125 22.023438 L 7.515625 21.867188 L 7.386719 20.679688 L 7.984375 20.609375 L 8.113281 21.796875 L 9.507812 21.636719 L 9.378906 20.445312 L 9.976562 20.378906 L 10.105469 21.566406 L 11.496094 21.410156 L 11.367188 20.214844 L 11.964844 20.144531 L 12.097656 21.339844 L 13.488281 21.179688 L 13.359375 19.988281 L 13.957031 19.917969 L 14.085938 21.109375 L 15.480469 20.949219 L 15.347656 19.753906 L 15.949219 19.6875 L 16.078125 20.882812 L 17.46875 20.71875 L 17.339844 19.523438 L 17.9375 19.453125 L 18.066406 20.652344 L 19.460938 20.492188 L 19.332031 19.296875 L 19.929688 19.222656 L 20.058594 20.421875 L 22.035156 20.265625 L 22.230469 23.210938 L 2.472656 25.230469 L 2.234375 22.476562 Z M 3.535156 22.324219 " fill-opacity="1" fill-rule="nonzero"/><path fill="#356477" d="M 35.980469 22.070312 C 35.980469 22.070312 36.617188 22.039062 36.558594 22.667969 C 36.558594 22.667969 37.308594 27.660156 35.234375 31.085938 C 33.238281 34.378906 30.484375 35.613281 29.253906 35.613281 L 5.058594 35.613281 C 3.550781 35.613281 1.984375 34.476562 1.441406 32.789062 C 1.019531 31.464844 0.644531 26.671875 0.566406 25.210938 C 0.554688 24.976562 0.730469 24.773438 0.964844 24.753906 C 0.964844 24.753906 22.875 22.039062 35.980469 22.070312 " fill-opacity="1" fill-rule="nonzero"/><path fill="#f44336" d="M 0.699219 27.175781 C 0.699219 27.175781 23.558594 25.617188 36.667969 25.722656 L 36.671875 24.027344 C 23.496094 23.917969 0.875 26.382812 0.644531 26.398438 Z M 0.699219 27.175781 " fill-opacity="1" fill-rule="nonzero"/><path fill="#82aec0" d="M 32 21.882812 L 32.023438 22.128906 C 21.117188 22.445312 6.988281 24.046875 2.414062 24.585938 L 2.363281 23.984375 C 5.675781 23.59375 13.992188 22.675781 22.449219 22.070312 C 25.703125 21.839844 32 21.882812 32 21.882812 " fill-opacity="1" fill-rule="nonzero"/></svg>