<svg xmlns="http://www.w3.org/2000/svg" xmlns:xlink="http://www.w3.org/1999/xlink" width="50" zoomAndPan="magnify" viewBox="0 0 37.5 37.499999" height="50" preserveAspectRatio="xMidYMid meet" version="1.0"><defs><clipPath id="e15889814f"><path d="M 0 5 L 37.007812 5 L 37.007812 29 L 0 29 Z M 0 5 " clip-rule="nonzero"/></clipPath></defs><path fill="#5e6268" d="M 23.132812 14.59375 L 23.132812 7.035156 C 23.132812 5.863281 23.386719 4.988281 23.730469 4.554688 C 24.078125 4.117188 24.351562 3.910156 24.605469 3.980469 C 24.855469 4.050781 25.59375 4.667969 25.476562 4.945312 C 25.363281 5.222656 24.832031 5.542969 24.695312 6.230469 C 24.554688 6.921875 24.625 7.449219 24.625 7.449219 C 24.625 7.449219 25.0625 7.449219 25.085938 7.796875 C 25.109375 8.140625 25.085938 14.964844 25.085938 14.964844 Z M 23.132812 14.59375 " fill-opacity="1" fill-rule="nonzero"/><g clip-path="url(#e15889814f)"><path fill="#5e6268" d="M 17.085938 5.5625 L 20.6875 16.980469 C 20.6875 16.980469 24.96875 18.945312 25.0625 18.972656 C 25.160156 19.007812 30.019531 19.90625 30.019531 19.90625 L 30.339844 22.800781 L 34.074219 24.507812 C 34.074219 24.507812 33.976562 23.089844 34.167969 22.960938 C 34.359375 22.832031 37.097656 24.023438 37.097656 24.378906 C 37.097656 24.734375 37 27.144531 37 27.273438 C 37 27.402344 34.75 28.527344 34.554688 28.625 C 34.363281 28.71875 22.75 28.976562 22.75 28.976562 C 22.75 28.976562 20.144531 28.882812 18.3125 28.875 C 16.386719 28.871094 12.945312 28.78125 12.945312 28.78125 L 3.164062 20.359375 L 0.527344 20.359375 L 1.195312 18.78125 L 3.898438 17.269531 C 3.898438 17.269531 4.027344 13.765625 4.253906 11.03125 C 4.480469 8.296875 4.609375 6.011719 4.609375 6.011719 Z M 17.085938 5.5625 " fill-opacity="1" fill-rule="nonzero"/></g><path fill="#02ab47" d="M 23.679688 21.964844 C 23.679688 21.964844 23.230469 21.386719 22.554688 21.355469 C 21.878906 21.324219 19.949219 21.257812 19.949219 21.257812 C 19.949219 21.257812 19.722656 18.398438 19.566406 17.238281 C 19.40625 16.082031 19.148438 14.410156 19.148438 14.410156 L 20.882812 12.800781 L 21.914062 14.28125 L 25 15.472656 L 30.019531 17.015625 L 29.664062 20.460938 L 26.734375 20.425781 Z M 23.679688 21.964844 " fill-opacity="1" fill-rule="nonzero"/><path fill="#afe2fb" d="M 21.910156 14.277344 L 19.144531 14.40625 C 19.144531 14.40625 18.5 11.832031 17.726562 9.550781 C 16.953125 7.269531 16.25 5.433594 16.25 5.433594 L 18.953125 6.113281 C 18.953125 6.113281 19.90625 8.34375 20.621094 10.292969 C 21.484375 12.628906 21.996094 14.453125 21.910156 14.277344 " fill-opacity="1" fill-rule="nonzero"/><path fill="#1a1a1a" d="M 23 22.585938 C 23 22.585938 22.699219 22.089844 22.203125 22.050781 C 21.710938 22.011719 20.03125 22.023438 20.03125 22.023438 L 20.03125 24.96875 L 21.515625 24.980469 Z M 23 22.585938 " fill-opacity="1" fill-rule="nonzero"/><path fill="#afe2fb" d="M 17.621094 21.40625 C 17.539062 21.578125 14.980469 21.492188 14.980469 21.492188 L 11.578125 17.601562 L 9.820312 17.007812 C 9.820312 17.007812 9.902344 13.261719 9.992188 10.824219 C 10.078125 8.382812 10.105469 5.40625 10.105469 5.40625 L 14.363281 5.832031 C 14.363281 5.832031 14.816406 6.765625 15.015625 7.335938 C 15.214844 7.902344 15.441406 8.753906 15.441406 8.753906 C 15.441406 8.753906 14.335938 8.640625 14.277344 8.78125 C 14.222656 8.921875 14.988281 12.074219 15.074219 12.132812 C 15.15625 12.1875 16.433594 12.132812 16.433594 12.132812 C 16.433594 12.132812 17.085938 14.34375 17.371094 16.730469 C 17.648438 19.109375 17.707031 21.238281 17.621094 21.40625 " fill-opacity="1" fill-rule="nonzero"/><path fill="#94c7ea" d="M 8.386719 7.339844 C 8.65625 7.339844 8.792969 7.589844 8.746094 8.015625 C 8.699219 8.445312 8.40625 14.882812 8.359375 15.132812 C 8.316406 15.382812 8.246094 15.628906 7.75 15.628906 C 7.253906 15.628906 5.785156 15.605469 5.582031 15.605469 C 5.382812 15.605469 5.175781 15.332031 5.222656 14.859375 C 5.265625 14.382812 5.628906 8.171875 5.652344 7.832031 C 5.675781 7.492188 5.855469 7.378906 6.261719 7.355469 C 6.648438 7.339844 8.183594 7.339844 8.386719 7.339844 " fill-opacity="1" fill-rule="nonzero"/><path fill="#76de88" d="M 32.90625 17.386719 C 32.90625 17.386719 32.703125 16.664062 31.425781 16.085938 C 30.144531 15.503906 28.425781 15.042969 26.585938 14.703125 C 24.746094 14.363281 22.132812 14.289062 21.914062 14.285156 C 21.164062 14.273438 20.742188 14.867188 21.203125 15.027344 C 21.445312 15.109375 22.542969 15.1875 25.363281 15.925781 C 27.628906 16.519531 28.585938 17.265625 28.585938 17.265625 L 30.808594 17.746094 Z M 32.90625 17.386719 " fill-opacity="1" fill-rule="nonzero"/><path fill="#02ab47" d="M 18.945312 6.335938 C 17.699219 6.292969 14.523438 6.292969 11.710938 6.335938 C 8.898438 6.382812 4.914062 6.519531 4.546875 6.519531 C 4.175781 6.519531 3.738281 6.105469 3.785156 5.550781 C 3.832031 5 4.570312 4.746094 5.996094 4.609375 C 6.921875 4.519531 9.199219 4.308594 11.988281 4.261719 C 14.773438 4.21875 17.214844 4.238281 18.347656 4.609375 C 19.25 4.902344 19.636719 5.507812 19.589844 5.941406 C 19.546875 6.378906 19.265625 6.347656 18.945312 6.335938 M 17.03125 24.929688 C 16.972656 25.109375 16.296875 25.183594 16.109375 25.046875 C 15.925781 24.90625 14.8125 22.515625 13.507812 20.78125 C 12.09375 18.90625 11.464844 18.507812 11.246094 18.445312 C 10.863281 18.335938 8.25 17.996094 6.339844 18.113281 C 4.429688 18.226562 2.722656 18.570312 2.007812 19.054688 C 1.292969 19.539062 0.800781 20.34375 0.515625 20.359375 C 0.230469 20.371094 0.4375 18.847656 1.453125 17.972656 C 2.46875 17.097656 4.382812 16.945312 6.296875 16.820312 C 7.730469 16.730469 11.769531 17.019531 12.261719 17.1875 C 12.953125 17.417969 13.738281 18.570312 14.890625 20.460938 C 15.699219 21.796875 17.125 24.65625 17.03125 24.929688 " fill-opacity="1" fill-rule="nonzero"/><path fill="#2c7e33" d="M 32.90625 17.386719 C 32.90625 17.386719 28.667969 17.144531 28.585938 17.265625 C 28.460938 17.449219 28.832031 18.269531 29.128906 19.144531 C 29.429688 20.019531 30.050781 22.53125 30.050781 22.53125 L 33.695312 24.445312 C 33.695312 24.445312 33.484375 20.921875 33.417969 19.882812 C 33.347656 18.84375 33.203125 17.65625 32.90625 17.386719 " fill-opacity="1" fill-rule="nonzero"/><path fill="#868586" d="M 21.984375 28.960938 L 20.648438 28.929688 C 20.648438 28.929688 19.773438 25.136719 23.023438 21.914062 C 25.847656 19.113281 30.039062 19.984375 29.957031 20.554688 C 29.886719 21.039062 25.886719 20.125 23.523438 23.066406 C 21.082031 26.105469 21.984375 28.960938 21.984375 28.960938 " fill-opacity="1" fill-rule="nonzero"/><path fill="#1a1a19" d="M 33.273438 18.492188 C 33.273438 18.492188 31.371094 18.476562 30.277344 18.519531 C 29.742188 18.542969 29.582031 18.679688 29.582031 18.800781 C 29.582031 18.9375 29.710938 19.066406 30.246094 19.113281 C 31.351562 19.203125 33.367188 19.3125 33.367188 19.3125 C 33.367188 19.3125 33.355469 19.089844 33.328125 18.867188 C 33.304688 18.660156 33.273438 18.492188 33.273438 18.492188 M 33.433594 20.144531 C 33.433594 20.144531 32.21875 20.101562 31.125 20.101562 C 30.503906 20.101562 30.277344 20.1875 30.277344 20.359375 C 30.277344 20.511719 30.664062 20.648438 31.113281 20.714844 C 32.210938 20.871094 33.484375 20.972656 33.484375 20.972656 C 33.484375 20.972656 33.472656 20.761719 33.460938 20.550781 C 33.449219 20.34375 33.433594 20.144531 33.433594 20.144531 M 33.535156 21.78125 C 33.535156 21.78125 32.390625 21.722656 31.945312 21.710938 C 31.492188 21.699219 30.976562 21.648438 30.957031 21.828125 C 30.9375 22.011719 31.195312 22.292969 31.667969 22.34375 C 32.023438 22.382812 33.582031 22.535156 33.582031 22.535156 C 33.582031 22.535156 33.578125 22.332031 33.566406 22.152344 C 33.550781 21.964844 33.535156 21.78125 33.535156 21.78125 " fill-opacity="1" fill-rule="nonzero"/><path fill="#302f2f" d="M 0.277344 26.363281 C 0.277344 30.519531 3.65625 33.894531 7.820312 33.894531 C 11.984375 33.894531 15.375 30.519531 15.359375 26.363281 C 15.335938 22.1875 11.996094 18.730469 7.851562 18.746094 C 3.6875 18.761719 0.277344 22.199219 0.277344 26.363281 M 22.464844 27.609375 C 22.464844 31.039062 25.148438 33.800781 28.601562 33.800781 C 32.058594 33.800781 34.816406 30.925781 34.816406 27.492188 C 34.816406 24.058594 32.058594 21.257812 28.601562 21.371094 C 25.023438 21.496094 22.464844 24.179688 22.464844 27.609375 " fill-opacity="1" fill-rule="nonzero"/><path fill="#f3790e" d="M 25.179688 27.683594 C 25.179688 29.527344 26.34375 31.117188 28.640625 31.117188 C 30.746094 31.117188 32.007812 29.542969 32.121094 27.972656 C 32.265625 25.902344 30.878906 24.179688 28.765625 24.164062 C 26.472656 24.144531 25.179688 25.796875 25.179688 27.683594 " fill-opacity="1" fill-rule="nonzero"/><path fill="#fe8f01" d="M 26.191406 27.679688 C 26.191406 29.082031 27.320312 30.207031 28.726562 30.207031 C 29.96875 30.207031 31.1875 29.132812 31.1875 27.722656 C 31.1875 26.320312 30.089844 25.152344 28.683594 25.152344 C 27.28125 25.152344 26.191406 26.273438 26.191406 27.679688 " fill-opacity="1" fill-rule="nonzero"/><path fill="#fcb900" d="M 27.234375 27.648438 C 27.234375 27.839844 27.273438 28.023438 27.34375 28.203125 C 27.417969 28.378906 27.523438 28.535156 27.660156 28.667969 C 27.792969 28.804688 27.949219 28.910156 28.128906 28.984375 C 28.304688 29.054688 28.488281 29.09375 28.679688 29.09375 C 28.871094 29.09375 29.058594 29.054688 29.234375 28.984375 C 29.410156 28.910156 29.566406 28.804688 29.703125 28.667969 C 29.839844 28.535156 29.945312 28.378906 30.015625 28.203125 C 30.089844 28.023438 30.128906 27.839844 30.128906 27.648438 C 30.128906 27.457031 30.089844 27.273438 30.015625 27.097656 C 29.945312 26.921875 29.839844 26.765625 29.703125 26.628906 C 29.566406 26.492188 29.410156 26.390625 29.234375 26.316406 C 29.058594 26.242188 28.871094 26.207031 28.679688 26.207031 C 28.488281 26.207031 28.304688 26.242188 28.128906 26.316406 C 27.949219 26.390625 27.792969 26.492188 27.660156 26.628906 C 27.523438 26.765625 27.417969 26.921875 27.34375 27.097656 C 27.273438 27.273438 27.234375 27.457031 27.234375 27.648438 Z M 27.234375 27.648438 " fill-opacity="1" fill-rule="nonzero"/><path fill="#f3790e" d="M 3.269531 26.617188 C 3.269531 28.992188 4.839844 31.117188 7.753906 31.132812 C 10.386719 31.148438 12.097656 29.019531 12.242188 26.992188 C 12.433594 24.328125 10.636719 22.105469 7.902344 22.082031 C 4.941406 22.0625 3.269531 24.191406 3.269531 26.617188 " fill-opacity="1" fill-rule="nonzero"/><path fill="#fe8f01" d="M 4.578125 26.613281 C 4.578125 28.425781 6.039062 29.875 7.855469 29.875 C 9.460938 29.875 11.039062 28.484375 11.039062 26.675781 C 11.039062 24.863281 9.613281 23.363281 7.800781 23.363281 C 5.984375 23.363281 4.578125 24.804688 4.578125 26.613281 " fill-opacity="1" fill-rule="nonzero"/><path fill="#fcb900" d="M 5.925781 26.578125 C 5.925781 27.605469 6.765625 28.480469 7.792969 28.441406 C 8.898438 28.394531 9.660156 27.605469 9.660156 26.578125 C 9.660156 25.550781 8.824219 24.71875 7.792969 24.71875 C 6.761719 24.71875 5.925781 25.550781 5.925781 26.578125 " fill-opacity="1" fill-rule="nonzero"/><path fill="#8e736e" d="M 24.90625 22.617188 C 24.90625 22.617188 25.539062 23.53125 25.539062 23.597656 C 25.539062 23.625 25.269531 23.789062 25.050781 24 C 24.8125 24.226562 24.621094 24.503906 24.59375 24.511719 C 24.539062 24.523438 23.65625 23.875 23.65625 23.875 C 23.65625 23.875 23.921875 23.484375 24.226562 23.179688 C 24.4375 22.972656 24.664062 22.785156 24.90625 22.617188 M 22.9375 25.144531 C 22.9375 25.144531 23.890625 25.582031 23.90625 25.636719 C 23.921875 25.691406 23.8125 26 23.734375 26.304688 C 23.652344 26.625 23.664062 26.941406 23.613281 26.980469 C 23.558594 27.019531 22.496094 26.964844 22.496094 26.964844 C 22.496094 26.964844 22.496094 26.394531 22.605469 26.019531 C 22.691406 25.71875 22.804688 25.425781 22.9375 25.144531 M 22.5 28.3125 C 22.5 28.3125 23.527344 28.109375 23.542969 28.140625 C 23.558594 28.171875 23.664062 28.648438 23.730469 28.847656 C 23.792969 29.050781 23.921875 29.382812 23.914062 29.429688 C 23.910156 29.472656 22.894531 29.9375 22.894531 29.9375 C 22.894531 29.9375 22.753906 29.578125 22.652344 29.1875 C 22.550781 28.800781 22.5 28.3125 22.5 28.3125 M 23.636719 31.285156 C 23.636719 31.285156 24.480469 30.554688 24.527344 30.558594 C 24.578125 30.566406 24.839844 30.894531 25.015625 31.078125 C 25.191406 31.265625 25.488281 31.527344 25.496094 31.5625 C 25.507812 31.589844 24.820312 32.515625 24.820312 32.515625 C 24.820312 32.515625 24.402344 32.21875 24.140625 31.914062 C 23.878906 31.613281 23.636719 31.285156 23.636719 31.285156 M 26.058594 33.261719 C 26.058594 33.261719 26.460938 32.171875 26.496094 32.15625 C 26.523438 32.144531 26.816406 32.28125 27.203125 32.390625 C 27.582031 32.5 27.828125 32.515625 27.859375 32.542969 C 27.886719 32.570312 27.832031 33.757812 27.832031 33.757812 C 27.832031 33.757812 27.542969 33.746094 26.96875 33.597656 C 26.433594 33.457031 26.058594 33.261719 26.058594 33.261719 M 30.574219 32.199219 C 30.609375 32.207031 31.15625 33.261719 31.15625 33.261719 C 31.15625 33.261719 30.859375 33.40625 30.3125 33.574219 C 29.765625 33.746094 29.355469 33.765625 29.355469 33.765625 C 29.355469 33.765625 29.226562 32.585938 29.28125 32.539062 C 29.320312 32.503906 29.609375 32.511719 29.933594 32.421875 C 30.285156 32.328125 30.539062 32.1875 30.574219 32.199219 M 32.667969 30.597656 C 32.691406 30.582031 33.617188 31.210938 33.617188 31.210938 C 33.617188 31.210938 33.289062 31.679688 33.042969 31.917969 C 32.804688 32.160156 32.375 32.511719 32.375 32.511719 C 32.375 32.511719 31.695312 31.605469 31.695312 31.570312 C 31.695312 31.535156 32.03125 31.289062 32.214844 31.113281 C 32.453125 30.882812 32.632812 30.613281 32.667969 30.597656 M 33.671875 28.113281 C 33.699219 28.089844 34.789062 28.113281 34.789062 28.113281 C 34.789062 28.113281 34.738281 28.695312 34.648438 29.066406 C 34.539062 29.542969 34.308594 30.003906 34.308594 30.003906 C 34.308594 30.003906 33.320312 29.492188 33.292969 29.457031 C 33.265625 29.421875 33.441406 29.085938 33.515625 28.804688 C 33.617188 28.4375 33.671875 28.113281 33.671875 28.113281 M 34.800781 26.992188 L 33.679688 27.066406 C 33.679688 27.066406 33.628906 26.664062 33.574219 26.421875 C 33.519531 26.183594 33.359375 25.789062 33.375 25.75 C 33.394531 25.714844 34.394531 25.203125 34.394531 25.203125 C 34.394531 25.203125 34.59375 25.75 34.679688 26.144531 C 34.773438 26.539062 34.800781 26.992188 34.800781 26.992188 M 33.601562 23.742188 C 33.601562 23.742188 32.722656 24.566406 32.6875 24.578125 C 32.648438 24.585938 32.445312 24.300781 32.164062 24.027344 C 31.867188 23.742188 31.578125 23.542969 31.566406 23.5 C 31.550781 23.429688 32.265625 22.472656 32.265625 22.472656 C 32.265625 22.472656 32.648438 22.703125 33.007812 23.0625 C 33.367188 23.421875 33.601562 23.742188 33.601562 23.742188 M 31.011719 21.792969 C 31.011719 21.792969 30.546875 22.847656 30.519531 22.867188 C 30.492188 22.882812 30.167969 22.71875 29.882812 22.652344 C 29.449219 22.550781 29.195312 22.566406 29.160156 22.53125 C 29.125 22.496094 29.222656 21.378906 29.222656 21.378906 C 29.222656 21.378906 29.652344 21.351562 30.171875 21.488281 C 30.691406 21.625 31.011719 21.792969 31.011719 21.792969 M 27.859375 21.425781 C 27.859375 21.425781 27.976562 22.5 27.960938 22.542969 C 27.941406 22.589844 27.519531 22.644531 27.226562 22.734375 C 26.929688 22.824219 26.667969 22.941406 26.601562 22.941406 C 26.539062 22.941406 26.042969 21.953125 26.042969 21.953125 C 26.042969 21.953125 26.550781 21.703125 26.910156 21.605469 C 27.457031 21.453125 27.859375 21.425781 27.859375 21.425781 M 9.484375 18.925781 C 9.484375 18.925781 9.140625 20.1875 9.09375 20.238281 C 9.050781 20.289062 8.765625 20.214844 8.21875 20.167969 C 7.683594 20.125 7.382812 20.164062 7.367188 20.144531 C 7.347656 20.125 7.1875 18.75 7.1875 18.75 C 7.1875 18.75 7.539062 18.683594 8.390625 18.738281 C 9.128906 18.785156 9.484375 18.925781 9.484375 18.925781 M 5.242188 19.183594 C 5.242188 19.183594 5.664062 20.292969 5.65625 20.335938 C 5.644531 20.382812 5.089844 20.605469 4.855469 20.761719 C 4.621094 20.914062 4.226562 21.195312 4.191406 21.210938 C 4.15625 21.230469 3.328125 20.25 3.328125 20.25 C 3.328125 20.25 3.6875 19.964844 4.253906 19.640625 C 4.847656 19.292969 5.242188 19.183594 5.242188 19.183594 M 2.105469 21.417969 C 2.105469 21.417969 2.894531 22.253906 2.902344 22.316406 C 2.914062 22.382812 2.59375 22.726562 2.46875 22.933594 C 2.339844 23.140625 2.136719 23.609375 2.101562 23.621094 C 2.066406 23.628906 0.957031 23.21875 0.957031 23.21875 C 0.957031 23.21875 1.191406 22.597656 1.460938 22.191406 C 1.730469 21.785156 2.105469 21.417969 2.105469 21.417969 M 0.4375 24.746094 C 0.4375 24.746094 1.671875 25.042969 1.699219 25.078125 C 1.726562 25.113281 1.652344 25.574219 1.625 25.996094 C 1.605469 26.34375 1.652344 26.832031 1.636719 26.875 C 1.617188 26.921875 0.292969 27.046875 0.292969 27.046875 C 0.292969 27.046875 0.222656 26.578125 0.257812 25.949219 C 0.292969 25.320312 0.4375 24.746094 0.4375 24.746094 M 0.617188 28.65625 C 0.617188 28.65625 1.847656 28.222656 1.894531 28.234375 C 1.9375 28.242188 2.082031 28.648438 2.246094 28.941406 C 2.40625 29.238281 2.640625 29.589844 2.632812 29.632812 C 2.625 29.679688 1.5 30.46875 1.5 30.46875 C 1.5 30.46875 1.183594 30.074219 0.96875 29.617188 C 0.75 29.160156 0.617188 28.65625 0.617188 28.65625 M 2.664062 31.855469 C 2.664062 31.855469 3.664062 30.859375 3.699219 30.886719 C 3.738281 30.914062 4.0625 31.222656 4.320312 31.410156 C 4.582031 31.601562 5.019531 31.851562 5.058594 31.878906 C 5.117188 31.925781 4.519531 33.144531 4.519531 33.144531 C 4.519531 33.144531 4.085938 32.984375 3.503906 32.574219 C 2.917969 32.15625 2.664062 31.855469 2.664062 31.855469 M 8.253906 33.882812 L 7.972656 32.53125 C 7.972656 32.53125 7.492188 32.554688 7.160156 32.527344 C 6.847656 32.503906 6.4375 32.378906 6.390625 32.40625 C 6.347656 32.433594 5.976562 33.683594 5.976562 33.683594 C 5.976562 33.683594 6.585938 33.855469 7.191406 33.898438 C 7.796875 33.945312 8.253906 33.882812 8.253906 33.882812 M 10.773438 31.851562 C 10.808594 31.855469 11.507812 32.933594 11.507812 32.933594 C 11.507812 32.933594 11.207031 33.136719 10.644531 33.371094 C 10.085938 33.605469 9.558594 33.691406 9.558594 33.691406 L 9.25 32.425781 C 9.25 32.425781 9.71875 32.308594 10.070312 32.183594 C 10.421875 32.058594 10.726562 31.839844 10.773438 31.851562 M 13.183594 29.554688 C 13.214844 29.535156 14.34375 30.167969 14.34375 30.167969 C 14.34375 30.167969 14.039062 30.679688 13.714844 31.078125 C 13.390625 31.472656 12.992188 31.84375 12.992188 31.84375 C 12.992188 31.84375 12.140625 30.90625 12.140625 30.878906 C 12.140625 30.851562 12.519531 30.480469 12.761719 30.1875 C 13.003906 29.890625 13.148438 29.582031 13.183594 29.554688 M 15.144531 28.226562 C 15.144531 28.226562 13.875 27.972656 13.859375 27.945312 C 13.839844 27.917969 13.9375 27.441406 13.976562 27.15625 C 14.011719 26.867188 14.011719 26.382812 14.019531 26.347656 C 14.027344 26.3125 15.359375 26.273438 15.359375 26.273438 C 15.359375 26.273438 15.394531 26.785156 15.347656 27.175781 C 15.289062 27.738281 15.144531 28.226562 15.144531 28.226562 M 15.089844 24.328125 C 15.089844 24.328125 13.757812 24.644531 13.730469 24.644531 C 13.703125 24.644531 13.632812 24.320312 13.46875 23.980469 C 13.308594 23.636719 13.074219 23.308594 13.089844 23.269531 C 13.109375 23.234375 14.261719 22.382812 14.261719 22.382812 C 14.261719 22.382812 14.59375 22.878906 14.800781 23.414062 C 15.007812 23.953125 15.089844 24.328125 15.089844 24.328125 M 12.976562 20.796875 C 12.976562 20.796875 11.976562 21.714844 11.933594 21.714844 C 11.886719 21.714844 11.5625 21.476562 11.25 21.25 C 10.9375 21.023438 10.570312 20.816406 10.570312 20.789062 C 10.570312 20.761719 11.21875 19.542969 11.21875 19.542969 C 11.21875 19.542969 11.796875 19.808594 12.195312 20.109375 C 12.644531 20.453125 12.976562 20.796875 12.976562 20.796875 " fill-opacity="1" fill-rule="nonzero"/></svg>