<svg xmlns="http://www.w3.org/2000/svg" xmlns:xlink="http://www.w3.org/1999/xlink" width="50" zoomAndPan="magnify" viewBox="0 0 37.5 37.499999" height="50" preserveAspectRatio="xMidYMid meet" version="1.0"><defs><clipPath id="1ebb1a0e09"><path d="M 0 35 L 37.007812 35 L 37.007812 37.007812 L 0 37.007812 Z M 0 35 " clip-rule="nonzero"/></clipPath><clipPath id="d9b6dc39bf"><path d="M 1 0.09375 L 36 0.09375 L 36 3 L 1 3 Z M 1 0.09375 " clip-rule="nonzero"/></clipPath><clipPath id="168bff7a69"><path d="M 12 0.09375 L 24 0.09375 L 24 12 L 12 12 Z M 12 0.09375 " clip-rule="nonzero"/></clipPath><clipPath id="f83a142ce0"><path d="M 0 10 L 37.007812 10 L 37.007812 33 L 0 33 Z M 0 10 " clip-rule="nonzero"/></clipPath><clipPath id="56ce551aba"><path d="M 0 14 L 37.007812 14 L 37.007812 29 L 0 29 Z M 0 14 " clip-rule="nonzero"/></clipPath><clipPath id="42a9756337"><path d="M 0 14 L 37.007812 14 L 37.007812 31 L 0 31 Z M 0 14 " clip-rule="nonzero"/></clipPath><clipPath id="9c6d1bbefe"><path d="M 0 16 L 37.007812 16 L 37.007812 27 L 0 27 Z M 0 16 " clip-rule="nonzero"/></clipPath><clipPath id="8ba2566640"><path d="M 0 28 L 37.007812 28 L 37.007812 31 L 0 31 Z M 0 28 " clip-rule="nonzero"/></clipPath></defs><g clip-path="url(#1ebb1a0e09)"><path fill="#939598" d="M 0 35.042969 L 37.007812 35.042969 L 37.007812 37.097656 L 0 37.097656 Z M 0 35.042969 " fill-opacity="1" fill-rule="nonzero"/></g><path fill="#58595b" d="M 10.28125 32.988281 C 10.28125 32.578125 10.203125 32.183594 10.042969 31.808594 C 9.886719 31.429688 9.664062 31.097656 9.375 30.808594 C 9.085938 30.519531 8.753906 30.296875 8.375 30.136719 C 8 29.980469 7.605469 29.902344 7.195312 29.902344 C 6.785156 29.902344 6.394531 29.980469 6.015625 30.136719 C 5.636719 30.296875 5.304688 30.519531 5.015625 30.808594 C 4.726562 31.097656 4.503906 31.429688 4.347656 31.808594 C 4.191406 32.183594 4.113281 32.578125 4.113281 32.988281 C 4.113281 33.398438 4.191406 33.789062 4.347656 34.167969 C 4.503906 34.546875 4.726562 34.878906 5.015625 35.167969 C 5.304688 35.457031 5.636719 35.679688 6.015625 35.835938 C 6.394531 35.992188 6.785156 36.070312 7.195312 36.070312 C 7.605469 36.070312 8 35.992188 8.375 35.835938 C 8.753906 35.679688 9.085938 35.457031 9.375 35.167969 C 9.664062 34.878906 9.886719 34.546875 10.042969 34.167969 C 10.203125 33.789062 10.28125 33.398438 10.28125 32.988281 " fill-opacity="1" fill-rule="nonzero"/><path fill="#292f33" d="M 9.25 32.988281 C 9.25 32.714844 9.199219 32.453125 9.09375 32.199219 C 8.992188 31.949219 8.84375 31.726562 8.648438 31.535156 C 8.457031 31.339844 8.234375 31.191406 7.984375 31.089844 C 7.730469 30.984375 7.46875 30.933594 7.195312 30.933594 C 6.921875 30.933594 6.660156 30.984375 6.410156 31.089844 C 6.15625 31.191406 5.933594 31.339844 5.742188 31.535156 C 5.550781 31.726562 5.402344 31.949219 5.296875 32.199219 C 5.191406 32.453125 5.140625 32.714844 5.140625 32.988281 C 5.140625 33.261719 5.191406 33.523438 5.296875 33.773438 C 5.402344 34.027344 5.550781 34.25 5.742188 34.441406 C 5.933594 34.632812 6.15625 34.78125 6.410156 34.886719 C 6.660156 34.992188 6.921875 35.042969 7.195312 35.042969 C 7.46875 35.042969 7.730469 34.992188 7.984375 34.886719 C 8.234375 34.78125 8.457031 34.632812 8.648438 34.441406 C 8.84375 34.25 8.992188 34.027344 9.09375 33.773438 C 9.199219 33.523438 9.25 33.261719 9.25 32.988281 " fill-opacity="1" fill-rule="nonzero"/><path fill="#58595b" d="M 32.894531 32.988281 C 32.894531 33.398438 32.816406 33.789062 32.660156 34.167969 C 32.503906 34.546875 32.28125 34.878906 31.992188 35.167969 C 31.703125 35.457031 31.367188 35.679688 30.992188 35.835938 C 30.613281 35.992188 30.21875 36.070312 29.8125 36.070312 C 29.402344 36.070312 29.007812 35.992188 28.628906 35.835938 C 28.253906 35.679688 27.917969 35.457031 27.628906 35.167969 C 27.339844 34.878906 27.117188 34.546875 26.960938 34.167969 C 26.804688 33.789062 26.726562 33.398438 26.726562 32.988281 C 26.726562 32.578125 26.804688 32.183594 26.960938 31.808594 C 27.117188 31.429688 27.339844 31.097656 27.628906 30.808594 C 27.917969 30.519531 28.253906 30.296875 28.628906 30.136719 C 29.007812 29.980469 29.402344 29.902344 29.8125 29.902344 C 30.21875 29.902344 30.613281 29.980469 30.992188 30.136719 C 31.367188 30.296875 31.703125 30.519531 31.992188 30.808594 C 32.28125 31.097656 32.503906 31.429688 32.660156 31.808594 C 32.816406 32.183594 32.894531 32.578125 32.894531 32.988281 Z M 32.894531 32.988281 " fill-opacity="1" fill-rule="nonzero"/><path fill="#292f33" d="M 31.867188 32.988281 C 31.867188 33.261719 31.816406 33.523438 31.710938 33.773438 C 31.605469 34.027344 31.457031 34.25 31.265625 34.441406 C 31.070312 34.632812 30.847656 34.78125 30.597656 34.886719 C 30.347656 34.992188 30.082031 35.042969 29.8125 35.042969 C 29.539062 35.042969 29.277344 34.992188 29.023438 34.886719 C 28.773438 34.78125 28.550781 34.632812 28.355469 34.441406 C 28.164062 34.25 28.015625 34.027344 27.910156 33.773438 C 27.808594 33.523438 27.753906 33.261719 27.753906 32.988281 C 27.753906 32.714844 27.808594 32.453125 27.910156 32.199219 C 28.015625 31.949219 28.164062 31.726562 28.355469 31.535156 C 28.550781 31.339844 28.773438 31.191406 29.023438 31.089844 C 29.277344 30.984375 29.539062 30.933594 29.8125 30.933594 C 30.082031 30.933594 30.347656 30.984375 30.597656 31.089844 C 30.847656 31.191406 31.070312 31.339844 31.265625 31.535156 C 31.457031 31.726562 31.605469 31.949219 31.710938 32.199219 C 31.816406 32.453125 31.867188 32.714844 31.867188 32.988281 Z M 31.867188 32.988281 " fill-opacity="1" fill-rule="nonzero"/><g clip-path="url(#d9b6dc39bf)"><path fill="#e6e7e8" d="M 34.949219 2.148438 L 2.054688 2.148438 C 1.917969 2.148438 1.789062 2.121094 1.664062 2.070312 C 1.535156 2.019531 1.425781 1.945312 1.328125 1.847656 C 1.234375 1.75 1.160156 1.640625 1.105469 1.515625 C 1.054688 1.386719 1.027344 1.257812 1.027344 1.121094 C 1.027344 0.984375 1.054688 0.851562 1.105469 0.726562 C 1.160156 0.601562 1.234375 0.492188 1.328125 0.394531 C 1.425781 0.296875 1.535156 0.222656 1.664062 0.171875 C 1.789062 0.117188 1.917969 0.09375 2.054688 0.09375 L 34.949219 0.09375 C 35.085938 0.09375 35.21875 0.117188 35.34375 0.171875 C 35.46875 0.222656 35.582031 0.296875 35.675781 0.394531 C 35.773438 0.492188 35.847656 0.601562 35.898438 0.726562 C 35.953125 0.851562 35.980469 0.984375 35.980469 1.121094 C 35.980469 1.257812 35.953125 1.386719 35.898438 1.515625 C 35.847656 1.640625 35.773438 1.75 35.675781 1.847656 C 35.582031 1.945312 35.46875 2.019531 35.34375 2.070312 C 35.21875 2.121094 35.085938 2.148438 34.949219 2.148438 " fill-opacity="1" fill-rule="nonzero"/></g><g clip-path="url(#168bff7a69)"><path fill="#66757f" d="M 23.640625 5.175781 C 23.625 4.871094 23.496094 4.621094 23.257812 4.429688 L 19.472656 1.402344 C 19.578125 1.066406 19.523438 0.757812 19.304688 0.476562 C 19.144531 0.28125 18.9375 0.160156 18.6875 0.117188 C 18.4375 0.0742188 18.207031 0.121094 17.988281 0.25 C 17.769531 0.121094 17.539062 0.0742188 17.289062 0.117188 C 17.039062 0.160156 16.832031 0.28125 16.671875 0.476562 C 16.453125 0.757812 16.398438 1.066406 16.503906 1.402344 L 12.71875 4.429688 C 12.605469 4.519531 12.515625 4.628906 12.449219 4.761719 C 12.382812 4.890625 12.34375 5.027344 12.335938 5.175781 C 12.328125 5.320312 12.347656 5.460938 12.402344 5.597656 C 12.453125 5.734375 12.53125 5.855469 12.632812 5.957031 L 16.578125 9.898438 C 16.535156 9.976562 16.503906 10.058594 16.480469 10.144531 C 16.460938 10.230469 16.453125 10.316406 16.453125 10.40625 C 16.453125 10.496094 16.46875 10.582031 16.492188 10.664062 C 16.515625 10.75 16.550781 10.832031 16.597656 10.90625 C 16.640625 10.984375 16.695312 11.050781 16.761719 11.113281 C 16.824219 11.175781 16.894531 11.226562 16.96875 11.269531 C 17.046875 11.3125 17.128906 11.347656 17.214844 11.367188 C 17.300781 11.390625 17.386719 11.402344 17.476562 11.402344 C 17.660156 11.394531 17.832031 11.339844 17.988281 11.242188 C 18.148438 11.335938 18.324219 11.402344 18.503906 11.402344 C 18.589844 11.402344 18.679688 11.390625 18.761719 11.367188 C 18.847656 11.34375 18.929688 11.3125 19.007812 11.269531 C 19.082031 11.226562 19.152344 11.175781 19.214844 11.113281 C 19.28125 11.050781 19.332031 10.980469 19.378906 10.90625 C 19.425781 10.832031 19.457031 10.75 19.484375 10.667969 C 19.507812 10.582031 19.519531 10.496094 19.523438 10.40625 C 19.523438 10.320312 19.515625 10.230469 19.492188 10.144531 C 19.472656 10.0625 19.441406 9.980469 19.398438 9.902344 L 23.34375 5.960938 C 23.558594 5.742188 23.660156 5.480469 23.640625 5.175781 M 17.988281 8.402344 L 14.902344 5.316406 L 17.988281 2.847656 L 21.078125 5.316406 Z M 17.988281 8.402344 " fill-opacity="1" fill-rule="nonzero"/></g><path fill="#bcbec0" d="M 30.839844 10.371094 C 30.839844 10.644531 30.785156 10.90625 30.683594 11.160156 C 30.578125 11.410156 30.429688 11.632812 30.238281 11.828125 C 30.042969 12.019531 29.820312 12.167969 29.570312 12.273438 C 29.316406 12.375 29.054688 12.429688 28.78125 12.429688 L 8.222656 12.429688 C 7.949219 12.429688 7.6875 12.375 7.4375 12.273438 C 7.183594 12.167969 6.960938 12.019531 6.769531 11.828125 C 6.578125 11.632812 6.429688 11.410156 6.324219 11.160156 C 6.21875 10.90625 6.167969 10.644531 6.167969 10.371094 C 6.167969 10.101562 6.21875 9.835938 6.324219 9.585938 C 6.429688 9.332031 6.578125 9.113281 6.769531 8.917969 C 6.960938 8.726562 7.183594 8.578125 7.4375 8.472656 C 7.6875 8.367188 7.949219 8.316406 8.222656 8.316406 L 28.78125 8.316406 C 29.054688 8.316406 29.316406 8.367188 29.570312 8.472656 C 29.820312 8.578125 30.042969 8.726562 30.238281 8.917969 C 30.429688 9.113281 30.578125 9.332031 30.683594 9.585938 C 30.785156 9.835938 30.839844 10.101562 30.839844 10.371094 " fill-opacity="1" fill-rule="nonzero"/><g clip-path="url(#f83a142ce0)"><path fill="#e6e7e8" d="M 37.007812 22.707031 C 37.007812 22.976562 36.980469 23.246094 36.925781 23.511719 C 36.875 23.773438 36.796875 24.03125 36.695312 24.28125 C 36.589844 24.53125 36.464844 24.769531 36.3125 24.992188 C 36.164062 25.21875 35.992188 25.425781 35.800781 25.617188 C 35.613281 25.804688 35.402344 25.976562 35.179688 26.125 C 34.953125 26.277344 34.71875 26.402344 34.46875 26.507812 C 34.21875 26.609375 33.960938 26.6875 33.695312 26.742188 C 33.433594 26.792969 33.164062 26.820312 32.894531 26.820312 L 4.113281 26.820312 C 3.84375 26.820312 3.574219 26.792969 3.308594 26.742188 C 3.042969 26.6875 2.789062 26.609375 2.539062 26.507812 C 2.289062 26.402344 2.050781 26.277344 1.828125 26.125 C 1.601562 25.976562 1.394531 25.804688 1.203125 25.617188 C 1.011719 25.425781 0.84375 25.21875 0.691406 24.992188 C 0.542969 24.769531 0.417969 24.53125 0.3125 24.28125 C 0.210938 24.03125 0.132812 23.773438 0.078125 23.511719 C 0.0273438 23.246094 0 22.976562 0 22.707031 L 0 14.484375 C 0 14.214844 0.0273438 13.945312 0.078125 13.683594 C 0.132812 13.417969 0.210938 13.160156 0.3125 12.910156 C 0.417969 12.660156 0.542969 12.425781 0.691406 12.199219 C 0.84375 11.976562 1.011719 11.769531 1.203125 11.578125 C 1.394531 11.386719 1.601562 11.214844 1.828125 11.066406 C 2.050781 10.914062 2.289062 10.789062 2.539062 10.683594 C 2.789062 10.582031 3.042969 10.503906 3.308594 10.453125 C 3.574219 10.398438 3.84375 10.371094 4.113281 10.371094 L 32.894531 10.371094 C 33.164062 10.371094 33.433594 10.398438 33.695312 10.453125 C 33.960938 10.503906 34.21875 10.582031 34.46875 10.683594 C 34.71875 10.789062 34.953125 10.914062 35.179688 11.066406 C 35.402344 11.214844 35.613281 11.386719 35.800781 11.578125 C 35.992188 11.769531 36.164062 11.976562 36.3125 12.199219 C 36.464844 12.425781 36.589844 12.660156 36.695312 12.910156 C 36.796875 13.160156 36.875 13.417969 36.925781 13.683594 C 36.980469 13.945312 37.007812 14.214844 37.007812 14.484375 Z M 0 28.875 L 37.007812 28.875 L 37.007812 32.988281 L 0 32.988281 Z M 0 28.875 " fill-opacity="1" fill-rule="nonzero"/></g><g clip-path="url(#56ce551aba)"><path fill="#be1931" d="M 0 14.484375 L 37.007812 14.484375 L 37.007812 28.875 L 0 28.875 Z M 0 14.484375 " fill-opacity="1" fill-rule="nonzero"/></g><g clip-path="url(#42a9756337)"><path fill="#dd2e44" d="M 37.007812 14.484375 L 0 14.484375 L 0 24.765625 L 6.167969 24.765625 L 6.167969 30.933594 L 13.363281 30.933594 L 13.363281 24.765625 L 23.644531 24.765625 L 23.644531 30.933594 L 30.839844 30.933594 L 30.839844 24.765625 L 37.007812 24.765625 Z M 37.007812 14.484375 " fill-opacity="1" fill-rule="nonzero"/></g><g clip-path="url(#9c6d1bbefe)"><path fill="#55acee" d="M 2.054688 16.539062 L 0 16.539062 L 0 26.820312 L 2.054688 26.820312 C 2.328125 26.820312 2.589844 26.769531 2.84375 26.664062 C 3.09375 26.558594 3.316406 26.410156 3.507812 26.21875 C 3.703125 26.023438 3.851562 25.800781 3.957031 25.550781 C 4.058594 25.296875 4.113281 25.035156 4.113281 24.765625 L 4.113281 18.597656 C 4.113281 18.324219 4.058594 18.0625 3.957031 17.808594 C 3.851562 17.558594 3.703125 17.335938 3.507812 17.140625 C 3.316406 16.949219 3.09375 16.800781 2.84375 16.695312 C 2.589844 16.59375 2.328125 16.539062 2.054688 16.539062 M 37.007812 16.539062 L 34.949219 16.539062 C 34.679688 16.539062 34.414062 16.59375 34.164062 16.695312 C 33.910156 16.800781 33.691406 16.949219 33.496094 17.140625 C 33.304688 17.335938 33.15625 17.558594 33.050781 17.808594 C 32.945312 18.0625 32.894531 18.324219 32.894531 18.597656 L 32.894531 24.765625 C 32.894531 25.035156 32.945312 25.296875 33.050781 25.550781 C 33.15625 25.800781 33.304688 26.023438 33.496094 26.21875 C 33.691406 26.410156 33.910156 26.558594 34.164062 26.664062 C 34.414062 26.769531 34.679688 26.820312 34.949219 26.820312 L 37.007812 26.820312 Z M 21.585938 22.707031 C 21.585938 22.84375 21.5625 22.976562 21.507812 23.101562 C 21.457031 23.226562 21.382812 23.339844 21.285156 23.433594 C 21.191406 23.53125 21.078125 23.605469 20.953125 23.65625 C 20.828125 23.710938 20.695312 23.734375 20.558594 23.734375 L 16.449219 23.734375 C 16.3125 23.734375 16.179688 23.710938 16.054688 23.65625 C 15.929688 23.605469 15.816406 23.53125 15.71875 23.433594 C 15.625 23.339844 15.550781 23.226562 15.496094 23.101562 C 15.445312 22.976562 15.417969 22.84375 15.417969 22.707031 L 15.417969 18.597656 C 15.417969 18.460938 15.445312 18.328125 15.496094 18.203125 C 15.550781 18.078125 15.625 17.964844 15.71875 17.871094 C 15.816406 17.773438 15.929688 17.699219 16.054688 17.644531 C 16.179688 17.59375 16.3125 17.566406 16.449219 17.566406 L 20.558594 17.566406 C 20.695312 17.566406 20.828125 17.59375 20.953125 17.644531 C 21.078125 17.699219 21.191406 17.773438 21.285156 17.871094 C 21.382812 17.964844 21.457031 18.078125 21.507812 18.203125 C 21.5625 18.328125 21.585938 18.460938 21.585938 18.597656 Z M 12.335938 23.734375 C 12.335938 23.871094 12.308594 24.003906 12.257812 24.128906 C 12.207031 24.253906 12.128906 24.367188 12.035156 24.460938 C 11.9375 24.558594 11.828125 24.632812 11.699219 24.6875 C 11.574219 24.738281 11.445312 24.765625 11.308594 24.765625 L 8.222656 24.765625 C 8.085938 24.765625 7.957031 24.738281 7.832031 24.6875 C 7.703125 24.632812 7.59375 24.558594 7.496094 24.460938 C 7.402344 24.367188 7.324219 24.253906 7.273438 24.128906 C 7.222656 24.003906 7.195312 23.871094 7.195312 23.734375 L 7.195312 18.597656 C 7.195312 18.460938 7.222656 18.328125 7.273438 18.203125 C 7.324219 18.078125 7.402344 17.964844 7.496094 17.871094 C 7.59375 17.773438 7.703125 17.699219 7.832031 17.644531 C 7.957031 17.59375 8.085938 17.566406 8.222656 17.566406 L 11.308594 17.566406 C 11.445312 17.566406 11.574219 17.59375 11.699219 17.644531 C 11.828125 17.699219 11.9375 17.773438 12.035156 17.871094 C 12.128906 17.964844 12.207031 18.078125 12.257812 18.203125 C 12.308594 18.328125 12.335938 18.460938 12.335938 18.597656 Z M 29.8125 23.734375 C 29.8125 23.871094 29.785156 24.003906 29.734375 24.128906 C 29.679688 24.253906 29.605469 24.367188 29.511719 24.460938 C 29.414062 24.558594 29.300781 24.632812 29.175781 24.6875 C 29.050781 24.738281 28.917969 24.765625 28.78125 24.765625 L 25.699219 24.765625 C 25.5625 24.765625 25.429688 24.738281 25.304688 24.6875 C 25.179688 24.632812 25.070312 24.558594 24.972656 24.460938 C 24.875 24.367188 24.800781 24.253906 24.75 24.128906 C 24.695312 24.003906 24.671875 23.871094 24.671875 23.734375 L 24.671875 18.597656 C 24.671875 18.460938 24.695312 18.328125 24.75 18.203125 C 24.800781 18.078125 24.875 17.964844 24.972656 17.871094 C 25.070312 17.773438 25.179688 17.699219 25.304688 17.644531 C 25.429688 17.59375 25.5625 17.566406 25.699219 17.566406 L 28.78125 17.566406 C 28.917969 17.566406 29.050781 17.59375 29.175781 17.644531 C 29.300781 17.699219 29.414062 17.773438 29.511719 17.871094 C 29.605469 17.964844 29.679688 18.078125 29.734375 18.203125 C 29.785156 18.328125 29.8125 18.460938 29.8125 18.597656 Z M 29.8125 23.734375 " fill-opacity="1" fill-rule="nonzero"/></g><g clip-path="url(#8ba2566640)"><path fill="#a0041e" d="M 0 28.875 L 37.007812 28.875 L 37.007812 30.933594 L 0 30.933594 Z M 0 28.875 " fill-opacity="1" fill-rule="nonzero"/></g></svg>