<svg xmlns="http://www.w3.org/2000/svg" xmlns:xlink="http://www.w3.org/1999/xlink" width="50" zoomAndPan="magnify" viewBox="0 0 37.5 37.499999" height="50" preserveAspectRatio="xMidYMid meet" version="1.0"><path fill="#3e717a" d="M 23.339844 10.628906 C 23.339844 10.628906 23.257812 10.085938 23.210938 9.71875 C 23.160156 9.355469 23.0625 8.140625 22.429688 8.070312 C 21.796875 7.996094 14.386719 8.070312 13.800781 8.070312 C 13.214844 8.070312 13.066406 8.703125 13.019531 9.042969 C 12.96875 9.382812 12.835938 10.707031 12.890625 10.707031 C 13.089844 10.707031 23.339844 10.628906 23.339844 10.628906 " fill-opacity="1" fill-rule="nonzero"/><path fill="#6ba4ab" d="M 25.261719 10.261719 C 25.261719 10.261719 25.601562 9.605469 25.84375 9.460938 C 26.085938 9.3125 31.914062 8.886719 33.515625 11.351562 C 35.121094 13.820312 35.484375 18.3125 35.636719 20.292969 C 35.785156 22.273438 35.785156 23.582031 35.785156 23.582031 L 16.019531 24.4375 L 0.808594 23.65625 L 0.988281 15.9375 C 1.027344 14.328125 1.074219 11.660156 1.929688 10.988281 C 2.789062 10.320312 3.3125 10.464844 4.808594 10.429688 C 6.300781 10.390625 25.261719 10.261719 25.261719 10.261719 " fill-opacity="1" fill-rule="nonzero"/><path fill="#e0e0e0" d="M 35.78125 23.28125 L 0.773438 23.410156 C 0.773438 23.410156 0.644531 27.941406 0.644531 28.359375 C 0.644531 28.777344 0.773438 29.265625 1.421875 29.296875 C 2.070312 29.332031 29.765625 29.523438 29.765625 29.523438 L 35.652344 29.230469 C 35.652344 29.230469 36.332031 28.972656 36.496094 28.390625 C 36.65625 27.808594 36.300781 24.769531 36.300781 24.769531 Z M 35.78125 23.28125 " fill-opacity="1" fill-rule="nonzero"/><path fill="#ff8d02" d="M 36.507812 26.867188 C 36.507812 26.867188 35.605469 26.945312 35.449219 26.691406 C 35.152344 26.207031 35.019531 23.976562 35.253906 23.722656 C 35.40625 23.558594 35.925781 23.628906 35.925781 23.628906 C 35.925781 23.628906 36.242188 24.316406 36.386719 25.207031 C 36.542969 26.164062 36.507812 26.867188 36.507812 26.867188 " fill-opacity="1" fill-rule="nonzero"/><path fill="#868486" d="M 27.773438 29.527344 C 27.773438 29.527344 27.660156 28.476562 27.851562 27.539062 C 28.050781 26.605469 28.765625 24.527344 31.695312 24.488281 C 34.394531 24.453125 35.429688 26.617188 35.621094 27.691406 C 35.789062 28.621094 35.648438 29.230469 35.648438 29.230469 C 35.648438 29.230469 34.292969 29.449219 31.753906 29.546875 C 29.210938 29.644531 27.773438 29.527344 27.773438 29.527344 M 12.210938 29.410156 C 12.210938 29.410156 12.175781 27.601562 11.710938 26.679688 C 11.074219 25.40625 10.085938 24.640625 8.207031 24.640625 C 6.332031 24.640625 5.175781 25.742188 4.738281 26.507812 C 3.988281 27.828125 4.230469 29.3125 4.230469 29.3125 Z M 12.210938 29.410156 " fill-opacity="1" fill-rule="nonzero"/><path fill="#4e433d" d="M 35.144531 28.917969 C 35.125 30.234375 34.070312 32.136719 31.78125 32.152344 C 29.488281 32.167969 28.296875 30.410156 28.371094 28.613281 C 28.441406 26.785156 29.867188 25.492188 31.910156 25.554688 C 33.828125 25.605469 35.171875 27.085938 35.144531 28.917969 " fill-opacity="1" fill-rule="nonzero"/><path fill="#b2b1b2" d="M 33.550781 28.804688 C 33.539062 29.5 32.976562 30.5 31.746094 30.511719 C 30.511719 30.519531 29.917969 29.644531 29.957031 28.699219 C 29.996094 27.734375 30.78125 27.015625 31.8125 27.027344 C 32.839844 27.046875 33.566406 27.839844 33.550781 28.804688 " fill-opacity="1" fill-rule="nonzero"/><path fill="#4e433d" d="M 11.515625 28.941406 C 11.496094 30.25 10.464844 32.136719 8.222656 32.148438 C 5.980469 32.164062 4.816406 30.421875 4.886719 28.636719 C 4.957031 26.824219 6.347656 25.542969 8.351562 25.601562 C 10.222656 25.652344 11.542969 27.125 11.515625 28.941406 " fill-opacity="1" fill-rule="nonzero"/><path fill="#b2b1b2" d="M 10.019531 28.835938 C 10.007812 29.53125 9.441406 30.535156 8.210938 30.542969 C 6.980469 30.550781 6.382812 29.675781 6.421875 28.730469 C 6.460938 27.765625 7.25 27.046875 8.28125 27.0625 C 9.308594 27.074219 10.03125 27.871094 10.019531 28.835938 " fill-opacity="1" fill-rule="nonzero"/><path fill="#454c52" d="M 21.6875 21.882812 C 21.6875 21.882812 3.988281 21.917969 3.4375 21.882812 C 2.886719 21.847656 2.160156 21.054688 2.125 19.914062 C 2.089844 18.773438 2.265625 13.96875 2.332031 13.417969 C 2.402344 12.867188 2.742188 11.757812 4.441406 11.757812 C 5.789062 11.757812 30.5 11.621094 31.125 11.621094 C 31.746094 11.621094 32.671875 11.988281 33.085938 12.988281 C 33.5 13.988281 34.261719 15.828125 34.441406 17.90625 C 34.628906 20.039062 34.613281 21.191406 34.472656 21.746094 C 34.335938 22.296875 34.195312 22.917969 32.917969 22.917969 L 26.941406 22.917969 L 26.867188 29.492188 L 21.6875 29.46875 Z M 21.6875 21.882812 " fill-opacity="1" fill-rule="nonzero"/><path fill="#ff2a23" d="M 0.8125 23.113281 C 0.8125 23.113281 1.539062 22.992188 1.71875 23.390625 C 1.902344 23.785156 1.941406 26.433594 1.667969 26.550781 C 1.394531 26.664062 0.691406 26.574219 0.691406 26.574219 C 0.691406 26.574219 0.667969 25.527344 0.722656 24.769531 C 0.796875 23.757812 0.8125 23.113281 0.8125 23.113281 " fill-opacity="1" fill-rule="nonzero"/><path fill="#454c52" d="M 2.640625 23.402344 L 4.621094 23.390625 C 4.820312 23.390625 4.980469 23.222656 4.980469 23.023438 C 4.980469 22.824219 4.816406 22.667969 4.617188 22.667969 L 4.613281 22.667969 L 2.636719 22.679688 C 2.4375 22.679688 2.273438 22.84375 2.277344 23.042969 C 2.28125 23.238281 2.441406 23.402344 2.640625 23.402344 M 2.664062 24.703125 L 4.644531 24.691406 C 4.84375 24.691406 5.007812 24.527344 5.003906 24.328125 C 5.003906 24.128906 4.84375 23.96875 4.644531 23.96875 L 4.640625 23.96875 L 2.664062 23.980469 C 2.464844 23.980469 2.300781 24.148438 2.304688 24.347656 C 2.304688 24.542969 2.464844 24.703125 2.664062 24.703125 M 2.675781 26.015625 C 2.679688 26.015625 2.679688 26.015625 2.675781 26.015625 L 4.65625 26.003906 C 4.855469 26.003906 5.019531 25.839844 5.015625 25.636719 C 5.015625 25.4375 4.855469 25.28125 4.65625 25.28125 L 4.652344 25.28125 L 2.675781 25.292969 C 2.476562 25.292969 2.3125 25.457031 2.316406 25.65625 C 2.320312 25.855469 2.480469 26.015625 2.675781 26.015625 " fill-opacity="1" fill-rule="nonzero"/><path fill="#afe3fb" d="M 27.019531 13.351562 C 27.019531 13.351562 31.363281 13.351562 31.714844 13.378906 C 32.0625 13.402344 32.402344 13.832031 32.703125 14.878906 C 33.023438 15.980469 33.589844 18.070312 33.457031 20.667969 C 33.429688 21.152344 32.972656 21.285156 32.597656 21.285156 L 26.996094 21.285156 Z M 27.019531 13.351562 " fill-opacity="1" fill-rule="nonzero"/><path fill="#868486" d="M 31.738281 18.796875 L 31.820312 22.171875 C 31.820312 22.171875 30.398438 22.441406 30.15625 22.066406 C 29.917969 21.6875 29.914062 19.332031 30.101562 19.035156 C 30.476562 18.445312 31.738281 18.796875 31.738281 18.796875 " fill-opacity="1" fill-rule="nonzero"/><path fill="#afe3fb" d="M 26.003906 14.183594 L 22.570312 14.183594 L 22.570312 28.554688 L 25.972656 28.554688 Z M 21.5 20.132812 L 21.5 13.40625 L 12.652344 13.40625 L 12.652344 20.109375 Z M 11.578125 13.433594 L 11.578125 20.082031 L 4.179688 20.082031 C 3.433594 20.082031 3.15625 19.632812 3.078125 18.828125 C 2.996094 18.027344 3.085938 14.984375 3.160156 14.425781 C 3.242188 13.8125 3.640625 13.5 4.34375 13.46875 C 5.085938 13.433594 11.550781 13.40625 11.578125 13.433594 " fill-opacity="1" fill-rule="nonzero"/></svg>