<svg xmlns="http://www.w3.org/2000/svg" width="500" height="500" version="1.0" viewBox="0 0 375 375"><defs><clipPath id="a"><path d="M59 1h256v373H59Zm0 0"/></clipPath><clipPath id="b"><path d="m-.176-1.152 376.5.656-.656 376.5-376.5-.66Zm0 0"/></clipPath><clipPath id="c"><path d="m-47.355-47.75 469.5.82-.82 469.5-469.5-.82Zm0 0"/></clipPath><clipPath id="d"><path d="M40 20h294v41H40Zm0 0"/></clipPath><clipPath id="e"><path d="m-.176-1.152 376.5.656-.656 376.5-376.5-.66Zm0 0"/></clipPath><clipPath id="f"><path d="m-47.355-47.75 469.5.82-.82 469.5-469.5-.82Zm0 0"/></clipPath><clipPath id="g"><path d="M114 144h146v146H114Zm0 0"/></clipPath><clipPath id="h"><path d="m-.176-1.152 376.5.656-.656 376.5-376.5-.66Zm0 0"/></clipPath><clipPath id="i"><path d="m-47.355-47.75 469.5.82-.82 469.5-469.5-.82Zm0 0"/></clipPath></defs><g clip-path="url(#a)"><g clip-path="url(#b)"><g clip-path="url(#c)"><path fill="#ff3d00" d="m285.02 60.426-58.586-58.79-78.25-.136-58.79 58.582-29.343-.05-.48 273.874c-.036 21.52 17.538 39.156 39.058 39.196l176.062.304c21.516.04 39.157-17.535 39.192-39.054l.48-273.875Zm0 0"/></g></g></g><g clip-path="url(#d)"><g clip-path="url(#e)"><g clip-path="url(#f)"><path fill="#ff6e40" d="m60.117 20.906 254.313.446c10.757.02 19.547 8.836 19.527 19.597l-.031 19.563L40.488 60l.032-19.562c.02-10.762 8.84-19.551 19.597-19.532m0 0"/></g></g></g><g clip-path="url(#g)"><g clip-path="url(#h)"><g fill="#fafafa" clip-path="url(#i)"><path d="m114.336 261.48 117.582-117.175 27.617 27.715-117.582 117.175Zm0 0"/><path d="m114.492 171.777 27.711-27.62L259.38 261.737l-27.711 27.617Zm0 0"/></g></g></g></svg>