<svg xmlns="http://www.w3.org/2000/svg" width="500" height="500" version="1.0" viewBox="0 0 375 375"><defs><clipPath id="a"><path d="M154 93h110v126H154Zm0 0"/></clipPath><clipPath id="b"><path d="M178.203 93.645a23.6 23.6 0 0 1 4.559.449q1.125.227 2.226.558a23.7 23.7 0 0 1 4.235 1.754 23.37 23.37 0 0 1 3.809 2.547q.89.728 1.702 1.54t1.54 1.702q.726.885 1.367 1.84.636.955 1.18 1.969.54 1.014.98 2.074c.293.707.55 1.43.773 2.16a23.366 23.366 0 0 1 1.008 6.785v54.551h38.965a23.6 23.6 0 0 1 4.558.45c.75.152 1.493.335 2.227.558a23.7 23.7 0 0 1 4.234 1.754q1.013.543 1.97 1.18.955.639 1.839 1.367c.594.484 1.16 1 1.703 1.539q.811.814 1.54 1.703.726.885 1.366 1.84.637.955 1.18 1.969.541 1.013.98 2.074c.293.707.551 1.43.774 2.16a23.366 23.366 0 0 1 .895 9.078 23.4 23.4 0 0 1-1.668 6.656 24 24 0 0 1-.98 2.075 24 24 0 0 1-1.18 1.968 23 23 0 0 1-1.368 1.84c-.484.594-1 1.16-1.539 1.7a23 23 0 0 1-1.703 1.542 23 23 0 0 1-1.84 1.368q-.955.636-1.969 1.18a23.697 23.697 0 0 1-4.234 1.754 23 23 0 0 1-2.227.554c-.75.152-1.507.262-2.27.34q-1.14.11-2.288.109h-62.344q-1.15.001-2.293-.11a23 23 0 0 1-2.27-.34 23.2 23.2 0 0 1-6.46-2.308 24 24 0 0 1-1.97-1.18 23.4 23.4 0 0 1-3.538-2.91 23.37 23.37 0 0 1-2.91-3.54 24 24 0 0 1-1.18-1.967 23.697 23.697 0 0 1-1.754-4.234 23 23 0 0 1-.555-2.227 23 23 0 0 1-.34-2.27 24 24 0 0 1-.109-2.293v-77.93q-.001-1.147.11-2.289c.078-.761.187-1.52.34-2.27a23.2 23.2 0 0 1 2.308-6.46q.543-1.014 1.18-1.969a23 23 0 0 1 1.367-1.84q.727-.889 1.543-1.703c.539-.539 1.105-1.055 1.7-1.539a23 23 0 0 1 1.839-1.367 24 24 0 0 1 1.969-1.18 23.696 23.696 0 0 1 4.234-1.754 23.366 23.366 0 0 1 6.79-1.008"/></clipPath><clipPath id="d"><path d="M0 0h374v375H0Zm0 0"/></clipPath><clipPath id="e"><path d="M185.965 46.887a141 141 0 0 1 26.547 2.535c2.183.422 4.36.894 6.523 1.418a141 141 0 0 1 19.067 6.094q3.097 1.241 6.136 2.629a142 142 0 0 1 11.864 6.117c1.93 1.113 3.828 2.27 5.703 3.472a143 143 0 0 1 5.527 3.743 140.789 140.789 0 0 1 15.438 12.742 142 142 0 0 1 9.21 9.664 138 138 0 0 1 4.25 5.148 144 144 0 0 1 4.004 5.344 147 147 0 0 1 3.743 5.527 141 141 0 0 1 9.59 17.567q1.387 3.039 2.628 6.136a138 138 0 0 1 2.332 6.258 138 138 0 0 1 3.762 12.809 138 138 0 0 1 2.527 13.11 139 139 0 0 1 1.27 13.288q.159 3.334.16 6.672a141 141 0 0 1-1.43 19.965 138.62 138.62 0 0 1-2.527 13.11 138 138 0 0 1-1.726 6.449 147 147 0 0 1-2.032 6.359 143 143 0 0 1-2.336 6.254 139 139 0 0 1-2.629 6.137 137 137 0 0 1-2.914 6.007 141.176 141.176 0 0 1-10.418 17.09 140.79 140.79 0 0 1-12.746 15.434 142 142 0 0 1-4.718 4.719 140.79 140.79 0 0 1-15.434 12.742 139 139 0 0 1-5.531 3.742 137 137 0 0 1-5.7 3.477 142 142 0 0 1-5.859 3.199 142 142 0 0 1-12.144 5.547 147 147 0 0 1-6.258 2.332 138 138 0 0 1-6.36 2.03 140 140 0 0 1-6.449 1.731q-3.241.785-6.523 1.418-3.277.632-6.582 1.106a140 140 0 0 1-19.965 1.426q-3.341.001-6.676-.157a141 141 0 0 1-13.289-1.27 141.43 141.43 0 0 1-13.105-2.527 140 140 0 0 1-6.45-1.73 138 138 0 0 1-12.617-4.367 135 135 0 0 1-6.137-2.63 133 133 0 0 1-6.004-2.917 141.317 141.317 0 0 1-11.562-6.672 143 143 0 0 1-10.871-7.746 138 138 0 0 1-5.149-4.25 138 138 0 0 1-4.94-4.492 138 138 0 0 1-4.72-4.723 134 134 0 0 1-4.492-4.941 138 138 0 0 1-4.25-5.149 136 136 0 0 1-4-5.343 141.26 141.26 0 0 1-7.219-11.23 142 142 0 0 1-3.199-5.86q-1.53-2.968-2.918-6.008a144 144 0 0 1-2.625-6.137 137 137 0 0 1-2.332-6.258 138 138 0 0 1-3.762-12.808q-.785-3.241-1.418-6.524a139 139 0 0 1-1.105-6.582 23 23 0 0 0-.437-2.254 23 23 0 0 0-.653-2.199 23 23 0 0 0-.867-2.125c-.32-.695-.68-1.37-1.07-2.031a22 22 0 0 0-1.262-1.914 23 23 0 0 0-1.445-1.785 24 24 0 0 0-1.614-1.63 24 24 0 0 0-1.765-1.468 23.416 23.416 0 0 0-10.477-4.406 24 24 0 0 0-2.281-.238 23.539 23.539 0 0 0-4.582.2q-1.137.162-2.25.436-1.119.271-2.203.653a23.3 23.3 0 0 0-6.067 3.203 22.7 22.7 0 0 0-3.414 3.062 22 22 0 0 0-1.465 1.766 23.416 23.416 0 0 0-3.27 6.035 23.7 23.7 0 0 0-1.136 4.441 23.4 23.4 0 0 0-.246 4.575c.031.765.106 1.527.211 2.285A187.1 187.1 0 0 0 19.523 272.5a190 190 0 0 0 4.961 9.055 186.37 186.37 0 0 0 11.383 17.223 185 185 0 0 0 13.207 15.863 187 187 0 0 0 14.88 14.312q3.911 3.374 8.007 6.52a182 182 0 0 0 8.355 6.066q4.258 2.919 8.676 5.598a188 188 0 0 0 8.973 5.11 185 185 0 0 0 9.242 4.605 181 181 0 0 0 9.48 4.09q4.8 1.915 9.692 3.562a189 189 0 0 0 9.875 3.02 187.7 187.7 0 0 0 30.41 5.734q5.137.534 10.297.781 5.157.25 10.32.215a186 186 0 0 0 10.32-.356c3.438-.21 6.868-.52 10.286-.921q5.127-.603 10.218-1.493 5.088-.885 10.118-2.05a186.7 186.7 0 0 0 38.89-13.672 183 183 0 0 0 9.18-4.735 185 185 0 0 0 8.902-5.23 185 185 0 0 0 8.598-5.715 185.604 185.604 0 0 0 16.191-12.809 184 184 0 0 0 7.54-7.054 186.5 186.5 0 0 0 20.132-23.5 186.222 186.222 0 0 0 11.145-17.379 186.5 186.5 0 0 0 12.96-28.098q1.77-4.851 3.27-9.797a189 189 0 0 0 2.719-9.96 186 186 0 0 0 3.773-20.298q.663-5.12 1.043-10.269.377-5.156.473-10.316c.063-3.442.027-6.883-.098-10.325a189 189 0 0 0-.668-10.304q-.473-5.145-1.234-10.254a188 188 0 0 0-1.797-10.168 192 192 0 0 0-2.355-10.051 187 187 0 0 0-2.91-9.91 187 187 0 0 0-7.43-19.258 185 185 0 0 0-4.5-9.293 190 190 0 0 0-5.008-9.031 187 187 0 0 0-5.5-8.738 186 186 0 0 0-5.969-8.426 188 188 0 0 0-13.293-15.797A189 189 0 0 0 315 51.723a189 189 0 0 0-7.672-6.91 186 186 0 0 0-8.043-6.477 184 184 0 0 0-8.387-6.023 185 185 0 0 0-8.703-5.551 185 185 0 0 0-9-5.067 194 194 0 0 0-9.265-4.558 186 186 0 0 0-9.5-4.04 192 192 0 0 0-9.711-3.511 189 189 0 0 0-9.89-2.969 186.314 186.314 0 0 0-20.195-4.277q-5.106-.791-10.243-1.3-5.145-.507-10.301-.731a186 186 0 0 0-10.324-.16c-3.446.042-6.883.175-10.32.41q-5.151.344-10.278.976-5.126.628-10.211 1.543-5.081.914-10.11 2.102a191 191 0 0 0-9.976 2.66q-4.952 1.466-9.816 3.207a184 184 0 0 0-9.621 3.742 185 185 0 0 0-9.407 4.266 188 188 0 0 0-9.152 4.777A192 192 0 0 0 86 29.109a189 189 0 0 0-8.57 5.762 182 182 0 0 0-8.239 6.223 183 183 0 0 0-7.882 6.668V23.508a23.6 23.6 0 0 0-.45-4.559 24 24 0 0 0-.558-2.226 23.7 23.7 0 0 0-1.754-4.235 24 24 0 0 0-1.18-1.968A23 23 0 0 0 56 8.68c-.484-.594-1-1.16-1.54-1.703a24 24 0 0 0-1.702-1.54 23 23 0 0 0-1.84-1.367 24 24 0 0 0-1.969-1.18 23.697 23.697 0 0 0-4.234-1.754 23.366 23.366 0 0 0-9.078-.895 23.4 23.4 0 0 0-6.657 1.67 24 24 0 0 0-2.074.98q-1.014.543-1.968 1.18a23 23 0 0 0-1.84 1.367c-.594.484-1.16 1-1.7 1.539a23 23 0 0 0-1.543 1.703 23 23 0 0 0-1.367 1.84 24 24 0 0 0-1.18 1.968 23.696 23.696 0 0 0-1.754 4.234A23 23 0 0 0 15 18.95c-.152.75-.262 1.508-.34 2.27q-.11 1.14-.11 2.289v93.515c0 12.907 10.442 23.38 23.38 23.38h77.93q1.147 0 2.288-.11c.762-.078 1.52-.188 2.27-.34a23.2 23.2 0 0 0 6.46-2.308 24 24 0 0 0 1.97-1.18 23 23 0 0 0 1.84-1.367q.889-.728 1.703-1.543.81-.81 1.539-1.7a23 23 0 0 0 1.367-1.84c.426-.636.816-1.292 1.18-1.968q.54-1.014.98-2.074c.293-.707.55-1.43.773-2.16a23.366 23.366 0 0 0 .895-9.078 23.4 23.4 0 0 0-1.668-6.657 24 24 0 0 0-.98-2.074 24 24 0 0 0-1.18-1.969 23 23 0 0 0-1.367-1.84q-.729-.889-1.54-1.703a24 24 0 0 0-1.702-1.539 23 23 0 0 0-1.84-1.367 24 24 0 0 0-1.97-1.18 23.696 23.696 0 0 0-4.234-1.754 23.366 23.366 0 0 0-6.785-1.008H81.383a140 140 0 0 1 10.39-10.453 140 140 0 0 1 11.43-9.308 140.637 140.637 0 0 1 25.465-14.773 140.5 140.5 0 0 1 27.988-9.133 141 141 0 0 1 29.278-3.09"/></clipPath><linearGradient id="c" x1="8.196" x2="12.603" y1="11.818" y2="9.866" gradientTransform="translate(-61.76 -62.213)scale(31.17187)" gradientUnits="userSpaceOnUse"><stop offset="0" stop-color="#BC66F1"/><stop offset=".016" stop-color="#BC65F1"/><stop offset=".031" stop-color="#BB65F1"/><stop offset=".047" stop-color="#BA64F0"/><stop offset=".063" stop-color="#B964F0"/><stop offset=".078" stop-color="#B863F0"/><stop offset=".094" stop-color="#B763EF"/><stop offset=".109" stop-color="#B762EF"/><stop offset=".125" stop-color="#B662EF"/><stop offset=".141" stop-color="#B561EE"/><stop offset=".156" stop-color="#B461EE"/><stop offset=".172" stop-color="#B360ED"/><stop offset=".188" stop-color="#B260ED"/><stop offset=".203" stop-color="#B15FED"/><stop offset=".219" stop-color="#B15FEC"/><stop offset=".234" stop-color="#B05EEC"/><stop offset=".25" stop-color="#AF5EEB"/><stop offset=".266" stop-color="#AE5DEB"/><stop offset=".281" stop-color="#AD5DEB"/><stop offset=".297" stop-color="#AC5CEA"/><stop offset=".313" stop-color="#AB5CEA"/><stop offset=".328" stop-color="#AB5BE9"/><stop offset=".336" stop-color="#AA5BE9"/><stop offset=".344" stop-color="#A95BE9"/><stop offset=".359" stop-color="#A95AE9"/><stop offset=".375" stop-color="#A85AE8"/><stop offset=".391" stop-color="#A759E8"/><stop offset=".406" stop-color="#A659E7"/><stop offset=".422" stop-color="#A558E7"/><stop offset=".438" stop-color="#A558E7"/><stop offset=".453" stop-color="#A457E6"/><stop offset=".469" stop-color="#A357E6"/><stop offset=".484" stop-color="#A256E5"/><stop offset=".5" stop-color="#A156E5"/><stop offset=".516" stop-color="#A055E5"/><stop offset=".531" stop-color="#9F55E4"/><stop offset=".547" stop-color="#9F54E4"/><stop offset=".563" stop-color="#9E54E4"/><stop offset=".578" stop-color="#9D53E3"/><stop offset=".594" stop-color="#9C53E3"/><stop offset=".609" stop-color="#9B52E2"/><stop offset=".625" stop-color="#9A52E2"/><stop offset=".641" stop-color="#9A51E2"/><stop offset=".656" stop-color="#9951E1"/><stop offset=".664" stop-color="#9850E1"/><stop offset=".672" stop-color="#9750E1"/><stop offset=".688" stop-color="#9750E0"/><stop offset=".703" stop-color="#964FE0"/><stop offset=".719" stop-color="#954FE0"/><stop offset=".734" stop-color="#944EDF"/><stop offset=".75" stop-color="#944EDF"/><stop offset=".766" stop-color="#934DDE"/><stop offset=".781" stop-color="#924DDE"/><stop offset=".797" stop-color="#914CDE"/><stop offset=".813" stop-color="#904CDD"/><stop offset=".828" stop-color="#8F4BDD"/><stop offset=".844" stop-color="#8E4BDC"/><stop offset=".859" stop-color="#8E4ADC"/><stop offset=".875" stop-color="#8D4ADC"/><stop offset=".891" stop-color="#8C49DB"/><stop offset=".906" stop-color="#8B49DB"/><stop offset=".922" stop-color="#8A48DA"/><stop offset=".938" stop-color="#8948DA"/><stop offset=".953" stop-color="#8847DA"/><stop offset=".969" stop-color="#8847D9"/><stop offset=".984" stop-color="#8746D9"/><stop offset="1" stop-color="#8646D9"/></linearGradient><linearGradient id="f" x1="1.84" x2="5.213" y1="2.038" y2="16.099" gradientTransform="translate(-61.76 -62.213)scale(31.17187)" gradientUnits="userSpaceOnUse"><stop offset="0" stop-color="#0FAFFF"/><stop offset=".031" stop-color="#0FAFFF"/><stop offset=".047" stop-color="#0FAFFF"/><stop offset=".055" stop-color="#0FAFFF"/><stop offset=".063" stop-color="#0FAEFE"/><stop offset=".07" stop-color="#0FAEFE"/><stop offset=".078" stop-color="#0FADFD"/><stop offset=".086" stop-color="#0FACFD"/><stop offset=".094" stop-color="#0EACFC"/><stop offset=".102" stop-color="#0EABFC"/><stop offset=".109" stop-color="#0EABFB"/><stop offset=".117" stop-color="#0EAAFB"/><stop offset=".125" stop-color="#0EA9FA"/><stop offset=".133" stop-color="#0EA9FA"/><stop offset=".141" stop-color="#0EA8F9"/><stop offset=".148" stop-color="#0EA8F9"/><stop offset=".156" stop-color="#0DA7F8"/><stop offset=".164" stop-color="#0DA6F7"/><stop offset=".172" stop-color="#0DA6F7"/><stop offset=".18" stop-color="#0DA5F6"/><stop offset=".188" stop-color="#0DA5F6"/><stop offset=".193" stop-color="#0DA4F5"/><stop offset=".195" stop-color="#0DA4F5"/><stop offset=".203" stop-color="#0DA4F5"/><stop offset=".211" stop-color="#0DA3F4"/><stop offset=".219" stop-color="#0CA2F4"/><stop offset=".227" stop-color="#0CA2F3"/><stop offset=".234" stop-color="#0CA1F3"/><stop offset=".242" stop-color="#0CA1F2"/><stop offset=".25" stop-color="#0CA0F2"/><stop offset=".258" stop-color="#0C9FF1"/><stop offset=".266" stop-color="#0C9FF1"/><stop offset=".273" stop-color="#0C9EF0"/><stop offset=".281" stop-color="#0B9EF0"/><stop offset=".289" stop-color="#0B9DEF"/><stop offset=".297" stop-color="#0B9DEF"/><stop offset=".305" stop-color="#0B9CEE"/><stop offset=".313" stop-color="#0B9BEE"/><stop offset=".32" stop-color="#0B9BED"/><stop offset=".328" stop-color="#0B9AED"/><stop offset=".336" stop-color="#0B9AEC"/><stop offset=".344" stop-color="#0A99EB"/><stop offset=".352" stop-color="#0A98EB"/><stop offset=".359" stop-color="#0A98EA"/><stop offset=".367" stop-color="#0A97EA"/><stop offset=".375" stop-color="#0A97E9"/><stop offset=".383" stop-color="#0A96E9"/><stop offset=".391" stop-color="#0A95E8"/><stop offset=".398" stop-color="#0A95E8"/><stop offset=".406" stop-color="#0994E7"/><stop offset=".414" stop-color="#0994E7"/><stop offset=".422" stop-color="#0993E6"/><stop offset=".43" stop-color="#0993E6"/><stop offset=".438" stop-color="#0992E5"/><stop offset=".445" stop-color="#0991E5"/><stop offset=".453" stop-color="#0991E4"/><stop offset=".461" stop-color="#0990E4"/><stop offset=".469" stop-color="#0890E3"/><stop offset=".477" stop-color="#088FE3"/><stop offset=".484" stop-color="#088EE2"/><stop offset=".492" stop-color="#088EE2"/><stop offset=".5" stop-color="#088DE1"/><stop offset=".508" stop-color="#088DE1"/><stop offset=".516" stop-color="#088CE0"/><stop offset=".523" stop-color="#088CDF"/><stop offset=".531" stop-color="#088BDF"/><stop offset=".539" stop-color="#078ADE"/><stop offset=".547" stop-color="#078ADE"/><stop offset=".555" stop-color="#0789DD"/><stop offset=".563" stop-color="#0789DD"/><stop offset=".57" stop-color="#0788DC"/><stop offset=".578" stop-color="#0787DC"/><stop offset=".586" stop-color="#0787DB"/><stop offset=".594" stop-color="#0786DB"/><stop offset=".602" stop-color="#0686DA"/><stop offset=".609" stop-color="#0685DA"/><stop offset=".617" stop-color="#0684D9"/><stop offset=".625" stop-color="#0684D9"/><stop offset=".633" stop-color="#0683D8"/><stop offset=".641" stop-color="#0683D8"/><stop offset=".648" stop-color="#0682D7"/><stop offset=".656" stop-color="#0682D7"/><stop offset=".664" stop-color="#0581D6"/><stop offset=".672" stop-color="#0580D6"/><stop offset=".68" stop-color="#0580D5"/><stop offset=".688" stop-color="#057FD5"/><stop offset=".695" stop-color="#057FD4"/><stop offset=".703" stop-color="#057ED3"/><stop offset=".711" stop-color="#057DD3"/><stop offset=".719" stop-color="#057DD2"/><stop offset=".727" stop-color="#047CD2"/><stop offset=".734" stop-color="#047CD1"/><stop offset=".742" stop-color="#047BD1"/><stop offset=".75" stop-color="#047BD0"/><stop offset=".758" stop-color="#047AD0"/><stop offset=".766" stop-color="#0479CF"/><stop offset=".773" stop-color="#0479CF"/><stop offset=".781" stop-color="#0478CE"/><stop offset=".789" stop-color="#0378CE"/><stop offset=".797" stop-color="#0377CD"/><stop offset=".805" stop-color="#0376CD"/><stop offset=".807" stop-color="#0376CC"/><stop offset=".813" stop-color="#0376CC"/><stop offset=".82" stop-color="#0375CC"/><stop offset=".828" stop-color="#0375CB"/><stop offset=".836" stop-color="#0374CB"/><stop offset=".844" stop-color="#0373CA"/><stop offset=".852" stop-color="#0273CA"/><stop offset=".859" stop-color="#0272C9"/><stop offset=".867" stop-color="#0272C9"/><stop offset=".875" stop-color="#0271C8"/><stop offset=".883" stop-color="#0271C7"/><stop offset=".891" stop-color="#0270C7"/><stop offset=".898" stop-color="#026FC6"/><stop offset=".906" stop-color="#026FC6"/><stop offset=".914" stop-color="#026EC5"/><stop offset=".922" stop-color="#016EC5"/><stop offset=".93" stop-color="#016DC4"/><stop offset=".938" stop-color="#016CC4"/><stop offset=".945" stop-color="#016CC3"/><stop offset=".953" stop-color="#016BC3"/><stop offset=".961" stop-color="#016BC2"/><stop offset=".969" stop-color="#016AC2"/><stop offset=".977" stop-color="#016AC1"/><stop offset=".984" stop-color="#0069C1"/><stop offset=".992" stop-color="#0068C0"/><stop offset="1" stop-color="#0068C0"/></linearGradient></defs><g clip-path="url(#a)"><g clip-path="url(#b)"><path fill="url(#c)" d="M154.824 93.645v124.687h109.102V93.645Zm0 0"/></g></g><g clip-path="url(#d)"><g clip-path="url(#e)"><path fill="url(#f)" d="M.586.105v374.172h372.516V.105Zm0 0"/></g></g></svg>